<?xml version="1.0" encoding="UTF-8" standalone="no"?>
<svg
   xmlns:dc="http://purl.org/dc/elements/1.1/"
   xmlns:cc="http://creativecommons.org/ns#"
   xmlns:rdf="http://www.w3.org/1999/02/22-rdf-syntax-ns#"
   xmlns:svg="http://www.w3.org/2000/svg"
   xmlns="http://www.w3.org/2000/svg"
   xmlns:xlink="http://www.w3.org/1999/xlink"
   xmlns:sodipodi="http://sodipodi.sourceforge.net/DTD/sodipodi-0.dtd"
   xmlns:inkscape="http://www.inkscape.org/namespaces/inkscape"
   width="126.029"
   height="43.175"
   version="1.1"
   id="svg3878"
   sodipodi:docname="logo.svg">
  <metadata
     id="metadata3882">
    <rdf:RDF>
      <cc:Work
         rdf:about="">
        <dc:format>image/svg+xml</dc:format>
        <dc:type
           rdf:resource="http://purl.org/dc/dcmitype/StillImage" />
      </cc:Work>
    </rdf:RDF>
  </metadata>
  <sodipodi:namedview
     pagecolor="#ffffff"
     bordercolor="#666666"
     borderopacity="1"
     objecttolerance="10"
     gridtolerance="10"
     guidetolerance="10"
     inkscape:pageopacity="0"
     inkscape:pageshadow="2"
     inkscape:window-width="640"
     inkscape:window-height="480"
     id="namedview3880"
     showgrid="false" />
  <defs
     id="defs3833" />
  <defs
     id="defs3854">
    <linearGradient
       id="b">
      <stop
         offset="0"
         id="stop3835" />
      <stop
         offset="1"
         stop-color="#fffefe"
         id="stop3837" />
    </linearGradient>
    <linearGradient
       id="c">
      <stop
         offset="0"
         stop-color="#ff0"
         id="stop3840" />
      <stop
         offset="1"
         stop-color="#fff"
         id="stop3842" />
    </linearGradient>
    <linearGradient
       id="a">
      <stop
         offset="0"
         id="stop3845" />
      <stop
         offset="1"
         stop-opacity="0"
         id="stop3847" />
    </linearGradient>
    <linearGradient
       id="d"
       x1="9.856"
       x2="26.963"
       y1="-16.554"
       y2="-16.803"
       gradientTransform="matrix(.99895 0 0 1.2824 -127.02 -.575)"
       gradientUnits="userSpaceOnUse"
       xlink:href="#b" />
    <linearGradient
       id="f"
       x1="15.004"
       x2="14.942"
       y1="-15.719"
       y2="-8.237"
       gradientTransform="matrix(.99533 0 0 .97443 -5.127 35.838)"
       gradientUnits="userSpaceOnUse"
       xlink:href="#c" />
    <linearGradient
       id="g"
       x1="15.004"
       x2="14.942"
       y1="-15.719"
       y2="-8.237"
       gradientTransform="matrix(.99533 0 0 .97443 64.272 35.623)"
       gradientUnits="userSpaceOnUse"
       xlink:href="#c" />
    <linearGradient
       id="e"
       x1="9.372"
       x2="29.108"
       y1="-16.345"
       y2="-16.858"
       gradientTransform="matrix(.99895 0 0 1.2824 -.817 42.681)"
       gradientUnits="userSpaceOnUse"
       xlink:href="#a" />
  </defs>
  <ellipse
     cx="-63.02"
     cy="-21.662"
     fill="url(#d)"
     stroke="#fdff00"
     stroke-opacity=".995"
     stroke-width="1.132"
     rx="62.448"
     ry="20.922"
     transform="rotate(-179.977) skewX(.009)"
     id="ellipse3856" />
  <ellipse
     cx="63.184"
     cy="21.594"
     fill="url(#e)"
     stroke="#fdff00"
     stroke-opacity=".995"
     stroke-width="1.132"
     rx="62.448"
     ry="20.922"
     transform="rotate(.092) skewX(.009)"
     id="ellipse3858" />
  <ellipse
     cx="62.638"
     cy="21.596"
     stroke="#fdff00"
     stroke-opacity=".995"
     stroke-width=".794"
     rx="51.085"
     ry="20.092"
     id="ellipse3860" />
  <path
     fill="url(#f)"
     stroke="#000"
     stroke-width=".492"
     d="M10.338 7.551l6.795.027.134 3.324h-1.952l4.715 18.755h.206l5.708-18.903-1.512-.027-.007-3.149 6.929.027-.038 3.133-1.344-.01 5.42 18.929h.206l4.819-18.792-1.67-.026V7.595h6.447l.037 3.287-1.77.03-6.11 22.553-3.505.01-5.98-20.574-5.774 20.591h-3.609L12.366 10.84l-1.811-.037z"
     id="path3862" />
  <path
     fill="url(#g)"
     stroke="#000"
     stroke-width=".492"
     d="M79.737 7.336l6.794.027.134 3.325h-1.952l4.715 18.754h.207l5.708-18.902-1.512-.027-.007-3.15 6.928.027-.037 3.133-1.344-.01 5.42 18.929h.206l4.818-18.791-1.67-.027V7.38h6.447l.038 3.287-1.77.03-6.11 22.554-3.506.01-5.98-20.575-5.774 20.591h-3.608l-6.118-22.653-1.81-.037z"
     id="path3864" />
  <ellipse
     cx="63.489"
     cy="-18.722"
     fill="#fff"
     rx="18.254"
     ry="16.976"
     transform="translate(-.906 40.722)"
     id="ellipse3866" />
  <path
     fill="#c9c7b7"
     d="M60.1 39.663v-.107h-.859l-.06-.16-.062-.16h-.517l-.06-.16-.062-.16h-1.106l-.261-.315-.262-.315-.403-.005-.402-.004-.062-.16-.061-.16H54.848l-.624-.64-.623-.64h-.752l-.06-.159-.062-.16H52.3l-.253-.24-.253-.24-.001-.186-.002-.187-.213-.213-.213-.213h-.353l-.623-.64-.624-.64h-.341l-.253-.24-.253-.239-.002-.184-.002-.185-.799-.787-.799-.786v-1.073l-.16-.062-.16-.061v-.517l-.16-.061-.16-.062-.004-.243-.004-.243-.315-.261-.315-.262v-.467l-.16-.061-.16-.062v-.54h-.213V16.319h.213v-.54l.16-.062.16-.06v-.468l.315-.261.315-.262.004-.563.005-.563.16-.061.16-.061v-.437l.639-.623.639-.624v-.34l.895-.896.895-.895h.344l.473-.493.472-.494.165.064.165.063v.25l-.805.793-.805.793.033.153.032.154.98-1.005.98-1.006-.154-.059-.154-.06v-.24l.895-.896.895-.895h.424l.062-.16.06-.16.244-.005.243-.004.261-.315.262-.316h.466l.062-.16.061-.16.722-.004.723-.005.261-.315.262-.315h1.105l.062-.162.062-.161 3.226.028 3.225.028.034.294.034.293h3.082l.061.16.062.16h.516l.062.16.06.16h.517l.062.16.061.16h.836l.062.159.06.16h.517l.062.16.061.16h.517l.061.16.061.16h.44l.46.48.459.479h.353l.786.8.786.799h.337l.895.895.895.896v.34l.205.206.204.204.248.035.249.036.034.426.035.426.152.086.151.085v.5l.16.06.16.062.005.243.004.244.315.261.315.262v.466l.16.062.16.061v.837l.16.061.16.062v.859h.213v2.772h-.433l-.06.155-.06.156.276.256.277.256v.776h-.46l.23.199.23.199V23.843l-.128.128-.128.128h.256v4.264h-.213v.86l-.16.061-.16.061v.517l-.16.062-.16.061v.467l-.315.261-.315.262-.004.203-.005.203-.64.623-.638.624v.356l-.471.45-.47.452-.036.25-.036.25-.242.034-.242.035-.523.522-.522.523-.034.243-.035.242-.25.035-.25.036-.45.47-.451.472h-.44l-.062.16-.06.16h-.517l-.062.16-.061.16h-.517l-.061.16-.061.16h-.517l-.061.159-.062.16H70.245l-.062.16-.061.16h-.517l-.06.16-.062.16h-.517l-.061.16-.061.16h-1.156l-.062.16-.06.16h-3.417v.212h-4.048zm4.344-1.406l-.042-.127-.126-.042-.127-.042v.337h.338zm4.266-.434l.036-.186h-.441v.442l.184-.035.186-.036zm.98-.399v-.107h-.32v.214h.32zm1.334-.431l.069-.112-.056-.147-.056-.146-.22.057-.22.058v.401h.414zm-7-.78l.034-.175h-.213l-.168.168-.167.167v.191l.24-.088.24-.089zm8.113-.064l.156-.1-.177-.067-.177-.068-.184.035-.184.036-.044.133-.044.133.248-.001.249-.002.157-.099zm-13.421-.43l-.16-.104-.08-.001-.08-.002v.213l.24-.002.24-.001zm14.663-.209l.185-.314.266-.032.266-.032.084-.314.083-.315-.055-.055-.054-.054-.182.13-.181.13-.117.058-.117.057-.57.528-.572.528h.778zm-8.804-.964v-.107l-.346.002-.346.002.16.103.16.103.186.002.186.001v-.106zm10.342-.217l.206-.11V33.9l-.324.167-.323.167.063.102.063.102h.108zm-22.167-.325v-.222l-.134.044-.133.045-.034.177-.035.178h.336zm6.46-.258l.16-.16h.36l.133-.213.133-.213h-.604l-.216.24-.216.24-.075.133-.075.133h.24zm16.596-.335l.067-.175-.053-.053-.053-.053-.162.135-.163.134v.188h.297zm-19.39-.348l.202-.223h-.389l-.195.177-.195.176v.294l.188-.1.187-.1zm9.361.017l.33-.186.193-.187.193-.186h-.42l-.429.223-.43.224v.157l.072.07.07.072h.092zm-1.521-.054v-.134l-.224-.14-.223-.14-.052.052-.051.051.119.223.119.222h.312zM76.4 32.72v-.2h-.206l-.11.206-.11.206v.1l.213-.055.213-.056zm-14.383-.563v-.15l-.346-.22-.346-.22-.04.116-.04.115.307.25.306.25.08.005.08.003v-.15zm6.073-.734v-.157l.16-.132.16-.133v-.271l.16-.061.16-.062v-.256l.176-.195.176-.195h-.372l-.2.24-.2.24-.003.12-.004.12-.16.133-.16.133v.374l-.16.133-.159.132v.536l.213-.271.213-.271zm5.114.006v-.215l-.16.133-.16.133v.287l.16-.062.16-.061zm-19.065-.078l.26-.315.134-.004.133-.005v-.426h-.231l-.118.313-.118.312-.166.062-.166.062-.266.157-.267.157.272.001.271.002zm20.343.007v-.095l-.175-.067-.175-.067-.048.048-.05.05.071.113.07.114h.307zm-10.6-.118l.066-.106h-.533l-.066.106-.066.107h.533zm1.731.033l-.186-.048-.187.048-.186.05h.745zm12.064-.166l-.002-.24-.103.16-.103.16-.002.08-.001.08h.213l-.002-.24zm-17.583-.083l.165-.004.24-.2.24-.2v-.34h-.334l-.366.28-.365.28v.443l.127-.128.128-.128.165-.004zm12.105-.397l.069-.133-.061-.16-.062-.16h-.326l.002.56.001.56.154-.267.154-.266.07-.134zm-9.175.409l.06-.098-.168-.169-.168-.168h-.632l.11.206.11.206.294.044.293.045.02.016.02.016zm3.684-.17l.364-.27.088-.157.088-.158h-.14l-.403.32-.403.32H65.96v.213h.384zm11.45-.372l.193-.213h-.46v.426h.074zm-11.62-1.267l.524-.12.176-.159.176-.16h.197l.4-.368.399-.367v-.208l-.293.158-.293.158-.32.206-.32.206-.16.06-.16.06-.404.213-.404.214-.74-.073-.742-.073V29.092l.068.177.068.177.651-.05.652-.049.524-.119zm-3.267-.099l.043-.126h-.444v.177l.073.074.073.073.107-.036.106-.035zm-10.838-.24l.118-.222-.3.035-.3.034-.035.187-.035.186h.434zm18.242.157l.064-.064-.057-.149-.057-.149-.096.06-.095.058v.307h.177zm-9.531-.194l.287-.15.313-.33.313-.329h-.546l-.133.16-.132.16h-.224l-.195.177-.195.176v.287h.224zm8.43-1.177l.114-.07v-.763l-.213.271-.213.271.007.41.007.41.092-.23.092-.229.114-.07zm-15.482-.013l-.065-.169v-.089h-.193l.056.213.055.213h.211zm18.047-.557v-.085l-.128-.128-.128-.128H71.5v.284l.071.072.071.07h.498zm.905-.447l.193-.214h-.426l-.193.214-.193.213h.426zm-18.378-.214v-.106l-.24.001-.24.002-.159.103-.16.104.4.001.4.002zm-7.35-.38v-.168l-.179.034-.177.035-.044.133-.045.133h.444zm3.915-.44l.88-.048.107-.202.108-.202.274.104.273.104.104-.065.105-.064-.183-.203-.183-.203h-.777l-.118.119-.119.118-.622.16-.622.158-.346.054-.347.054v.321l.293-.079.293-.08zm27.22-.412l.186-.375v-.311h-.195l-.141.32-.142.32h-.216l-.133.212-.133.214.294-.003.293-.003.187-.374zm-7.471-.58h.214l.339-.258.34-.258.302-.076.303-.076-.128-.079-.129-.08-.227.056-.228.056-.128.1-.128.1-.298-.02-.299-.02-.12.01-.122.012-.38.392-.38.391.058.093.058.094.37-.219.369-.218zm-7.876.03l.607-.048.125-.15.125-.152h.26l.164-.186.163-.187.049-.35.048-.352-.074-.046-.075-.046-.19.21-.19.211-.118.001-.116.001-.47.479-.47.479h-.321l-.189-.17-.188-.17-.113.07-.114.07v.544l.24-.08.24-.081.607-.048zm-13.801-1.154l.063-.164-.058-.057-.057-.058-.222.12-.222.118v.206h.432zm27.15-.137v-.125l-.106-.005-.107-.006-.037.178-.036.178.143-.048.143-.048v-.124zm2.717-.284v-.16l-.346.003-.346.003.206.157.207.156h.28v-.16zm-31.11-.533l.133-.16.6.067.6.066.1.093.102.093h.163l.115-.214.114-.214-.297-.116-.297-.116-.366-.037-.366-.036-.46.21-.46.209v.314h.187zm23.528-.144l.035-.249-.195.038-.195.037-.035.248-.036.248.195-.037.196-.037zm.87.259v-.045l.065-.168.064-.169H72.246v.089l-.065.169-.064.168H72.459zm1.718-.128l.19-.172-.128-.127-.129-.127-.175-.066-.175-.067-.055.285-.054.285.05.08.05.081h.236zM61.7 22.454v-.152l.296-.212.296-.21.19.106.19.106.153-.06.153-.058v-.327l-.346-.012-.346-.012-.213.017-.213.018-.33.17-.331.17-.352-.175-.352-.176h-.613l-.062-.162-.063-.162.075-.8.075-.799.382-.397.381-.398.07.267.07.266-.068.053-.066.054-.143.352-.142.353.129.127.129.127.155-.21.156-.212-.062-.285-.063-.285.113-.07.113-.07v-1.574l.106-.065.107-.066v-.381l-.202-.183-.201-.182.12-.321.122-.322-.186-.104-.186-.104v-.338l-.123-.412-.124-.412H60.211l-.067-.267-.066-.266.055-.145.056-.144.442-.113.443-.112.054.142.054.142-.114.214-.115.215v.12h1.352l.193-.213.193-.213h-.658l-.067-.209-.066-.21.116-.216.116-.218h.177l.36-.318.361-.318.108-.002.108-.001.143-.23.143-.229-.617.073-.616.072-.14.117-.14.116v.3l-.16.384-.16.382-.16-.132-.16-.133v-1.16l.11-.207.11-.206h.215l.313-.232.313-.231.19.172.19.172.351-.01.352-.01.165.165.165.165.327-.093.327-.094.612.584.612.585h.248l.248.002.523.159.523.158h.521l.404.32.403.32h.342v.207l.53.228.529.228.123.148.123.148h.194l-.114-.213-.114-.213h-.228l-.441-.343-.442-.342-.234-.244-.235-.244-.245-.004-.245-.004.366-.159.366-.159-.525-.275-.526-.276-.102-.094-.1-.095h-.443l-.244-.17-.243-.17-.438-.043-.438-.042-.255-.168-.255-.167-.213-.213-.213-.213.126-.153.127-.153h.4v.232l.24.2.24.2.086.004.087.004-.034-.198-.033-.198.335-.282.335-.282h.566l.312.162.313.162.215-.215.215-.215v-.374l-.613.038-.613.037-.129.106-.129.105-.643.059-.643.058-.067-.334-.067-.335h-.399v.84l-.107.066-.106.066-1.127.014-1.126.014-.098-.154-.098-.153.21-.145.21-.145-.115-.215-.116-.216-.642.067-.642.067.056-.491.055-.492-.334-.304-.335-.305-.218-.003-.219-.003-.124.124-.124.124.38.42.38.421-.068.335-.068.335-.062.294-.061.294-.228.056-.227.057-.213-.021-.213-.021-.187.016-.186.017v.32h.64v.199l-.207.066-.207.065-.193-.105-.193-.105-.291-.062-.292-.061-.069-.292-.069-.291-.133-.16-.133-.16-.08-.26-.079-.26-.373-.352-.373-.352.133-.16.134-.162h.367l.17-.189.172-.189-.075-.104-.074-.104-.348-.022-.348-.023-.13.21-.131.208h-.482v.366l.178.483.178.484.195.22.195.22v.146h-.524l-.81-.12-.81-.121-.166-.253-.165-.253.132-.16.132-.159h1.054l-.235-.33-.235-.33-.465.07-.465.07v-.136l.34-.338.34-.338.113.04.113.041.39.077.39.076.12-.264.12-.265-.058-.057-.057-.058-.611.025-.611.024-.17.154-.17.153h-.256l-.29.18-.289.178-.131.159-.131.159.117.142.118.142.227.004.226.005-.426.152-.426.152-.382-.06-.382-.062-.87.876-.87.877v.294h-.218l-.106.24-.105.24-.265.47-.264.47v.239l.201.172.202.173.224.071.224.071.05.233.05.233.035.213.036.213.187-.426.188-.427.18-.371.18-.372.195-.037.194-.038.205.186.206.186v.556l-.216.404-.217.403.063.101.063.102.126.003.127.002.207.45.206.45.167.126.166.125-.029.773-.029.773-.117.141-.117.142h-.33l-.188-.17-.188-.17-.326.071-.327.072v.714l.172.173.173.172.182-.165.182-.164h.33l.119.143.119.143.063.317.064.317-.165.394-.164.393-.554.587-.554.586.128.282.128.281-.112.112-.111.112v.17h.356l.183-.166.183-.166-.117-.312-.118-.312.117-.117.116-.117.342.335.343.334.23-.032.23-.033-.01-.24-.008-.24h.293l-.07.373-.07.373h.45v-.348l.232-.385.231-.386.02-.03.02-.028.174.067.175.067.004.175.003.175.138.182.138.181.245-.064.245-.064.098.176.099.176h.616l.066.106.066.107h.212l.314-.344.313-.343v-.152l-.295.009-.296.008-.393-.142-.393-.142-.054-.141-.054-.141.12-.265.12-.265-.179-.198-.179-.198.062-.161.062-.161.262-.12.263-.12.084-.24.084-.242-.006-.64-.007-.64h-.42l-.117.238-.118.236-.275.217-.275.216h-.335l-.407-.163-.408-.163-.174-.296-.175-.296.15-.26.149-.261.065-.16.065-.16.1-.16.1-.16.125-.266.127-.267.21-.24.212-.24h.604l.183.214.182.213h.265l.12-.224.12-.224-.053-.203-.053-.202h.528l-.034-.24-.035-.24-.402-.033-.403-.033-.129-.207-.129-.206h-.332l-.111.11-.111.112-.132-.16-.133-.159.07-.22.07-.222.259-.17.258-.169v-.373l.48-.48.48-.48v-.241h.199l.033-.293.033-.293h.533l.032.222.032.223-.165.137-.165.137v.502l-.267.174-.266.175.004.12.005.122.555.266.555.267.032.547.031.547-.175.175-.176.176.13.157.13.157h.452l.543.374.543.374.338.47.337.47.068.806.068.805-.255.212-.255.213-.215.003-.215.004-.398-.27-.397-.271v-.419h-.126l-.2.24-.2.24-.003.247-.004.247.106.197.106.198.315.069.316.07.27.213.272.213v.297l-.198.106-.198.107-.231.537-.231.537h-.184l-.07.276-.068.275.067.214.068.213.158-.225.157-.225.32.269.32.27h.387l.06.153.058.155.432.116.432.116v.312h.639v-.153zm5.327-9.334v-.107h.545l-.066.107-.066.106h-.413zm-13.588-.647l-.07-.114.037-.033.037-.033.453-.228.453-.229v-.409l-.107-.066-.106-.066v-.52h-.18l-.177.194-.176.195-.004.099-.005.098-.308.36-.308.36-.167-.063-.167-.064v-.19l.372-.468.372-.468v-.133l.002-.133.39-.432.39-.432.26.032.26.032.05.853.05.852.206.22.205.22v.202l.24.106.24.105-.032.107-.03.106-.236-.032-.235-.032-.387-.058-.387-.058-.073.117-.072.117h-.72zm6.772.026l-.157-.053-.312-.291-.311-.292.066-.171.065-.171h.186l.495.467.495.468-.185.048-.185.048zm1.34-1.254l-.065-.17.104-.177.103-.177.003.126.004.126.218.07.219.07-.125.15-.125.151h-.271zm-.917-.204v-.267h.427v.404l-.169.065-.169.064h-.089zm9.8 11.113l.002-.187h-.213l.001.347.002.346.103-.16.104-.16.001-.186zm-1.067.16l-.004-.187-.2-.24-.2-.24h-.239l-.06-.16-.062-.16h-.297v.203l.15.086.151.085.036.315.036.316.266.073.267.074.08.01.08.011-.004-.186zm6.5-.267l.002-.08h-.433l.121.228.122.227.094-.147.093-.148.002-.08zm-17.683-.186v-.214h-.426v.427h.426zm9.588.12v-.094l-.133-.107-.133-.106-.24-.074-.24-.074v.341l.24.097.24.096.133.007.133.007v-.094zm5.967-.19v-.07l-.272-.357-.272-.356h-.289l.113.368.113.367.223.045.224.044.08.014.08.015zm-22.316-.363l.07-.114-.17-.188-.17-.188v-.163l.216-.275.216-.275-.11-.11-.112-.111-.323.191-.324.192-.923-.077-.923-.077-.34-.191-.34-.191-.07.37-.069.37.066.207.066.208.292-.15.291-.152.687.062.687.062.468.356.469.357h.276zm-4.106-.388v-.395l-.098.102-.099.101.058.293.057.293h.082zm21.84-.139v-.213h-.161l-.133.213-.134.213h.428zm2.432-.353l.034-.299.152-.058.152-.059v-.183l-.178.068-.178.068-.176.177-.176.176-.065.168-.064.168.067.067.068.068.165-.032.165-.03zm-7.565-.069l.233-.315v-.241l.235-.191.235-.19.005-.307.004-.306.435-.032.436-.032.137.166.137.165h.217l.141-.187.142-.186.003-.18.003-.18-.219-.069-.22-.07-.516.072-.518.071-.207-.111-.208-.111-.201.148-.201.149.133.135.133.135v.36l-.133.251-.134.252-.26.347-.259.346h-.293l-.366-.279-.366-.279v.353l.162.247.162.248.252-.048.251-.049.072.117.072.117h.267l.234-.316zm11.24-.157l-.194-.267-.146-.003-.146-.003.146.182.146.181.16.17.16.168.034-.08.035-.081-.195-.267zm-28.906-.211v-.045l-.064-.169-.065-.168h-.297v.426h.426zm21.201-.056v-.1l-.09-.057-.091-.056-.202.153-.203.153.293.004.293.003v-.1zm-9.31-.371l.058-.152-.112-.208-.111-.209-.296-.057-.297-.056-.14.078-.14.079.316.338.316.338h.348zm10.6-.023l.146-.175.028-.678.028-.678h-.302l-.054-.134-.053-.133-.02.587-.021.586-.015.4-.015.4h.134zm5.635.068v-.107h-.426v.213h.426zm2.631-.14l-.192-.192-.446.033-.446.032-.035.183-.034.182.673-.023.673-.022zm-26.303-.595l.033-.575-.103-.103-.102-.103-.35-.071-.349-.071-.175-.317-.176-.317-.204-.037-.205-.037-.084-.08-.085-.08-.05-.961-.05-.962.162-.134.16-.134v-.374l.135-.111.134-.111.425.2.425.202.229.004.228.003.068-.176.067-.177-.272-.393-.273-.394-.261-.14-.262-.14-.268.29-.268.289-.162.314-.163.314h-.207v.332l-.317.395-.317.395.005.878.006.878.236-.06.236-.059.294.273.294.272h.521v.947l.107.066.106.066v.503l.134.056.133.056.266-.02.266-.021.033-.575zm11.456.29l.06-.232-.054-.088-.054-.088h-.207l-.091.24-.09.24.046.08.047.08h.283zm10.938.129v-.103l-.213-.114-.213-.114v.433h.426zm-26.652-.334l-.114-.071-.093-.146-.092-.146-.002.347-.001.348.209-.13.208-.131zm5.538-.39l.034-.24h-.57l.064.17.065.168v.211l.187-.035.186-.036zm11.206-.026v-.213h-.187l-.186.001-.32.212-.32.212h.507l.506.001v-.213zm12.891.053l.133-.16h.3l.061-.16.061-.16h.237l.51-.502.51-.502v-.364l-.374-.23-.373-.231-.158-.226-.157-.225.37-.34.372-.34v-.7l-.49.498-.49.497h-.461l-.452.466-.451.466v.39l.128-.128.127-.128h.384v-.422l.256-.064.257-.065.223.12.223.119v.378l-.157.207-.156.207-.004.32-.004.32-.186.277-.186.278-.32.278-.319.28.227.003.226.003zm-27.402-.075l.128-.128v-.399l-.186.035-.187.036-.033.292-.034.292h.184zm13.436-.565l.183-.213-.246-.236-.247-.236.012.663.013.662.051-.213.052-.213zm5.55.427v-.16h-.09l-.177.068-.178.068.143.09.142.09.08.002.08.002v-.16zm3.898-.08l.253-.24.002-.146.001-.147-.156.13-.157.13-.388.012-.389.01-.12-.16-.121-.162-.187-.07-.186-.07v.119l.24.2.24.2.178.004.18.003.067.214.068.213h.222l.253-.24zm-24.993-.082v-.108l-.133-.218-.134-.218.197-.146.196-.145-.07-.22-.07-.22.167-.238.166-.238v-.592h.32v-.411l.16-.16.16-.16v-.65l.266-.175.266-.174v-.496l-.113-.07-.113-.07-.206.187-.207.186v.368l-.16.132-.16.133v.48l-.168.141-.17.14.06.302.061.302-.21.181-.212.18v.354l-.16.133-.16.132V18.194l.129.128.127.128H46.677zm18.005-.371l.132-.16h-.584l.132.16.133.16h.054zm3.562-.64l-.201-.373h-.272v.227l.293.3.293.302.044-.04.044-.041zm11.559-.2l-.13-.12.068.196.07.195.015.231.016.231.046-.306.045-.306zm-9.794.484v-.09l-.333-.39-.334-.39h-.292v.184l.228.29.227.29.225.09.225.092.027.007.027.006v-.089zm-19.052-.194l.194-.176v-.383l-.001-.384-.372.393-.371.392.064.167.064.168h.227l.195-.177zm6.708-.39l-.22-.219-.068.18-.07.18.252.205.251.205.037-.165.037-.166zm16.025.345l.07-.115.305-.185.304-.185-.31-.34-.31-.34h-.209l-.04.187-.04.187-.345-.363-.346-.363-.43-.736-.429-.735.135-.162.134-.162-.15-.093-.151-.093-.182.164-.182.165-.14-.081-.14-.082-.482-.398-.482-.399-.477-.07-.477-.07-.213.163-.213.164.429.003.429.003.547.613.548.613.598.693.598.693.067.267.067.266.155.24.156.24h.271l.252.21.251.209.18.004.18.003.072-.115zm1.788-.063l.071-.071-.176-.195-.177-.195h-.157l-.065.169-.065.17.06.097.06.097h.378zm-8.579-.276l.036-.185h-.442v.442l.185-.036.185-.036zm4.964.15l.057-.09-.133-.182-.133-.182-.183.07-.184.071v.404h.52zm-8.566-.295v-.04l-.346.001-.347.002.145.092.145.092.202-.053.2-.053v-.04zm2.237.079v-.095l-.236-.061-.236-.062-.643.076-.643.076.853.06.852.06.026.02.027.02zm-9.935-.466l-.044-.133-.177-.035-.178-.034v.335h.444zm13.66-.533l.004-.08h-.309l-.1.178-.099.178.12.13.122.132.129-.229.13-.229.003-.08zm2.142.01l-.22-.237v.29l.183.203.184.203.037-.11.037-.112zm-13.557-.17l.034-.24h-.76v.411l.186.05.186.05.16-.017.16-.016zm-8.078.027l.133-.16.813.002.812.003.426.1.427.099.15-.15.151-.15-.14-.168-.139-.168-1.445.03-1.445.029-.071.346-.07.347h.266zm12.359.05v-.108l-.263-.12-.263-.12-.163.135-.163.136v.187h.852zm16.194-.103v-.214h-.32v.427h.32zm1.086.085l-.127-.128v-.373l-.15-.086-.15-.085-.049-.266-.049-.267-.014.334-.015.333.16.133.16.132v.4h.362zm-14.324-.046l.24-.064v-.161l-.545-.073-.545-.072-.067.067-.068.068.207.151.206.151.167-.001.166-.002.24-.064zm3.463-.081l.186-.142v-.334l.168-.168.167-.167h-.323l-.188.32-.19.32h-.7v.177l.072.071.071.071.275-.003.275-.004.187-.141zm-5.514-.065l.214-.092-.347-.007-.346-.008v.214l.133-.008.133-.007.213-.092zm-6.765-.213l.246-.213h-.842l-.128.127-.128.128V15.678h.607zm18.219.133v-.08l.346-.373.346-.373.441-.347.442-.346h.342v-.391l-.35-.107-.35-.108-.13.139-.129.138v.289l-.299.287-.298.286h-.229l-.133.16-.132.16h-.727l-.06-.158-.06-.158.33-.278.33-.278v-.194h-.339l-.2.24-.2.24-.003.142-.004.143-.24.2-.24.2.269.004.268.003.318.309.318.308.186.012.186.011.001-.08zm-15.555-.346l-.16-.104-.346-.001-.347-.002v.213l.507-.001.506-.002zm8.36-.067l.173-.173-.033-.173-.033-.174h-.634l-.037.192-.037.192.129.154.128.155h.172zm-.796-.872v-.085l-.128-.128-.128-.128h-.385l.133.214.133.213h.375zm-1.458-.675l.233-.12.042-.037.041-.036-.255-.213-.254-.212-.134-.003-.133-.004v-.297l-.175-.067-.175-.067-.054.054-.054.054.282.223.283.222v.368l-.128.128-.128.128h.376zm-16.568-.327l.128-.127v-.524l-.214.193-.213.193v.393H48.34zm26.663-.201l.234-.33.226.049.225.048.16.041.16.042v-.295l-.367-.197-.367-.197-.193.174-.192.175v.276l-.141.085-.141.085-.069.187-.068.186h.298zm-4.448-.163l-.064-.165-.084.137-.085.137.054.087.053.087.095-.059.094-.058zm-13.351-.094v-.16h-.56l.134.16.132.16h.294zm12.678-.59v-.53h-.518l-.034.24-.034.238-.181.035-.18.034-.274-.433-.273-.433h-.644l-.061.16-.061.16h-.271l-.133-.16-.132-.16-.28.002-.28.003.266.208.266.209.358.002.358.002.388.308.388.307.387.162.386.161.073.118.073.118.206-.111.207-.11v-.53zm2.195.265l.068-.271-.04-.034-.04-.033-.612-.07-.612-.068v.327l.317.063.317.064.122.147.122.147h.289zm5.018-.19l-.157-.125-.057-.16-.057-.16-.009.259-.008.258.186.207.187.206.036-.18.036-.18-.157-.124zm-28.008-.099l.035-.185-.16.061-.158.062-.062.16-.06.158.184-.035.185-.036zm.766-1.044v-.1h-.107l-.213.212-.213.214.003.186.004.187.263-.3.263-.299zm23.263.485l.062-.16h.54v-.379l-.215-.183-.214-.184h-.488l-.128.128-.128.128v.196l.267-.051.266-.051v.417l-.213.055-.213.056v.188h.403zm3.511-.043l-.053-.203-.203-.053-.203-.054v.087l.186.204.186.205.07.009.07.008zm-5.526-.28l.206-.156h.386l.012-.133.011-.134-.02-.248-.02-.248.23.123.23.123.151-.058.152-.058v-.433h-.412l-.034-.232-.034-.231-.133-.044-.133-.044v.24l-.233.315-.233.316h-.589l-.089.159-.089.159-.322-.093-.322-.092-.207.153-.207.153.207.153.207.154h.188l.16.16.16.16.285-.004.285-.003.207-.157zm4.347-.671l-.186-.196-.04.031-.04.031.063.164.064.165h.326zm-16.152-.604l.305-.16h.373v-.427h-.289l-.287-.266-.288-.267h-.311l-.238.133-.239.134-.039.021-.04.022.2.484.199.485h.348l.306-.159zm4.725-.319l.132-.158-.062-.162-.062-.161h-.326v.213h-.32v.427h.507zm6.766-.216v-.318l-.469-.034-.47-.033.31.374.31.374.16-.023.16-.022zm-4.126-.025l-.043-.08-.14-.355-.14-.356-.225.061-.226.06-.507.002-.506.002v.307l.088.054.088.054.297-.154.298-.155h.153l.31.317.311.317.142.003.142.003-.042-.08zm1.87-.066l.349-.145.01-.39.012-.389-.204-.11-.204-.109-.06.192-.06.19-.079.153-.079.153-.206.114-.206.114-.029.011-.029.011.067.176.067.175h.304zm-1.156-.947l-.075-.453-.098-.037-.098-.037-.305-.256-.304-.256h-.733l-.063.064-.064.063.057.149.057.148.403.109.404.108.358.417.358.416.089.01.09.008zm-3.19-.159l.157-.373-.004-.174-.003-.173-.153-.202-.152-.202-.35-.012-.35-.011-.281-.19-.28-.191-.52.015-.517.016-.283-.075-.282-.075-.071.223-.071.224.241.34.242.34.139-.34.138-.34.08.002.08.001.236.063.236.064.057.178.056.179.32.189.32.189v-.522l.148-.057.149-.057.234.249.234.25-.037.192-.037.192-.28.157-.278.156-.558-.232-.558-.232-.247.062-.246.062-.064.166-.063.165.058.058.058.058.953-.014.954-.015.06.097.06.096.16-.061.16-.062.156-.373zm-11.35.133l.133-.16h.503l.486-.466.486-.466.636-.334.636-.333h.549l.271-.214.271-.213h-.642l-.132.16-.133.16H55.683l-.692.344-.693.345-.188.188-.189.189v.213h-.383l-.116.116-.115.116-.519.254-.518.254.28.003.28.003zm6.606-.295l.16-.344.258-.126.257-.126.082-.146.082-.146-.075-.12-.074-.12-.29-.073-.29-.072-.103.269-.102.269-.227-.06-.227-.059-.124-.199-.124-.198h-.375l.003.24.003.24.317.31.316.311v.242l.128.128.128.128.059-.002.058-.003.16-.343zm11.027-.825l.066-.106-.3.001-.299.002.16.103.16.104.073.001.074.002zm-.906-.468v-.149l-.178-.068-.178-.068-.087.137-.086.137-.002.08-.001.08h.532zm-1.127-.236l.168-.065v-.297h-.426v.427h.089zM58.076 5.74v-.083h-.296l-.062.16-.061.16h-.326v.284l.057.057.058.058.315-.277.315-.277zm9.536.45l-.193-.214h-.835l-.16-.16-.16-.16h-.474l-.128.129-.128.127V6.084l.506.003.506.004.207.156.207.157h.844zm-8.427-.187l.078-.08.924-.106.923-.107.039-.2.038-.2-.357.073-.356.074-.338.02-.337.02-.08.08-.08.08h-.906l-.168.064-.169.065v.297h.71zm5.87-.133l.193-.213h-.78v.426h.394zm-2.45-.32l.192-.213h-.992v.089l.065.169.065.168h.477zm1.125.103l.206-.11v-.206h-.852v.284l.07.071.072.071h.298z"
     id="path3868" />
  <path
     style="fill:#868158"
     d="M 60.007,39.557 C 59.626398,39.387868 59.08573,39.263943 58.655577,39.077 58.359887,38.573544 57.695185,38.873926 57.246251,38.685106 56.961043,38.056709 56.323752,38.2138 55.891,37.958 55.48075,37.550897 54.638519,38.093889 54.345629,37.37332 53.919391,37.037996 53.64378,36.339685 53.002628,36.519 52.608881,36.230218 52.0855,36.220949 51.76316,35.735042 51.780767,35.220582 51.312226,34.855263 50.858105,34.84922 50.414249,34.476448 50.058029,33.893972 49.564526,33.64 48.889944,33.677192 48.981702,32.852058 48.575762,32.555528 48.164028,32.075019 47.551997,31.678232 47.259,31.148526 47.467541,30.490309 46.957015,30.168517 46.94,29.616 c -0.452673,-0.320408 -0.348232,-0.919425 -0.926576,-1.206995 -0.13529,-0.411086 -0.273941,-0.930276 -0.604565,-1.160933 -0.156105,-0.744574 -0.02221,-1.690116 -0.06686,-2.511931 0,-2.780714 0,-5.561427 0,-8.342141 0.369374,-0.206085 0.55065,-0.71166 0.64,-1.154 0.550022,-0.35926 0.765667,-0.861646 0.639,-1.509269 0.347185,-0.357627 0.310208,-0.899437 0.81469,-1.213776 0.425345,-0.367045 0.794464,-0.756556 0.924228,-1.247393 0.58353,-0.512708 1.087671,-1.219089 1.720556,-1.613562 0.858039,0.050944 -0.312447,0.647779 -0.404692,1.022388 -0.490154,0.803894 -1.070741,1.533075 -1.776782,2.158612 -0.03894,0.53621 -0.702992,0.826296 -0.783977,1.395349 -0.222164,0.549809 -0.616127,1.062227 -0.494023,1.686651 -0.554164,0.470478 -0.810095,1.276952 -0.724,1.999 -0.01774,0.641518 0.0923,1.315459 -0.341,1.853 -0.04596,0.632185 0.836121,0.772373 0.738985,0.07813 0.302801,-0.501984 0.34909,-0.842337 0.313837,-1.2542 0.676695,-0.05926 -0.194339,-0.831854 0.347178,-1.173934 -0.06827,-0.410518 0.30145,-0.803616 0.195289,-1.275826 0.50178,-0.573643 0.82397,0.561228 0.516341,0.916026 -0.245755,0.477539 -0.418177,1.281556 0.31337,1.3588 0.255182,0.686283 -0.06485,1.046827 -0.316953,1.554126 -0.01515,0.865411 -0.164808,0.939072 -0.709996,0.448874 -0.546491,0.29882 -0.497749,0.105896 -1.185051,0 -0.18824,0.755816 0.52286,0.831285 -7.9e-4,1.366483 -0.03395,0.897418 0.858545,0.09718 1.22179,0.375517 0.262732,0.354138 -0.174254,1.040422 0.137761,1.562188 0.142234,0.810866 0.595196,0.414318 0.719655,-0.06766 0.540408,-0.27715 1.065143,0.528374 1.538584,0.165473 0.04951,-0.605634 0.371208,-1.01693 0.829631,-1.361391 0.590601,-0.603637 -0.239385,-0.700338 -0.701126,-0.891439 -0.70225,0.06239 -1.427424,0.08765 -2.037505,0.48783 -0.265996,-0.339327 0.239178,-1.169341 0.702235,-0.919805 0.501046,-0.368036 1.219119,-0.200047 1.771465,-0.108355 0.449496,0.379865 0.976975,0.798585 1.477737,0.869108 0.428975,0.341491 0.601192,0.251116 0.199326,0.726997 0.241032,0.623008 0.97917,0.327479 1.197778,-0.170941 0.25204,-0.740258 1.063668,-0.503106 0.629183,0.14271 -0.07557,0.616698 -0.15217,1.233301 -0.247724,1.847286 0.660987,0.19221 0.402355,0.848316 0.604,1.334 0.137448,0.366601 -1.175563,0.457823 -0.239147,0.902777 0.581781,0.0833 1.284388,0.05177 1.583914,-0.560124 0.611036,-0.462453 -0.754236,-0.73932 -0.254572,-1.361449 0.08719,-0.668695 0.869167,0.16307 1.293805,0.156796 0.231043,0.480776 -0.83395,0.974316 0.206634,1.197157 0.723967,0.06199 0.550426,1.248993 -0.03163,0.595843 -0.747693,-0.911998 -0.400321,0.876399 -0.945,0.372 -0.663571,-0.483913 -0.222777,0.79743 -0.386287,1.159012 -0.09562,0.665238 0.03493,1.428119 -0.588495,1.865677 -0.461973,0.441423 -0.614924,0.990147 -1.234278,1.235784 -0.770021,0.348954 0.303423,0.852937 0.673047,0.381601 0.648438,-0.531966 1.284939,-1.188848 1.483013,-2.030074 0.490908,0.04296 1.095432,0.660935 1.187834,1.112595 -0.176264,0.981247 0.839198,-0.122497 0.929166,0.05388 -0.184031,0.417331 0.33592,1.321451 0.561,1.158526 -0.333769,-0.437203 0.449966,-1.06951 -0.01447,-1.364 -0.686032,0.181299 -0.524693,-1.046585 0.07836,-0.976861 0.472057,-0.246936 0.01042,1.155502 0.78211,0.868861 0.194068,-0.63361 0.915889,-0.444776 1.213381,-0.89889 0.220175,-0.596101 0.995238,-0.260644 1.344089,-0.772345 0.364287,-0.874243 0.494793,-0.08665 0.939953,-0.03376 0.227413,0.302851 -0.187332,1.21074 0.672524,0.594559 0.612571,-0.538118 0.772699,0.594458 1.424071,0.285686 1.127553,0.02348 2.307732,-0.154665 3.172566,-0.936102 0.341241,-0.378147 1.214735,-0.768268 0.912416,-1.330143 -0.680698,-0.01491 -1.11313,0.717713 -1.772515,0.871119 -0.577555,0.226649 -1.163071,0.764082 -1.791877,0.359238 -0.504614,-0.18746 -1.042994,-0.483529 -1.297608,0.176643 -0.397195,-0.161653 -1.560736,0.131803 -1.113,-0.6 0.164257,-0.715263 1.039539,0.102315 1.393,-0.138 0.09604,-0.697348 -1.138313,-0.503587 -0.398194,-0.971057 0.628303,-0.429905 0.925129,0.143108 1.376093,0.09749 C 64.859831,26.96161 64.432417,26.400356 65.32,26.367 c 0.413244,-0.08632 0.350864,1.444497 0.41096,0.410474 -0.0928,-0.495377 0.04719,-1.350557 0.702066,-1.072823 0.546043,0.481974 0.819472,-0.473736 0.217974,-0.503125 0.323769,-0.178662 1.183319,0.270765 0.852,-0.675847 0.709051,-0.04106 -0.122417,0.975725 0.204177,1.222064 0.735938,-0.444594 0.709077,0.579403 0.08182,0.710257 -0.06074,0.831599 0.900976,0.706789 0.966345,-0.02204 0.357129,-0.472721 0.05979,-1.146327 -0.196133,-1.594203 C 67.976475,24.293551 68.683087,24.11828 69.127,24.478 c 0.743218,-0.368878 -0.07285,-1.152206 -0.623423,-1.07 -0.218857,0.430509 -0.575369,0.93306 -0.680577,0.0056 0.524441,0.06028 0.563573,-0.933408 1.13,-0.703577 0.633104,0.259879 0.617783,-0.739905 0.463,-1.141 -0.18339,-0.471698 -0.110778,-1.382122 0.544504,-1.334874 0.776154,0.02641 0.656757,0.765738 0.101496,1.069874 -0.137572,0.515485 -0.439568,1.158803 0.054,1.578 0.667971,-0.264859 0.376632,-1.060212 0.503,-1.624 0.671886,-0.04495 0.992782,0.189999 1.028783,-0.744801 0.407993,-0.267922 0.959152,0.718644 0.969217,1.148224 0.627684,0.196898 0.433074,0.787916 0.738,1.114577 0.467822,0.202342 1.257561,0.428904 1.391052,-0.181952 C 74.777535,21.913929 73.860017,21.99545 73.789,21.506051 73.129857,20.818622 72.437038,20.145103 71.765,19.463 c 0.189663,-0.967083 0.677558,0.369676 1.190423,0.213 0.794546,0.07917 1.485672,0.486674 2.004379,1.090507 0.338471,0.339753 1.370351,-0.168995 0.942198,0.689493 -0.478259,0.145686 -1.042257,0.25382 -0.877429,0.99195 0.01479,0.590395 -0.103136,1.114929 -0.650409,1.426371 -0.703304,0.630399 0.36229,0.649109 0.829838,0.394679 0.583003,-0.08446 0.913063,-0.654968 1.568,-0.57 -0.04715,0.43629 1.188343,0.77358 0.660466,0.09621 -0.590918,-0.205389 -0.606276,-0.74282 -1.131521,-0.971942 -0.879409,-0.428566 0.0746,-0.926763 0.485072,-0.377255 0.232854,0.833392 1.071921,-0.260402 0.460299,-0.309216 C 76.759244,21.829465 76.517686,21.237645 76.367,20.689 75.641394,20.673428 75.15785,19.995539 74.647307,19.567165 74.519384,18.838855 73.79189,19.255881 73.287,19.248 c -0.138224,-0.47728 -1.47711,-0.488884 -0.591,-0.744 0.525434,0.320865 1.134199,0.483468 1.602589,0.28639 0.429416,0.670608 0.676813,-0.349807 1.013411,-0.58539 0.64497,-0.784642 0.778489,0.117434 0.03623,0.361664 -0.116858,0.397351 -0.150602,1.200043 0.369933,1.414705 0.526651,0.03918 1.142172,-0.290213 1.562662,0.224291 0.546947,0.145986 0.769887,0.869738 1.212961,0.694354 0.566767,0.0507 1.082927,-0.772462 1.388235,-0.431997 0.521518,0.372033 0.893362,0.945873 -0.02102,0.908983 -0.255063,0.703274 0.929904,0.566555 0.64,1.292 -0.489805,-0.548455 -1.152238,0.04874 -0.425463,0.372213 0.926217,0.339641 0.101471,0.720822 -0.0996,0.88341 -0.06797,0.365938 1.108939,0.885368 0.204068,0.761377 -0.795331,-0.283553 -0.236027,0.875679 0.309474,0.214 0.02454,1.072307 0.0035,2.190157 0.01053,3.28 -0.585724,0.122271 -0.130584,0.949086 -0.64,1.214474 -0.1864,0.444801 -0.302798,0.913252 -0.710894,1.276275 -0.309897,0.426132 -0.430496,0.940154 -0.956831,1.280202 -0.602936,0.325764 -0.468701,0.959692 -0.994885,1.316476 -0.596464,0.219711 -0.355661,1.087437 -1.00541,1.018209 -0.399987,0.489452 -1.141168,0.848115 -1.18098,1.539364 -0.797232,-0.102061 -0.963809,1.124428 -1.73,1.013 -0.327572,0.368534 -0.762577,0.510335 -1.202423,0.64 -0.348664,0.306936 -0.777894,0.443721 -1.179526,0.639 -0.642195,-0.229095 -0.914151,0.329685 -1.453051,0.32 -0.328076,0.368426 -0.762775,0.510549 -1.203423,0.64 -0.660022,-0.249973 -0.868732,0.459544 -1.476949,0.32 -0.928543,0 -1.857085,0 -2.785628,0 -0.170518,0.640982 -1.098619,0.179475 -1.614116,0.319 -0.766294,0 -1.532589,0 -2.298884,0 l -0.03512,-0.09307 z m 2.17,-1.106 c 0.03201,-0.804932 -0.933973,-0.03213 -1.089145,-0.622422 C 60.686595,37.367638 60.057372,38.276812 59.796,37.474 59.23246,37.424231 58.491669,37.712222 58.22516,37.040505 57.698483,37.071245 57.383734,36.832371 56.925577,36.626 56.499158,36.302921 56.042998,36.108393 55.538543,35.843324 55.335827,35.229026 54.523231,36.015746 54.51,35.134 c -0.759547,-0.31434 -0.935588,0.832166 -0.132102,0.639 0.316158,0.263165 0.561384,0.647482 1.133218,0.777239 0.360515,0.337141 0.986792,0.02795 1.177884,0.672761 0.581586,-0.05425 0.869372,0.251339 1.328223,0.572776 0.482437,-0.01875 0.933188,0.233688 1.479564,0.368245 0.595704,0.443155 1.434681,0.0269 2.057552,0.277318 0.07186,0.208942 0.767214,0.397622 0.622661,0.0097 z m 1.066,-0.015 c 0.447747,-0.612209 -0.908412,-0.532574 -0.709696,-0.02827 0.127677,0.305844 0.618391,0.389422 0.709696,0.02827 z m 1.295,-0.094 c 0.322352,-0.21253 0.91196,0.372381 1.409143,0.06137 0.70018,0.505289 0.859537,-0.824901 0.0025,-0.520579 -0.835337,-0.0043 -1.719612,-0.369093 -2.494621,0.06921 0.0169,0.42023 0.847578,0.919721 1.083,0.39 z m 3.009,-0.184 c 0.248132,-0.801184 -1.338805,-0.385005 -0.478363,0.127383 0.127954,0.07534 0.486206,0.123597 0.478363,-0.127383 z m 1.08,-0.153 C 69.170019,37.556025 68.085097,37.079677 67.793256,37.547289 67.35143,37.969228 68.429978,38.525876 68.627,38.005 Z M 69.6,37.733 c 0.742449,-0.173082 -0.0076,-0.894014 -0.503,-0.681 -0.41694,0.538636 -0.140347,0.89277 0.503,0.681 z m 1.618,-0.84 c 0.120692,-0.87797 1.090645,0.130694 1.137198,-0.366922 -0.259642,-0.581129 0.491611,-0.601955 0.896802,-0.648078 0.06717,-0.811481 0.88139,-0.396631 1.055631,-1.033391 0.409858,-0.347117 0.92639,-0.562113 1.242825,-1.123781 0.689686,-0.738086 1.485491,-1.394727 1.927477,-2.312846 0.447976,-0.57681 1.071952,-1.160381 1.105067,-1.923982 -0.421038,0.115071 -1.156429,0.445019 -1.172,0.831423 -0.09896,0.515204 -0.429737,0.984998 -0.906,1.225577 -0.233619,0.347848 -0.08749,1.143624 -0.720372,0.609331 -0.927736,-0.443027 0.139368,0.752718 -0.24228,0.81218 -0.538933,0.203515 -0.6916,0.856742 -1.361911,0.938642 -1.061179,0.253122 -1.454845,1.777384 -2.636437,1.657847 -0.22932,-0.472931 0.409815,-1.011675 0.555671,-1.266946 0.242081,-0.857929 -0.369444,-0.348235 -0.454705,0.219357 -0.32387,0.496639 -0.520726,1.120758 -0.609879,1.614142 -0.535172,0.116348 -0.993362,0.59059 -0.663087,1.139447 0.393449,0.0064 0.723345,0.09859 0.846,-0.372 z M 63.68,36.628 c 0.428909,-0.418535 1.153776,-0.280275 1.378,-0.908 -0.481172,-0.33996 -1.055242,0.06208 -1.526203,0.18112 -0.385598,0.579328 -0.746398,0.313422 -1.154746,0.08488 -0.591474,0.06938 -0.405586,-0.936373 -1.1397,-0.91294 -0.314135,0.275303 0.344457,0.960253 0.512649,1.136889 -0.69063,0.07751 -0.68182,0.234193 8.5e-4,0.504233 0.597033,-0.358357 0.967841,0.347376 1.498863,0.178675 C 63.393142,36.804571 63.536571,36.716286 63.68,36.628 Z m 2.332,0.158 c -0.428236,-0.719225 -0.227772,0.470595 0,0 z m 3.814,-0.608 c 0.166379,-0.471014 0.32574,-1.032353 0.62641,-1.509296 0.377827,-0.538674 0.317371,-1.180368 0.71202,-1.709878 0.425996,-0.766262 0.619399,-1.677491 1.150079,-2.361369 C 72.683081,29.989905 71.979524,29.622816 71.464,29.909 c -0.254504,0.509914 0.09144,1.080576 -0.176425,1.506377 -0.317316,0.538471 -0.822336,0.938272 -0.720575,1.612623 0.130893,0.860585 -0.64972,1.361156 -1.081,1.999 0.787454,0.457192 -0.388402,0.921079 0.03447,1.279 0.140788,0.02854 0.223371,-0.01533 0.305526,-0.128 z M 58.9,35.914 c 0.517072,-0.673278 -0.636114,-0.738411 -0.915096,-0.342065 -0.681305,0.756589 0.195871,0.470673 0.752082,0.401162 L 58.82,35.962 Z m 1.943,-0.061 c -0.03062,-0.456452 -1.005883,-1.086276 -1.117,-0.521051 0.130792,0.287596 1.12967,1.044099 1.131029,0.569847 z m 5.563,-0.054 c 0.528541,-0.649539 0.573188,-1.549192 1.060063,-2.247682 0.525467,-0.494983 0.116605,-1.110233 0.417645,-1.633813 0.332865,-0.838554 1.065997,-1.454751 1.319292,-2.327505 -0.688667,-0.133533 -1.133247,0.122676 -1.305083,0.814383 -0.32409,0.433456 -0.389553,1.205842 -0.889757,1.408842 -0.661029,0.06853 -1.078706,0.700719 -1.775105,0.707283 -0.489263,0.251677 -0.9769,0.403637 -1.412247,-0.09138 -0.50042,-0.395889 -1.378157,0.197944 -1.687808,-0.53413 -0.251306,-0.400805 -0.982166,-0.818642 -1.342163,-0.609761 -0.242566,0.559394 0.584696,0.913829 0.93632,1.235165 0.611738,0.120183 0.931296,0.603677 1.169317,1.013596 1.150305,0.185552 -0.636353,-0.546347 0.124,-0.85953 0.373593,0.381906 0.788894,0.823527 1.438319,0.63112 0.587138,-0.03819 1.267424,0.189711 1.670857,-0.371191 0.344009,-0.362957 1.187955,-1.030163 1.008808,-0.07604 -0.282798,0.475095 -0.346919,0.945022 -0.521136,1.441318 -0.252289,0.385911 -0.23232,0.897755 -0.712322,1.206322 -0.165692,-0.77487 -1.143115,0.22567 -0.247,0.054 0.105715,0.444171 0.490378,0.86168 0.748,0.239 z m 2.222,-0.258 c 0.256353,-0.572658 -0.930396,-0.6934 -0.867125,-0.09522 -0.01986,0.283565 0.938099,0.476412 0.867125,0.09522 z M 57.913,34.62 c -0.08097,-0.913569 -0.672091,-0.04412 -0.738968,0.419319 0.0127,0.475937 0.822547,-0.244072 0.738968,-0.419319 z m -4.281,0.279 C 54.101896,34.302147 53.206034,33.914088 52.957983,34.646017 52.81502,34.924319 53.446018,35.239812 53.632,34.899 Z m 11.207,-0.245 c 0.26399,-0.390687 1.423753,-0.454587 1.099072,-0.876662 -0.93641,0.545795 -2.059937,0.323891 -3.097072,0.434662 -0.553087,-0.331728 -1.052074,-0.847853 -1.752321,-0.678 -0.619089,0.308164 0.730784,0.587762 1.034321,0.875 0.552388,0.403686 1.171609,0.541894 1.846744,0.458 0.315953,-0.02676 0.668654,0.112238 0.869256,-0.213 z M 52.892,34.066 c 0.825222,-0.484171 -0.40948,-0.625422 -0.783282,-0.344144 -0.387771,0.501751 0.452476,0.972424 0.734987,0.390283 z m 6.1,-0.132 c 0.551104,-0.102329 0.9034,-0.583709 1.412949,-0.719 0.207637,-0.433974 -0.832104,-0.323797 -1.175536,-0.363719 -0.406592,0.341993 -1.065921,0.770228 -0.705413,1.393719 0.114083,0.540595 0.08668,-0.416504 0.468,-0.311 z m -8.02,-0.061 c -0.817068,-0.925361 -1.564476,-1.911649 -2.433,-2.791 -0.155762,-0.504525 -0.601722,-0.939191 -0.668134,-1.525518 -0.19359,-0.792111 -1.042154,-0.07845 -0.30293,0.330886 0.44158,0.45574 0.460446,1.131448 0.947064,1.568632 0.210829,0.864678 1.12403,1.310701 1.651899,1.986196 0.244667,0.270514 0.969376,0.921941 1.093714,0.762839 C 51.165214,34.094759 51.064568,33.981976 50.972,33.873 Z m 18.065,0.165 c 0.304062,-0.633346 -1.190513,-0.439908 -0.576,0.257 0.220989,-0.06381 0.50281,0.03131 0.576,-0.257 z M 56.26,33.463 c 0.680324,-0.131143 1.104603,-0.294147 0.301986,-0.829705 -0.468709,-0.248889 -1.226194,0.269149 -1.203986,0.778705 0.252342,0.417196 0.55197,0.327091 0.902,0.051 z M 51.944,33.38 c 0.506258,-0.527116 -0.592301,-0.785644 -0.726,-0.23 0.08263,0.368843 0.466241,0.583394 0.726,0.23 z m 20.78,-0.69 c 0.106429,-0.544984 0.534169,-1.009229 0.522287,-1.608444 0.37794,-0.374361 0.50463,0.667823 1.012659,0.759981 0.33889,0.627027 1.478753,-0.237611 0.623054,-0.352537 -0.480905,-0.07383 -0.470934,-0.972563 -1.12,-1.08 -0.379562,0.124874 -0.750899,0.545984 -1.162317,0.858908 -0.263144,0.583283 -0.276371,1.324291 -0.302683,1.980092 0.136226,-0.183274 0.490472,-0.290795 0.427,-0.558 z m -14.383,0.115 c -0.182882,-1.137116 -0.874993,0.142757 -0.127577,0.197 0.18543,0.06584 0.115145,-0.09243 0.127577,-0.197 z m 11.337,-0.084 c 0.191667,-0.867925 -1.173973,-0.296416 -0.790526,0.174 0.235093,-0.0773 0.757735,0.178737 0.790526,-0.174 z m -18.44,-0.637 c -0.47847,-0.708068 -1.105722,0.820819 -0.234822,0.490733 0.0932,-0.165485 0.404542,-0.276786 0.234822,-0.490733 z m 8.416,-0.456 c -0.0017,-0.694696 1.274614,-0.453294 1.130452,-1.224813 0.02516,-0.618976 -1.035198,-0.457217 -1.207047,0.04416 -0.45745,0.356975 -0.810307,0.834996 -0.482405,1.417656 0.0073,0.792479 0.522611,0.117083 0.559,-0.237 z m 0.56,0.228 c -0.466207,-0.09485 0.203603,0.96748 0,0 z m -9.67,-0.32 c 0.125665,-0.690414 -1.348628,-0.423831 -0.740426,0.20685 0.20596,0.08928 0.833302,0.168893 0.740426,-0.20685 z m 15.407,-0.094 c 0.895525,-0.231594 1.354682,-1.162136 2.048971,-1.716809 0.07791,-0.443175 -0.976923,0.249008 -1.307971,0.460809 -0.615222,0.448755 -1.289645,0.733376 -2.056926,0.760551 C 63.99802,31.258223 63.920824,30.403234 63.47,30.138 c -0.568797,0.361007 -1.172743,0.06429 -1.739671,0.045 -0.754649,0.296766 0.04701,0.834201 0.505891,0.946988 0.957862,0.570405 2.132559,0.417356 3.20478,0.486013 0.17,-0.058 0.34,-0.116 0.51,-0.174 z m 4.107,-0.035 c 0.378836,-0.513823 -1.148788,-0.602982 -0.735,0.012 0.02404,0.304497 0.721302,0.29819 0.735,-0.012 z M 56.05,31.083 c -0.434568,-0.765736 -0.465929,0.771293 0,0 z m 14.738,-0.194 c -0.270589,-0.658466 -0.569303,0.825536 0.036,0.218 -0.012,-0.07267 -0.024,-0.145333 -0.036,-0.218 z M 49.663,30.582 c 0.425547,-0.348291 -0.704686,-0.905439 -0.834661,-0.23958 0.196159,0.167238 0.573933,0.704261 0.834661,0.23958 z m 20.518,-0.35 c 0.682827,-0.44872 -0.806906,-0.625404 -0.504641,0.08658 0.09566,0.301843 0.381229,0.03063 0.504641,-0.08658 z m 6.144,0.083 C 76.806736,29.745404 75.753912,29.494796 75.44583,29.131941 74.658503,28.730235 74.356557,27.814672 73.568,27.428 c -0.902874,0.195164 -0.23963,0.699446 0.228426,0.928574 0.648133,0.676371 1.585774,1.037715 2.023528,1.898726 0.07106,0.247877 0.376688,0.264983 0.505046,0.0597 z m -2.703,-0.392 c 0.477768,-0.679161 -0.88316,-0.247048 -0.854647,-1.013806 0.147761,-0.73989 -1.381255,-0.680536 -0.802395,-0.102138 0.250671,0.430694 0.996938,0.769773 1.005042,0.954944 -0.187819,0.305723 0.628065,0.764063 0.652,0.161 z m -21.567,-0.55 c 0.177297,-0.408352 1.406987,-0.518002 0.898875,-0.951935 -0.376141,-0.304471 -1.211209,-0.192765 -1.435161,0.251594 -0.03056,0.332169 -0.594032,1.483243 -0.129714,1.224341 0.223989,-0.172128 0.444121,-0.349178 0.666,-0.524 z m -2.823,0.11 c 0.559629,-0.369924 -1.00386,-0.634969 -0.928,-0.107 -0.0034,0.463086 0.757403,0.436911 0.928,0.107 z m 1.34,-0.12 c 0.346164,-0.344024 -0.392521,-1.380366 0.415,-0.932 0.397576,-0.465027 0.839102,-0.852791 1.424955,-0.83619 C 52.882401,27.071767 51.782061,26.3968 51.617,27.245 c -0.667531,-0.178046 -1.140674,0.276917 -1.674474,0.533 -0.488151,-0.07439 -0.994991,-0.593743 -1.16886,-1.060736 -0.220191,0.04828 -0.709275,0.492784 -1.193666,0.136736 -0.450768,-0.241489 -1.314811,0.431476 -0.611172,0.673751 0.508025,0.04315 1.157599,-0.74867 1.530591,-0.140491 0.344629,0.400932 0.871314,0.724721 1.105581,1.167214 0.434536,0.09118 0.547218,1.102842 0.892092,0.947905 l 0.04709,-0.08762 z m 18.317,-0.412 c 0.413464,-0.400154 0.608391,-1.154095 0.938,-1.69 -0.05376,-0.699683 0.502934,-0.963974 1.045696,-0.539771 0.26796,0.40936 0.712971,0.930469 1.253789,0.655935 0.576573,-0.246896 1.280594,-0.686855 1.129515,-1.411164 -0.697105,-0.184035 -1.0348,0.923073 -1.73035,0.562551 -0.513734,-0.180042 -0.931472,-0.560224 -1.531578,-0.412398 -0.510086,-0.0791 -0.688672,0.650905 -1.041605,1.013592 -0.177549,0.435957 -0.01353,0.962596 -0.399467,1.405255 0.0033,0.624395 -0.460108,1.070106 0.336,0.416 z m 1.833,0.186 c 0.578594,-0.42446 -0.684364,-1.022822 -0.723,-0.353 -0.269234,0.530206 0.435518,0.637265 0.723,0.353 z m 8.525,-0.693 c 0.07035,-0.367011 0.909092,-1.047657 0.322,-1.197 -0.87833,-0.116004 0.0027,1.00502 -0.767596,0.970282 -0.18482,0.507351 0.272914,0.827927 0.445596,0.226718 z m -30.504,0.013 c 0.855474,-0.16712 -0.417625,-0.542313 -0.725941,-0.65566 -0.70562,0.01221 -0.528786,0.979036 0.209384,0.718146 0.177025,0.02414 0.344353,-0.03183 0.516557,-0.06249 z m 22.744,0.003 c 0.432985,-0.342988 -1.03192,-0.646412 -0.335,-0.006 0.12075,0.07394 0.211825,0.08192 0.335,0.006 z m 6.223,-0.17 c 0.537353,-0.608215 -0.401052,-0.682413 -0.641,-1.103 -0.338578,-0.401171 -0.983935,-0.442992 -1.4699,-0.709091 -0.974208,-0.129565 -0.588289,-0.632945 0.157315,-0.763219 0.395954,0.05898 0.887289,1.167832 1.261603,0.428002 0.195244,-0.57008 1.075382,-0.05702 1.315873,-0.651161 0.403956,-0.553775 0.6675,-1.324721 0.174425,-1.904812 0.150366,-0.271582 1.335433,0.02661 0.978684,-0.658719 -0.389167,-0.01393 -1.247408,-0.716838 -1.33712,-0.167473 0.422244,0.601241 -0.10172,0.721082 0.13712,1.288473 -0.367569,0.428149 -0.325599,0.979349 -0.877096,1.25546 -0.306996,0.518015 -1.091642,0.647881 -0.977904,-0.13846 -0.361444,-0.468527 -1.111308,-0.137015 -1.420288,-0.584794 -0.584273,-0.159503 -0.996076,0.409574 -0.734769,0.924778 0.479399,0.501878 -0.971062,0.824616 -0.139322,1.216283 1.258246,0.31669 2.307063,1.161293 3.443379,1.694733 0.0641,0.0089 0.06825,-0.127755 0.129,-0.127 z M 54.292,27.832 c 0.292906,-0.280961 -0.798141,-1.178998 -0.935,-0.579 -0.0432,0.378931 0.597979,1.096225 0.935,0.579 z m 25.657,-0.975 c 0.463509,-0.569951 -0.70779,-0.85154 -0.48505,-0.153167 -0.04852,0.347239 0.378243,0.504587 0.48505,0.153167 z M 50.244,26.712 c -0.353809,-0.532792 -0.502075,0.498666 0,0 z m -1.492,-0.701 c 0.158734,-0.446423 -0.552153,-1.411556 -0.893547,-0.90187 -0.09461,0.407897 0.194119,1.132279 0.663398,1.344151 C 48.889959,26.687654 48.71072,26.203289 48.752,26.011 Z m -1.27,0.212 c 0.434451,-0.527595 -0.720163,-0.709757 -0.929823,-0.426323 -0.257875,0.580482 0.656511,0.827245 0.929823,0.426323 z m 2.821,-0.306 c 0.630737,-0.449631 1.531116,0.323744 2.063,-0.289 0.641094,0.3385 0.775182,-0.08585 0.662,-0.67 -0.0817,-0.651139 -1.005806,-0.275715 -1.462,-0.378 -0.469481,0.493967 -1.280768,0.324407 -1.880471,0.619033 -0.728368,-0.03586 -0.270407,1.026745 0.222894,0.872967 0.134198,-0.032 0.263054,-0.108179 0.394577,-0.155 z m 29.824,-0.272 c -0.725224,-0.509866 -0.253635,0.961644 0.066,0.106 l -0.05258,-0.08444 z m -6.441,-0.079 c 0.255773,-0.589355 0.299084,-0.916924 -0.334,-1.333 0.766711,-0.240851 0.190702,-0.966913 -0.416,-0.719 0.12352,-0.599494 -0.491404,-0.808988 -0.384,-1.43 -0.390492,-0.635365 -1.108308,0.564486 -0.695156,0.909709 0.375899,-0.195387 1.064123,0.15219 0.360156,0.373291 -0.55795,0.08377 -0.996597,0.628266 -1.589756,0.357542 -0.390123,0.138456 -1.006941,0.67644 -0.993244,1.171881 -0.21895,0.99565 0.453418,0.474099 0.83,0.01258 0.702846,-0.02239 1.335515,-0.757912 2.010339,-0.471661 0.24642,0.503949 1.276693,0.48259 0.941045,1.173902 -0.214096,0.394754 0.467502,0.351032 0.270616,-0.04524 z M 72.83,23.78 c 0.195497,-0.612758 0.316471,0.533806 0,0.06053 z m -25.676,1.166 c 0.05845,-0.657229 -0.663972,-0.728304 -1.066,-0.359 -0.167144,0.570341 0.882126,0.653852 1.065596,0.426527 z m -0.459,-1.073 c 0.234796,-0.651236 -0.844665,-0.744918 -0.693332,-0.03614 -0.0257,0.308886 0.689443,0.316927 0.693332,0.03614 z m 6.156,-0.605 c -0.08445,-0.590166 -0.653667,1.029445 -0.237,0.353 0.07272,-0.125339 0.09328,-0.284158 0.237,-0.353 z m 17.448,0.361 c 0.218935,-0.556362 -1.042446,-0.810591 -0.754489,-0.01008 0.0084,0.392531 0.560664,0.104277 0.754489,0.01008 z M 50.997,23.015 c 0.405675,-0.581433 -0.278108,-1.029904 -0.667,-0.462 -0.698025,0.360247 0.661361,1.179298 0.667,0.462 z m -4.388,0.034 c 0.348267,-0.509706 -0.993045,-1.105348 -0.773562,-0.227938 0.0017,0.453605 0.531639,0.528162 0.773562,0.227938 z m 24.768,-0.218 c 0.497017,-0.09992 0.292606,-1.53832 -0.216,-0.972 -0.272452,0.180088 -0.566175,1.22435 -0.287,1.225 0.229424,0.05587 0.338761,-0.141742 0.503,-0.253 z m 7.817,-0.73 c 0.507699,-0.565416 0.190207,-1.243801 -0.279319,-0.3889 -0.436759,0.21266 0.06849,0.77356 0.279319,0.3889 z m -1.996,-1.252 c -0.478244,-1.006917 -0.09171,0.885032 0,0 z M 47.326,19.596 c 0.333997,-0.195438 0.07455,-1.477251 -8.68e-4,-0.691196 0.332096,0.308972 -0.784279,1.212869 8.68e-4,0.691196 z m 9.513,10.332 c -0.2036,-0.641279 -1.245227,-0.427258 -1.294,-1.183 -0.42022,-0.598431 0.452812,-0.860861 0.507097,-0.226652 0.605291,0.311444 0.8509,0.970945 1.239903,1.491652 -0.146182,0.375524 -0.332893,0.224832 -0.453,-0.082 z m 2.26,-0.369 c -0.511232,-0.583541 0.514751,-0.746442 0.711221,-1.103164 0.18595,-0.574084 0.970057,-0.558004 1.320701,-1.048246 C 62.05575,26.938921 60.969567,26.724638 60.649,27.285 c -0.242785,0.320127 -1.364132,0.775232 -1.243,0.05258 0.09203,-0.562436 -1.205222,-0.08308 -0.796,-0.785577 0.686194,-0.336114 0.659531,0.965806 1.255301,0.262946 0.06053,-8.5e-4 -1.078011,-0.329409 -0.245827,-0.742946 0.466282,0.288449 1.183296,-0.45572 0.620946,-0.682699 -0.926267,-0.431761 0.12231,-0.245998 -0.02591,-0.652274 -0.546626,-0.430179 0.111245,-1.574233 0.05849,-0.477027 0.404368,0.03647 0.875369,0.635284 1.009,0.702 -0.07652,0.285475 -1.28115,0.133783 -0.171,0.257 -0.19634,0.608083 0.228011,1.414019 0.643269,0.761718 -0.13418,-0.552984 0.552512,-1.294222 1.019439,-0.785275 0.629474,0.187835 0.840955,-0.789237 1.490113,-0.734439 0.437082,-0.316031 0.165353,-1.048092 0.775179,-1.160004 0.568531,0.449153 0.05864,0.07732 0.652,-0.345 0.711066,0.350293 0.775686,-0.339531 1.260772,-0.6921 0.38344,0.208128 -0.215225,0.930487 -0.206452,1.130207 0.334371,0.515675 -0.247103,0.907807 -0.463318,1.34748 -0.338912,0.550858 -0.833848,0.71792 -1.325576,1.069747 -0.495961,0.174137 -0.887955,0.69683 -1.406426,0.631666 -0.441293,0.117204 -0.920206,0.07374 -1.48,-0.138 -0.228201,0.472972 0.75819,1.187266 0.120051,1.367 -0.831555,-0.0967 -1.567977,0.455938 -2.145051,0.997 0.128126,0.562668 -0.310751,0.943799 -0.829,1.008 0.09853,0.01763 -0.174925,-0.118814 -0.117,-0.118 z M 58.554,29.27 c 0.165634,-0.899499 0.257319,0.91246 0,0 z m -0.56,-0.556 C 57.534973,28.476811 57.290937,28.067842 57.391188,27.441533 57.470674,26.972792 57.26461,25.996468 57.78,25.914 c 0.803532,-0.183475 -0.688818,-0.29605 -0.504,-0.819949 0.475138,0.256575 1.131096,-0.335824 1.054092,-0.249447 0.125411,0.658132 0.211672,1.447802 -0.417092,1.884396 0.605631,0.249405 0.48868,0.861968 0.58206,1.397363 0.175428,0.398067 -0.03667,0.849661 -0.50106,0.587637 z m -2.048,-0.703 c -0.477916,-0.618247 0.56729,-1.022672 0.684,-0.339 -0.02052,0.353975 -0.434647,0.428938 -0.684,0.339 z m 2.976,-0.134 c -0.127712,-0.753569 0.725504,0.538012 0,0 z m 0.246,-3.102 c 1.80419,-0.149469 -0.465403,0.405896 0,0 z m -2.843,-0.328 c -2.85e-4,-0.443258 0.723655,0.471098 -0.0057,0.139581 0.07535,0.139513 -0.02918,-0.176555 0.0057,-0.139581 z m 1.094,-0.032 c -0.07432,-0.626441 0.0081,-1.339155 0.194,-1.954 0.735984,0.224515 0.674549,-1.097703 0.692196,-0.103175 -0.05678,0.534541 0.305246,1.238149 -0.02758,1.660571 -0.156688,0.442895 -0.13263,0.806424 -0.831098,0.468673 z m 3.626,-0.417 c 0.207899,-0.550445 -0.660105,-0.912913 0.206474,-1.124 0.538301,-0.06726 0.690554,0.999284 0.100593,1.10721 -0.146696,0.03797 -0.273903,0.378017 -0.307067,0.01679 z m 1.105,0.032 c -0.866759,-0.428015 0.403843,-0.358363 0.669,-0.744 -0.157827,-0.447552 -1.259407,-0.359861 -0.876,-0.967 0.379153,-0.139383 1.298505,-0.337715 1.512,0.07 0.021,0.39509 -0.321849,1.236112 0.265,0.41 0.89353,-0.270485 -0.154614,0.617224 -0.442158,0.790374 C 62.962101,23.952597 62.659594,24.368969 62.15,24.03 Z M 54.633,23.6 c -0.628179,-0.684392 1.065134,-0.525878 0.525042,0.03341 C 54.980349,23.70686 54.756265,23.823785 54.633,23.6 Z m 20.832,-0.22 c -0.1091,-1.077518 0.477487,0.372596 0,0 z m -26.9,-0.362 c -0.398107,-0.481185 1.146551,-0.156621 0.187376,0.04898 C 48.68375,23.096918 48.627218,23.03613 48.565,23.018 Z M 68,22.377 c -0.339341,-1.042919 0.782458,0.103183 6.61e-4,6.61e-4 z M 65.57,22.174 C 65.161228,21.692978 64.539224,21.978908 64.083509,21.988347 63.529585,21.832484 63.019436,21.566609 62.498,21.329 c -0.118186,-0.740916 0.765217,-0.277757 1.201457,-0.343011 0.639226,-0.05002 1.08863,0.578769 1.749543,0.396011 -0.378922,-0.86971 0.572824,-0.475292 0.873029,-0.02834 C 66.823842,21.596014 65.938162,22.266455 65.738,22.341 65.682,22.285333 65.626,22.229667 65.57,22.174 Z M 46.318,21.581 c -0.344027,-0.790051 0.945251,-0.102664 0.15563,0.223457 C 46.411364,21.774586 46.370844,21.642185 46.318,21.581 Z m 14.68,-0.096 c -0.390755,-0.313851 -1.468016,0.09527 -1.121877,-0.7116 0.289447,-0.07885 1.211869,-0.473963 1.36564,-0.164036 0.0064,0.434521 1.35415,0.163072 0.577096,0.730705 C 61.56802,21.380057 61.220313,21.685057 60.998,21.485 Z m 6.054,-0.317 c -0.481668,-0.210132 -0.973423,-0.844084 -0.985287,-1.266823 0.560352,-0.240258 0.388684,-1.178929 1.178466,-0.844961 0.491053,-0.14856 1.279761,0.26259 0.668281,0.713473 -0.359807,-0.358336 -0.928406,-0.356025 -1.27246,0.07831 -0.27156,0.501598 0.703888,0.648156 1.084161,0.672672 0.701289,-0.0101 1.064941,-0.698489 1.464716,-1.170832 0.183029,-0.346589 -0.362298,-0.669799 0.04412,-1.19684 0.201379,-0.700585 0.909073,0.09531 1.302394,0.220241 0.26011,0.381074 1.200656,0.798086 0.981678,1.200187 -0.456851,0.752329 -0.741256,0.202907 -1.033072,-0.110428 0.03176,-0.88312 -0.488097,-0.166491 -0.828537,0.06906 -0.470723,0.292632 -0.389003,1.002763 -1.01445,1.028234 -0.440186,0.229964 -0.799423,1.230374 -1.339624,0.765826 C 67.219044,21.273534 67.132545,21.219752 67.052,21.168 Z m 2.95,-2.335 c 0.248716,-0.615417 -0.656386,-0.855906 -0.581,-0.129577 -0.176695,0.348431 0.50368,0.285272 0.581,0.129577 z m -11.929,1.84 c -0.359263,-0.405971 -1.049083,-0.02044 -1.413492,-0.509908 -0.34747,-0.565172 0.440205,-0.971224 0.74226,-0.292049 0.597056,0.130571 1.136016,0.04998 1.163232,-0.674043 0.472174,0.381063 0.234907,1.004419 -0.111127,1.395995 -0.156857,0.216192 -0.18174,0.370554 -0.380873,0.08 z m 3.831,-0.256 c -0.403286,-0.340612 -1.142745,-0.04519 -0.827,-0.942 0.07709,-0.397902 0.886284,0.379506 1.079,0.652 0.33949,0.26154 -0.02811,0.744459 -0.252,0.29 z m -10.143,-0.23 c -0.267315,-0.473899 0.602456,-0.962842 0.401,-1.544 0.20328,-0.591119 1.021252,-0.560369 0.670035,0.150643 -0.02256,0.66478 -0.565479,1.062924 -0.946035,1.544357 l -0.06343,-0.07663 z m 26.522,-0.176 c -0.765841,-0.107353 -1.03698,-1.241291 -1.875336,-0.966996 -0.944526,0.211454 -0.632383,0.01742 0.05534,-0.299666 0.278099,-0.499059 0.803959,-0.504461 1.139992,-1.028338 0.342806,-1.004203 0.954345,0.11922 1.193,-0.370949 0.091,-0.471218 -1.393901,-0.546594 -0.55789,-1.048639 0.343692,-0.425936 0.166741,-1.171382 -0.359374,-1.419147 C 77.676958,14.0365 78.341938,14.532202 78.476,15.039 c 0.01837,0.497875 0.305421,1.105069 0.738884,1.310871 0.142181,0.367932 -0.10224,1.083341 0.333743,1.530457 0.698474,0.183455 -0.01113,1.249315 0.758184,1.148138 0.731124,0.277752 -0.316753,1.336486 -0.391811,0.403111 -0.482846,-0.54476 -0.366106,0.537699 -0.825822,0.765336 C 78.807869,20.258419 78.542549,20.117537 78.283,20.011 Z M 62.709,19.722 c -0.586702,-0.16611 -0.413204,-0.960967 0.203301,-0.663131 0.582523,0.319114 0.667693,-1.135404 0.139817,-0.86301 -0.736508,0.218648 -0.955705,-0.04032 -0.343118,-0.438333 -0.751533,-0.286703 -0.155372,-0.420547 0.386561,-0.535328 0.799788,-0.489041 0.678151,0.268043 0.252439,0.535751 0.493172,0.324576 0.360929,0.45295 0.524298,1.103857 C 64.076859,19.299019 63.58127,20.010771 63.082,19.986 62.957667,19.898 62.833333,19.81 62.709,19.722 Z m -14.224,0.06 c 0.09751,-0.423065 0.559763,-0.922265 0.480704,-1.510393 0.524842,-0.313994 0.370778,0.941499 0.542719,1.338525 -0.02331,0.340817 -0.854911,0.380215 -1.023423,0.171868 z m 12.806,-0.92 c -0.0565,-0.82233 0.682583,0.324669 0,0 z m 18.9,-0.399 c -0.18241,-0.469617 -0.05021,-1.080561 -0.360434,-1.574413 -0.474495,-0.414655 -0.245533,-0.815381 -0.484633,-1.334768 -0.31817,-0.328502 -0.677981,-1.533568 0.0135,-0.808643 0.181666,0.471259 0.611481,0.799632 0.502563,1.39667 0.442961,0.224846 0.08076,1.180114 0.618423,1.190154 -0.04651,0.220441 0.250455,1.748225 -0.289423,1.131 z M 67.855,18.294 c -0.185447,-0.723417 -0.942163,0.178765 -1.351,-0.258 -0.777496,-0.113121 -0.05263,-0.868496 0.44,-0.55 0.4245,-0.621609 0.88185,0.360631 1.19011,0.654253 0.293397,0.419792 -0.234294,0.567234 -0.27911,0.153747 z M 50.816,17.987 c -0.423776,-0.277802 0.706982,-0.567213 0.543263,-1.198208 -0.264099,-0.681012 0.795009,-0.892273 0.908737,-0.430843 -0.212398,0.193676 -0.841234,0.613346 -0.709405,1.167185 0.32614,0.756874 -0.233522,0.860094 -0.742595,0.461866 z m 14.13,-0.1 c 0.0426,-0.541727 -1.236506,-0.507526 -0.223557,-0.76629 0.657138,-0.105896 0.944899,0.798092 0.223557,0.95829 v -0.09947 z m 3.682,-0.26 c -0.199586,-0.463381 -0.455809,-0.954186 -0.962,-1.198 -0.683341,-0.474377 0.597447,-0.425132 0.747466,0.153511 0.03499,0.563588 0.619674,0.690409 0.687534,1.189912 -0.0072,0.236639 -0.463178,0.06629 -0.473,-0.145423 z m 2.149,0.03 c -0.111131,-0.271465 -1.260048,-0.46131 -0.290951,-0.705473 0.488018,-0.483977 -0.09479,-0.883601 -0.475113,-1.176097 -0.286948,-0.582103 -0.695175,-0.5363 -0.975348,-0.808388 0.113817,-0.663815 0.936916,0.138121 1.173814,0.441916 0.254364,0.37059 0.956534,0.797757 0.710598,1.269042 -0.626999,0.867822 0.576884,0.576699 0.4867,1.043777 -0.03695,0.141398 -0.721863,0.278574 -0.6297,-0.06478 z M 59.412,17.604 c -0.315652,-0.366154 1.319357,-0.837851 0.776661,-0.03166 -0.138505,0.245138 -0.642739,0.291773 -0.776661,0.03166 z m -4.25,-0.28 c -0.696543,-0.402825 0.516641,-0.302975 0.603,-0.754 -0.406418,-0.626924 0.01872,-0.834875 0.604522,-0.962821 0.636489,-0.410221 0.169323,0.915818 0.961427,0.764821 0.834213,0.197388 0.345927,-0.994248 1.219474,-0.746 0.481036,-0.228481 1.434425,0.824841 0.578343,0.841377 -0.604606,-0.08972 -0.854403,0.916517 -1.18029,0.901096 -0.07069,-0.655338 -0.585725,-0.825163 -1.159324,-0.928342 -0.597632,0.06794 -1.086369,-0.08049 -0.685152,0.443292 0.09325,0.477095 -0.59911,0.697149 -0.942,0.440577 z M 52.745,16.9 c 0.122433,-0.42958 0.354874,-0.80647 -0.051,-1.259474 -0.09815,-0.893974 0.856904,0.0262 0.55705,0.495404 -0.01087,0.331032 0.04625,1.249796 -0.50605,0.76407 z m 16.942,0.004 c -0.24871,-0.955006 0.680414,-0.06946 0.067,0.107 -0.09486,0.09428 -0.02387,-0.108603 -0.067,-0.107 z M 49.214,16.738 c 0.01218,-0.417913 0.622043,-1.046511 1.154361,-0.895245 0.588688,-0.222402 1.101432,0.316952 0.301639,0.437245 -0.202923,0.27504 -0.864015,0.51096 -1.272423,0.625 -0.147861,0.06538 -0.13985,-0.0819 -0.183577,-0.167 z m 11.962,0.08 c -0.194549,-0.651176 0.829766,-0.557438 1.237954,-0.771715 0.556678,-0.111642 1.16347,-0.592295 1.627046,-0.05129 0.484765,0.169337 1.466269,-0.215848 1.457498,0.503383 -0.476024,-0.103266 -0.962766,-0.198886 -1.405498,0.08262 -0.684102,-0.466801 -1.455229,0.164363 -2.183,0.25 -0.209393,-0.03862 -0.631501,0.230148 -0.734,-0.013 z m 12.896,-0.553 c -0.107697,-0.302165 -1.292458,-0.73771 -0.733107,-0.807659 0.301675,0.210909 1.186403,0.781622 1.196107,0.08324 0.551367,-0.520117 1.110458,-1.35791 1.96,-1.300577 -0.840177,0.915092 0.654142,0.05819 0.384,0.645 -0.487717,0.184088 -0.811411,0.492748 -1.315611,0.610965 -0.475735,0.292451 -0.64813,1.08395 -1.113812,1.089035 -0.184826,0.0572 -0.257424,-0.241103 -0.377577,-0.32 z m -7.635,-0.006 c 4.24e-4,-0.133689 0.229843,-1.021513 0.849423,-0.847 0.0918,0.30486 -0.595154,1.04887 -0.849423,0.847 z M 47.474,15.692 c 0.502279,-1.131374 0.489817,0.662414 0,0 z m 13.272,-0.35 c -0.107953,-0.744524 0.994108,-0.378228 1.471167,-0.463 0.417365,-0.316197 0.732697,-0.551641 1.161517,-0.692092 0.959355,-0.263326 0.24685,0.458685 -0.349684,0.279092 0.09755,0.658438 -0.665853,0.967953 -1.226,0.938 -0.284937,-0.07619 -0.981459,0.325005 -1.057,-0.062 z M 57.24,15.235 c -0.383062,-0.397829 0.409399,-1.285672 0.721466,-0.672403 0.03111,0.109536 -0.542581,0.905189 -0.721466,0.672403 z m 8.947,-0.086 c -0.324486,-1.025573 0.594968,0.04832 0.03339,0.08712 z m 1.316,-0.092 c 0.335092,-0.86253 0.538415,0.778589 0,0.06605 z m -19.638,0.071 c -0.461912,-0.716294 0.691105,-0.495472 0.587,-1.192 0.735129,-0.186436 -0.173473,0.618226 -0.185,1.026 -0.08434,0.155184 -0.235684,0.371698 -0.402,0.166 z m 16.171,-0.149 c -0.02762,-0.510008 1.368955,0.270477 0.199628,0.114 -0.116741,0.0389 -0.155813,-0.02249 -0.199628,-0.114 z M 51.309,14.897 c 0.36,-0.650006 0.532383,-1.479067 0.81,-2.203 0.717741,-0.06981 0.193542,0.856105 0.01572,1.191386 -0.159166,0.425258 0.444241,1.254122 -0.503613,1.100614 -0.08535,-0.04682 -0.384467,0.101905 -0.322102,-0.089 z m 16.889,-0.331 c -0.161582,-0.529069 -0.999774,-0.101475 -1.361,-0.52 -0.3276,-0.100166 -1.43562,-0.587217 -0.692,-0.612 0.60258,0.237455 1.362922,0.236314 1.882,0.577 0.595977,-0.08305 0.876747,0.940208 0.210107,0.679123 l -0.02989,-0.09488 z m 10.375,-0.35 C 78.202707,13.58305 77.631973,13.11146 77.368545,12.430843 77.05429,11.865965 76.636837,11.24756 76.096526,10.935 75.570396,10.870446 75.332462,10.150446 74.843906,9.8997796 74.251204,9.3876927 73.69946,8.8151968 73.03566,8.4530469 72.574433,7.9420057 71.80179,7.9745079 71.378,7.418 70.774348,7.5493773 70.55189,6.6349766 69.904628,6.885 69.658093,6.3321697 69.029521,6.6361849 68.681,6.321 68.305216,6.0268347 67.647932,6.2015358 67.234051,5.819 66.570278,6.0423537 66.360659,5.2998866 65.708154,5.499 65.108408,5.6337758 64.576861,5.051417 64.026,5.478 63.834532,4.8007191 63.075146,5.1595447 62.55564,5.0784683 61.548431,5.0564242 60.52993,5.1863048 59.534229,5.2253816 58.922906,5.6526438 58.16396,5.4086507 57.504532,5.5531129 56.658346,6.1362885 55.50697,6.2342738 54.682526,6.778 54.064119,6.8147596 53.7842,7.7518331 53.147,7.738 52.940868,8.0820289 52.157682,8.2497707 52.165,8.286 52.38464,7.7152547 53.051288,7.3196022 53.441613,6.815714 53.920451,6.6911708 54.332868,6.477508 54.741463,6.1708721 55.115649,5.8092513 55.538621,5.6235502 56.002423,5.498 c 0.612026,0.033081 1.239459,0.098314 1.535604,-0.5474337 0.383958,-0.290741 1.1321,0.1964294 1.364973,-0.4145663 2.064662,0.019525 4.129329,0.038525 6.194,0.057 -0.05649,0.8420473 0.876436,0.45854 1.418909,0.5588237 0.578814,0.063893 1.258261,-0.081518 1.775533,0.1097943 0.365737,0.2661583 0.739573,0.5147155 1.210558,0.557382 0.221449,0.6101641 0.999239,0.037192 1.224,0.64 0.479783,0.092939 0.907984,0.2937243 1.273176,0.6319933 C 72.737638,6.9515617 72.903539,8.1788542 73.635,8.058 c 0.574056,0.5056522 1.06494,1.2105415 1.687474,1.599 0.56647,0.057306 0.862438,0.766248 1.316822,1.092736 0.56436,0.33207 0.566865,0.9071 0.97888,1.289647 0.698848,0.114714 0.542221,0.646867 0.810823,1.138785 0.08289,0.464423 0.626733,0.757818 0.390368,1.208105 C 78.659355,14.585173 78.655986,14.30373 78.573,14.216 Z m -6.21,-0.032 c -0.350511,-0.407985 0.334356,-1.123003 -0.627283,-0.79874 -0.461579,0.21 -1.245292,-1.096454 -0.447568,-0.627591 0.418518,0.368917 1.071775,0.847227 0.931609,-0.05275 0.0127,-0.715941 1.035375,-0.425725 1.275242,-1.022918 0.566717,-0.133357 0.767086,0.516179 1.372,0.373 -0.21183,0.417956 -0.594287,1.279593 -0.973301,1.157751 0.230785,-0.48318 -0.174681,-1.243931 -0.672871,-0.905892 -0.04809,0.558262 -0.760209,0.688449 -0.268331,1.13274 0.907492,0.2023 -0.20939,0.22627 -0.0775,0.852401 -0.211057,0.04706 -0.384174,0.122381 -0.512,-0.108 z m 1.817,-0.035 c 0.24822,-0.774369 0.844578,0.211952 0.07852,0.191008 -0.225132,0.08525 -0.08886,-0.07554 -0.07852,-0.191008 z m -9.436,-0.057 c -0.176355,-0.936727 1.07592,0.551164 0,0 z m 11.687,-0.366 c -0.22919,-0.64332 0.452554,-1.270641 0.744465,-0.440986 0.615998,0.509575 0.513049,1.054479 -0.34726,0.832986 -0.393293,0.05679 -0.393187,-0.02081 -0.397205,-0.392 z M 62.07,13.869 c 0.192304,-0.456928 0.818174,-0.821008 1.274,-1.067 0.496576,-0.20726 1.14546,0.735832 0.244,0.352 -0.515503,0.260893 -0.935167,0.830811 -1.518,0.873 v -0.09947 z m 7.35,-0.015 c 0.334557,-0.356875 0.480919,0.637328 0,0 z M 57.507,13.589 c -0.181756,-0.249347 -1.469402,-0.259885 -0.49295,-0.395049 0.775912,0.487136 0.456388,-1.137788 0.884264,-0.241274 0.324901,0.203664 -0.132595,1.253837 -0.391314,0.636323 z m -8.541,-0.107 c 0.509098,-0.590245 -0.538738,-0.582393 0.200762,-0.924253 0.163243,-0.417722 0.650497,-0.867002 1.049238,-1.249747 0.264606,-0.751431 0.890308,-1.244136 1.36,-1.861 0.35943,0.1220845 0.935497,-1.0382871 1.012,-0.428 -0.922901,0.6599839 -1.521919,1.643868 -2.238,2.503 0.07129,0.57005 -1.097932,0.773322 -0.388059,1.325471 0.0699,0.395866 -0.76479,0.09907 -0.850848,0.744218 C 48.890381,13.867445 48.987421,13.720256 48.966,13.482 Z m 7.35,-1.103 c 0.116488,-0.928532 0.884606,-0.03162 0.04525,0.236371 C 56.253115,12.733126 56.346876,12.413275 56.316,12.379 Z M 75.94,12.104 C 75.688952,11.663116 75.3113,11.385557 74.816,11.122 73.810931,10.320341 72.95374,9.3062244 71.767,8.765 71.695486,8.2248859 70.60556,8.0960246 71.640152,8.2170436 c 0.689233,0.4507409 1.408231,0.7376624 2.050368,1.2792672 0.667978,0.5042112 1.200461,1.2819212 1.917821,1.6401662 0.03538,0.57273 0.820047,0.486957 0.840659,1.051523 0.06372,0.3185 -0.443856,0.06906 -0.509,-0.084 z m -1.725,-0.849 c 0.168198,-0.896007 0.25429,0.91334 0,0 z m -7.264,-0.233 c -0.709292,-0.551172 0.964207,-0.15841 0.550727,0.215633 C 67.266794,11.330616 67.092698,11.218259 66.951,11.022 Z m 1.345,0.082 c -0.439066,-0.333779 0.488595,-0.851688 0.912,-0.687 0.204742,0.708217 -0.298315,1.108963 -0.912,0.687 z m -5.089,-0.745 c -0.09425,-0.6008491 1.341472,0.07926 1.1,-0.8304231 0.643396,-0.4969355 0.481229,0.8241941 -0.150072,0.7833891 -0.268427,0.009 -0.836228,0.430267 -0.949928,0.04703 z m 6.107,-0.276 c -0.238614,-0.2128404 -0.224426,-1.2374104 0.264,-0.779 0.411318,0.3752604 0.764044,0.966092 0.01678,0.969664 C 69.425204,10.58183 69.217093,10.379941 69.314,10.083 Z M 65.828,9.949 C 65.320833,9.2271987 66.007186,9.6424285 66.364,9.767 67.019456,9.5670508 65.816164,10.371078 65.828,9.949 Z M 55.358,9.697 C 55.249498,9.3396812 56.936686,9.9867774 56.178624,9.8533281 55.950846,9.7745566 55.292031,10.058867 55.358,9.697 Z M 71.044,9.55 c 0.09867,-0.8801651 0.710888,0.043739 -0.004,0.3437672 C 70.974882,9.973671 71.05944,9.6023472 71.044,9.55 Z M 62.656,9.336 C 62.10613,9.2380633 61.305953,9.1143431 62.329405,9.1067111 62.648132,9.026275 63.836924,8.84822 63.196716,9.3490762 63.056798,9.5137467 62.814607,9.417703 62.656,9.336 Z m 1.89,-1.039 C 64.588111,7.7259361 65.431383,7.7171571 65.189396,8.326792 65.192336,8.7136533 64.074484,8.7512649 64.546,8.297 Z M 70.118,7.958 C 70.073377,7.3926545 71.213237,8.1342763 70.281577,8.057 70.176659,8.1148616 70.158053,8.0172885 70.118,7.958 Z m -1.017,-0.54 c 0.148351,-0.7194321 1.135908,0.5960092 0.04415,0.213 -0.112929,0.035514 -0.0065,-0.1707678 -0.04415,-0.213 z M 68.276,7.24 C 67.647749,6.6307961 69.330155,6.9177698 68.418389,7.2906969 68.368583,7.3075397 68.324134,7.2472348 68.276,7.24 Z M 55.855,7.133 c -0.18523,-0.3821266 0.824023,-0.2733355 1.118474,-0.569 0.653557,0.095761 0.827657,-0.6826484 1.513466,-0.292132 0.852552,-0.077887 1.711729,-0.2721065 2.553261,-0.4028943 0.594297,-0.5102259 0.916548,0.501275 0.139547,0.4929561 C 60.061369,6.5211811 58.956156,6.7603455 57.819,6.671 57.596283,7.2486247 56.909373,6.5270408 56.435334,7.1139043 56.282358,7.2111499 55.98596,7.2843904 55.855,7.133 Z M 66.811,6.903 C 66.072569,6.5309248 65.169974,6.742696 64.362,6.618 64.139961,5.9793273 65.289259,6.1125628 65.627628,6.4309442 66.097997,5.9397607 66.483491,6.7204415 67.027898,6.565 67.687396,6.2802482 67.740884,7.2094304 67.13,7.076 67.023667,7.0183333 66.917333,6.9606667 66.811,6.903 Z M 63.357,6.275 C 63.245208,5.5020569 64.538918,6.0640038 63.670051,6.245 63.379077,6.0940251 63.35559,6.7977849 63.357,6.275 Z M 61.875,6.173 c 0.0237,-0.4360251 1.39491,-0.4619298 1.060058,-0.022288 C 62.69761,6.2232719 61.7711,6.622064 61.875,6.173 Z"
     id="path3872"
     inkscape:connector-curvature="0" />
  <path
     fill="#221f1d"
     d="M60.193 39.59l-.056-.212h-.849l-.061-.16-.062-.16h-.516l-.062-.16-.06-.16-.564-.004-.562-.005-.262-.315-.26-.315h-.787l-.061-.16-.062-.16h-1.062l-.537-.538-.538-.538V36.5h-.936l-.062-.16-.06-.16h-.434l-.213-.213-.213-.214v-.525l.666.428.666.427.186.128.186.127.212-.132.212-.133h.536v.32h-.668l.285.225.286.225.188-.17.189-.17.398.203.4.203.42.071.42.071v.225l.186.141.186.142.277.003.276.004.193.213.193.213h.593l.057.093.058.092.524.07.523.07.126.151.126.152h1.601l.27.177.27.177.246-.113.246-.112.38.062.378.061.164-.136.165-.136.422.14.422.139.204-.185.204-.184.33.17.33.171.219-.117.218-.117.32.07.321.071.197-.178.197-.179.23.123.228.123.256-.168.255-.167h.834l.133-.16.132-.16h.904l.402-.32.402-.32h.091l.21.112.209.112.155-.37.155-.372.118-.073.119-.073.249.133.249.133.167-.064.167-.064v-.497l.127-.128.128-.128h.615l.119-.314.119-.315.322-.032.323-.032.127-.256.127-.257.328-.138.328-.138V34.4l.772-.807.773-.807.346-.42.346-.422v-.234l.478-.51.478-.51.001-.173.002-.173.157-.13.157-.13.067-.359.067-.358.312-.326.312-.327.063-.315.063-.315.147-.122.147-.122v-.514l.165-.253.166-.253.028-.777.028-.776.126-.042.126-.042V28.16l-.213.056-.213.056v.849l-.16.062-.16.061v.517l-.16.061-.16.062-.004.243-.005.243-.315.262-.315.261v.382l-.639.624-.64.624v.356l-.479.46-.479.46v.462h-.449l-.575.575-.574.574v.45h-.463l-.46.48-.459.48h-.436l-.061.16-.062.16h-.516l-.061.16-.062.159h-.516l-.062.16-.061.16h-.517l-.06.16-.062.16h-1.156l-.061.16-.062.16h-.516l-.062.16-.06.16h-.518l-.06.159-.062.16h-1.156l-.061.16-.062.16h-3.406l-.056.213-.055.213h-3.573l-.056-.213zm1.764-1.585l-.344-.066-.23-.199-.23-.199-.465.053-.464.052v-.177l-.373-.07-.373-.07v-.27l.16-.133.16-.133V36.5h-.517l-.041-.187-.04-.187.096-.293.097-.293h.225l.383.287.383.288.085.139.085.139h.316l.061.16.062.16h.27l.14.167.138.167.498-.068.498-.069.168.168.167.168.141-.008.14-.008.32-.204.32-.203.23-.102.229-.102.07-.113.07-.113h.397l.316-.267.317-.266h.24l.108.281.106.281-.216.151-.216.152v.388l.45.114.448.114.137-.114.137-.114v-.33l-.176-.195-.176-.195h.339l.033-.293.034-.293.186.014.187.015v-.547l.121-.38.122-.382.163-.373.162-.373.169-.36.168-.36.315-.32.315-.32.035.104.034.104-.216.505-.217.505v.424l-.16.16-.16.16v.173l.189.05.188.048.211-.082.212-.083.247-.007.248-.008.152-.152.152-.152v-.192l.32.047.32.047v.16l-.289.288-.287.288-.188-.05-.188-.049-.129.156-.129.155-.328-.022-.327-.022-.293.08-.293.08v.721l.4.064.399.064.105.005.105.004.169-.307.17-.307.284-.034.285-.033v.524l-.145.056-.146.056-.052.273-.052.273.203.064.203.065.261-.171.261-.172.004-.184.003-.184.156-.207.157-.207v-.494l.32-.441.319-.442v-.458l.085-.101.085-.102.243-.64.242-.639.152-.283.152-.283v-.223l.327-.485.327-.485h.411v.28l-.32.307-.319.306v.362l-.16.306-.158.305v.32l-.002.32-.315.586-.315.586-.005.178-.004.178-.266.53-.266.53v.504l-.373.311-.373.311v.484l-.111.068-.112.07-.274-.181-.275-.18-.253.135-.254.136v.274l-.516-.061-.517-.062-.147.159-.148.158-.186-.116-.186-.117-.334.198-.335.198-.796-.072-.797-.073-.203-.127-.203-.126-.19.119-.19.119-.458.077-.458.077-.284.149-.284.148-.213-.013-.213-.014-.345-.066zm3.012-.825l.262-.172v-.295h-.114l-.289.18-.29.182-.036.025-.038.025.07.114.07.113h.102zm2.697-.6l-.016-.56-.068.48-.068.48.037.08.037.08h.094zm-9.098.652l-.071-.226.144-.094.145-.094.212.027.212.028.032.167.032.168-.276.125-.276.126h-.082zm-.9-.482v-.147l.484-.235.485-.236.097.157.097.157-.145.146-.146.146-.436.08-.437.08zm-.96-.36v-.11l.16-.062.16-.061v-.38l.293-.188.293-.19.213-.234.213-.235.12-.201.121-.202.28.259.278.258v.176h-.523l-.271.272-.271.271v.208l-.267.122-.266.121v.286h-.533zm6.148-.32l-.268-.21h-.446l-.001-.187-.001-.186-.633-.505-.633-.505-.458-.177-.458-.178-.09-.078-.089-.079.193-.225.193-.225h.485v.408l.913.442.913.442.307.34.307.34.168-.236.168-.235.669.062.668.063.154-.151.155-.151.263-.183.263-.182h.585l.107.2.106.2-.21.19-.209.19v-.224l-.168-.065-.168-.064-.32.32-.32.32h-.422l-.553.172-.552.173-.175.198-.176.198-.267-.211zm-6.973-.067l-.134-.054v-.409h.409l.046.133.047.134-.05.133-.048.133-.069-.008-.068-.009-.133-.053zm-2.661-.272l-.238-.115-.055-.175-.056-.174-.313-.185-.313-.185-.672-.67-.673-.67-.586-.674-.586-.674-.186-.17-.187-.17v-.238l-.32-.285-.32-.285v-.318h.118l.313.162.313.162.063.291.064.291.04.13.039.128.351.09.351.091.037.26.037.26.11.134.109.133h.583l-.049.256-.049.256.224.224.223.224h.44l-.019.186-.019.187.012.133.013.133h.983l-.051.198-.052.198.098.175.098.175h.499l.065.169.064.169v.302l-.133-.007-.133-.007-.238-.115zm1.569-.404v-.213h.506l.133-.16.133-.16-.002-.293-.001-.293.108-.134.108-.133h.4v.646l.15.058.15.058.322-.167.323-.167.048-.08.048-.081.073-.548.074-.548-.223-.208-.223-.208-.26-.139-.259-.138-.322.133-.322.134-.233.202-.233.202-.04.346-.038.345-.03.426-.029.426-.196.038-.196.038.057-.502.057-.503-.208-.208-.208-.208-.127.042-.126.041-.036.312-.037.312-.12.144-.12.145-.19-.448-.19-.448-.213-.055-.213-.056v-.393l-.21-.195-.208-.195-.322-.604-.322-.603.095-.06.095-.058.175.067.175.067.058.29.058.289.3.177.299.177h.334l-.064.32-.063.319.132.16.133.16h.507l.017-.24.017-.24-.02-.21-.02-.211-.157-.088-.157-.088v-.226l.375.07.374.07.059-.152.058-.153.34-.073.34-.072.638-.027.64-.028.216-.079.217-.078.183.383.183.383v.483l.114.115.115.115.086.38.085.38-.192.206-.193.207-.28.537-.281.537-.162.062-.162.062h-.702l-.133.16-.133.16h-.932zm.825-2.945l.24-.065v-.295h-.507l-.118.143-.119.144.07.07.07.07.062-.002.063-.001.24-.064zm1.625-.191v-.045l.065-.168.064-.169h-.981V31.98l.128.128.127.128h.597zm14.49 3.256v-.094l.159-.133.16-.132v-.178l.258-.381.26-.382.069-.316.069-.316h.203l.061.16.061.16h.484l.137-.165.137-.165.214.031.214.032.04.124.041.123-.317.07-.317.07-.165.251-.165.252-.205.065-.206.065-.067.267-.066.266-.253.097-.253.096-.07.113-.07.113h-.414zm-11.565-.425l-.324-.175.04-.186.038-.187h.157l.156.133.156.134.2.24.2.24-.149-.012-.15-.012zm-9.743-.767l-.586-.629-.187-.002-.186-.003-.213-.213-.213-.213v-.35l-.8-.786-.799-.787v-1.068l-.16-.062-.16-.061v-.517l-.159-.061-.16-.062v-.467l-.315-.261-.315-.262-.004-.243-.005-.243-.16-.061-.16-.062v-.53l-.213-.056-.213-.055V16.59l.213-.055.213-.056v-.53l.16-.062.16-.06v-.434l.213-.213.213-.213h.256l-.128.128-.128.127v.788l-.16.061-.16.062V16.54l-.16.132-.16.133v.603l-.121.269-.122.268.132.16.132.159-.075.446-.076.446-.143.343-.144.344.054.054.054.054.047.68.046.678.003.868.003.867.158.13.157.132-.061.246-.062.247.07.22.07.222.286.014.285.015-.225.044-.225.044-.124.273-.124.273.122.148.123.148.12.003.12.002.267.208.266.209-.228.002-.229.003-.061.16-.062.162.118.26.119.26.304.106.305.107v.209l-.228.034-.23.034-.114.183-.115.183.286.563.286.563.191.308.19.308-.132.047-.134.048v.596l.165.136.164.137.256.56.256.559.116.071.116.072.22.47.222.471 1.08 1.058 1.081 1.058.32.272.32.272-.267-.005-.267-.006-.585-.628zm8.494.4l-.043-.128.046-.176.045-.177.222-.058.222-.058.087.054.086.054-.165.252-.165.251-.146.057-.147.056zm3.81-.616l-.425-.23-.283-.2-.283-.2h-.186l-.285-.326-.286-.326-.564.019-.564.019-.276-.074-.276-.074-.182.279-.183.279-.26.099-.261.099v.671l-.16-.133-.16-.132v-.21l.267-.317.266-.317v-.523l-.16-.383-.16-.382v-.294h.419l.117.219.117.219-.03.234-.03.234.079.127.079.127.767-.065.767-.064.163-.198.163-.198.519.402.519.402.498.506.499.507.207-.004.208-.003.207-.157.207-.156h1.968l.16-.16.16-.16h.144l.415-.329.415-.329v.625l-.22.198-.219.199.068.268.067.268-.203-.183-.203-.184H65.7l-.118.118-.118.118-.889.087-.888.087-.267.066-.266.066-.426-.231zm6.393-.344l-.213-.127-.03-.011-.028-.012.067-.175.067-.175h.811l-.12.32-.121.32-.11-.007-.11-.006-.213-.127zm-16.866-.26l.035-.187.239-.034.238-.034v.186l-.127.127-.128.128h-.293zm22.22-.08l.053-.28-.204-.053-.205-.053.043-.367.043-.366h-.573l.07.32.07.32h-.539l-.108.186-.109.186.002-.266.001-.267.153-.426.154-.426.002-.294.001-.293h.128l.526.537.525.538.36-.068.358-.067.08.25.078.249.171.139.171.139-.373-.035-.372-.034v.644l-.28.033-.28.032zm-4.262-.203l-.293-.105v-.603l-.266-.121-.267-.122-.28.128-.28.128-.059-.06-.059-.058.223-.292.223-.291.143.04.143.04.266.006.266.007.16-.046.16-.047-.035.356-.034.356.176.195.176.195-.035.199-.035.2-.293-.105zm-18.77-.57l.097-.08.064-.085.064-.085.136.165.137.165h-.594zm12.657-.077l-.06-.157-.39-.065-.389-.065-.368-.113-.367-.113-.338-.358-.337-.358h.386l.059.096.06.096.559.139.56.14.102-.03.102-.03.43.12.43.118.724-.104.724-.104.48-.233.482-.233.34-.461.34-.462.149-.062.148-.06.05.048.048.049-.264.353-.263.354-.1.313-.1.313-.313.102-.313.103-.302.25-.3.251-.285.017-.285.017-.315.02-.314.022-.04.122-.042.122h-.628zm3.8-.083l.005-.133.261-.426.261-.427.072-.16.071-.16.302-.388.302-.389v-.295l.205-.175.205-.175.214-.115.215-.115.3-.001.3-.002.24-.064.239-.065v-.614h.379l.343.314.343.313v.104l-.167.167-.168.168H71.6l.056-.213.055-.214h-.502l-.273.254-.273.253-.473-.053-.473-.054-.124.49-.123.49-.148.123-.148.122V31.39l-.373.328-.373.327v.381l-.168.066-.169.064h-.195l.004-.133zm8.269-.166l-.09-.14-.256-.098-.256-.097v-.539h-.64v-.509l.174-.067.173-.066.146.121.147.122v.293h.296l.068-.27.068-.27.236-.09.237-.091.203-.226.203-.225h.262l.064.24.064.24.002.086.001.088-.206-.066-.207-.066-.111.208-.111.208.158.06.158.061v.239l-.427-.072-.426-.072v.245l.114.212.113.212-.034.234-.033.235-.09-.14zm-25.213-.66v-.107h.32v.214h-.32zm8.976-.027l.044-.133.282-.1.283-.1.081.082.082.082-.206.151-.207.152h-.403zm11.107-.2l-.06-.155.09-.422.09-.422.077.47.077.47-.107.108-.107.107zm-18.165-.072v-.087l.133-.16.133-.162.29-.179.289-.179h.22v.225l-.343.314-.343.314h-.38zm-2.93-.34l.066-.107h.507l.066.106.066.107h-.771zm19.94.035l-.07-.071v-.26l.32-.047.319-.047v.24l-.128.128-.128.128h-.241zm-18.32-.103l-.075-.075v-.459l.272-.237.273-.237-.033.51-.033.51-.165.032-.165.03zm12.643-.227l-.147-.147v-.271l.272-.123.271-.124h1.363l.057-.092.056-.092.375-.061.375-.061.666-.513.667-.513.207-.207.206-.206.04.118.04.119-.265.42-.265.419-.514.301-.514.302-.213.115-.213.115-.427.282-.426.28-.732.043-.732.042zm10.06-.265l-.38-.347.05-.133.05-.133h.306l.103.24.103.24.174.24.174.24h-.2zm-18.726.033l-.11-.206v-.227h.32l.213.213.213.213v.214h-.526zm-7.198-.124l-.071-.224.09-.08.09-.08.227.065.226.063-.09.24-.09.24h-.311zm4.495.144l-.083-.133.063-.102.063-.102-.158-.378-.158-.378h.402l.067-.106.066-.107h.53l.247.267.247.266h.554l-.068.187-.07.186-.114.079-.114.078-.116.002-.116.001-.121-.266-.122-.267h-.746l-.051.24-.051.24-.034.213-.033.213-.083-.133zm5.103-.016l-.071-.115.105-.188.105-.187.075.193.074.194-.109.109-.108.109zm17.22-.255l-.34-.352v-.15h.28l.286.3.286.298v.255H75.501zm-14.01.102l-.067-.177-.243-.002-.243-.002-.133-.084-.133-.085.137-.188.137-.188.285.072.284.071.113.136.112.136-.09.244-.09.244-.068-.177zm-10.187-.124l-.028-.107.016-.48.016-.479.054-.187.055-.186h.305v.507l-.153.128-.154.127-.042.392-.041.392zm11.072-.154v-.1l.107-.066.106-.066v.211l.24.046.24.047-.347.014-.346.015zm.853-.062v-.162l.265-.101.265-.101.161.061.16.062v.148l-.127.128-.128.128h-.596zm14.187-.576l-.355-.304.089-.053.088-.053.314.001.314.002.299-.335.299-.335v-.316h.22l.063.166.064.167-.128.282-.129.282.187.137.186.136-.045.036-.046.036-.504.232-.505.231-.028-.004-.028-.004-.355-.304zm-29.183-.073l-.24-.272V28.849l.238-.062.238-.062.099.098.098.099-.096.32-.097.322zm6.792.108v-.17l-.32-.299-.32-.299v-.238l.259-.118.258-.118.066-.26.065-.261.13.045.128.046-.041.202-.042.202-.003.72-.004.719h-.176zm19.364-.026l-.293-.176v-.374l.133.004.133.003.186.142.187.141v.243h.332l-.066.107-.066.107-.127-.01-.127-.01-.292-.177zm-14.57-.064v-.153l.114-.07.114-.07.048.048.049.049-.067.175-.067.175h-.191zm9.63-.273l.385-.426v-.328l.219-.297.22-.296.145-.419.145-.419.191.037.19.037.215.15.214.15h-.23l-.281.26-.282.262v.218l.32.166.319.165v.195l-.453.033-.453.033-.034.295-.033.294-.38.159-.378.158h-.425zm-20.377.011l-.147-.093.073-.119.073-.118h.414v.426l-.133-.001-.133-.002-.147-.093zm24.28-.377l-.099-.26-.21-.112-.209-.112-.33.066-.332.066-.184-.157-.183-.158-.187-.066-.186-.066v-.327h.295l.305.16.306.159h.24l.239.001v-.326l.186-.066.187-.066.293-.27.293-.271v-.471l.16-.06.16-.062v.52l.314.163.314.163h.517l.133.16.133.16h.253l.446.215.446.216v.208h.32v.32h-.415l-.459-.305-.458-.304-.342-.065-.342-.065-.064.103-.063.103h-.2v-.303l-.32-.07-.32-.07-.312.068-.313.069-.104.126-.105.127.19.234.19.234.28.07.28.071v.302l-.273.104-.273.104h-.098l-.099-.26zm-10.18.043l-.075-.123.163-.164.164-.163.282.07.282.072-.034.182-.035.183-.335.033-.335.033zm2.693.028l-.186-.04v-.197h-.64v-.32h.082l.274.141.272.142.539-.07.538-.068-.002.06-.003.061-.344.166-.343.165-.187-.04zm-7.637-.44l-.22-.31v-.873h.422l.063.293.063.293.099.245.099.245v.416h-.305zm17.252.225l-.16-.054-.078-.118-.078-.117-.002-.133-.001-.133h.325l.107.281.107.281-.03.024-.03.024zm1.599-.022v-.107h.32v.213h-.32zm-29.408-.483l-.143-.173.153-.097.153-.097.08-.001.08-.002-.002.133-.002.133-.087.139-.088.138-.144-.173zm4.637.056l.066-.106h.401l.066.106.066.107H51.9zm1.151-.031l-.08-.129-.186-.533-.185-.533-.004-.167-.003-.168-.506.005-.506.005-.293-.079-.293-.08v-.209h1.372l.065-.104.064-.105.342.398.34.398.08.035.079.035-.153.153-.153.153.111.318.11.318h.193v.297l-.156.06-.157.06zm13.962-.182l.364-.32h.344v.32h-.293l-.133.16-.132.16h-.515zm-2.873-.057l-.176-.27.067-.066.067-.068.213.194.214.194v.286h-.208zm14.377.103l-.064-.167.121-.12.12-.121v-.384h-.293l-.132-.16-.133-.16h-.606l-.11-.206-.11-.206v-.183l.56-.19.558-.191.346-.799.346-.798-.106-.199-.106-.199v-.244l.336.074.337.074.175-.232.176-.233.287.13.287.132v.179h-.761l.031.308.033.308-.153.285-.152.285.116.185.116.186-.334.15-.334.151.176.036.176.036.067.266.067.265-.055.09-.055.088-.204.053-.204.054-.062-.307-.06-.307h-.406l-.122.146-.121.147.066.173.067.173h.6l.222.281.22.281v.132l-.32.142-.319.142v.621h-.22zm-29.058-.587l-.275-.328v-.303h.18l.2.222.201.221.455-.036.455-.036v.065l-.282.261-.282.262h-.376zm12.296.115v-.107h.426v.213h-.426zm-7.597-.119l-.192-.112.126-.151.125-.151h.507v.195l-.065.17-.065.168-.122-.003-.121-.004zm23.258-.094v-.214h.32v.427h-.32zm-6.072-.907l-.25-.266h.26l.314.163.315.162v.208h-.389zm-22.365-.346l.008-.506.061.155.061.155.195.21.195.209-.117.141-.118.142h-.293l.008-.506zm13.759.31l-.137-.086.27-.123.27-.123v-.408l.174-.067.175-.068.024.03.023.029.114.219.113.219-.072.11-.072.11-.363.124-.362.124-.01-.002-.011-.001-.136-.087zm-9.51-.612l-.104-.276.07-.113.07-.114.144.196.144.197v.385H53.4zm8.847.068v-.22h.213v.308l-.107.066-.106.066zm2.47-.166l.12-.266h.137l.124.124.124.124-.182.14-.183.138-.13.003-.132.004.122-.267zm5.639.17l-.148-.094.2-.21.202-.212.34-.172.339-.173.167.064.166.064v.19h.852l.002-.293.002-.293.1.158.1.159-.187.32-.188.322-.367.06-.367.058-.189-.157-.188-.158-.314.232-.313.232-.03-.002-.032-.001-.147-.094zm-22.829-.17l-.052-.052.046-.32.047-.318.095.058.095.059v.627h-.178zm29.422-.458v-.299l.128-.128.128-.127h.809v.426h-.286l-.193.213-.193.213h-.393zm-28.126.04v-.152l-.187-.055-.186-.054.265.02.266.02.035.186.036.187h-.229zm16.857-.08l.042-.126.175-.11.175-.111.077.077.077.078-.205.155-.205.155-.089.004-.089.003.042-.125zm3.7.015l-.155-.097.114-.183.114-.183.126-.042.125-.042v.538l-.085.053-.085.052zm-19.58-.168l.037-.2.16-.027.158-.028.156.101.157.1-.05.051-.05.05-.304.077-.303.076zm25.927-.25l-.062-.1.242-.125.243-.125.18-.225.178-.226.065.065.065.065-.228.386-.228.387h-.392zm-23.655-.325l-.066-.106.353.001.353.002-.16.103-.16.104-.127.001-.127.002zm-3.888-.32v-.106h.545l-.066.107-.066.106h-.413zm16.726-.04v-.147l.148-.122.147-.122.066.172.066.172-.06.097-.06.097h-.307zm-2.663-.008v-.048l.496-.22.496-.22.053.055.054.054-.193.214-.194.214h-.712zm11.586-.455l-.506-.271v-.314l.133.053.133.053.454.183.454.184.142-.118.142-.117.058.058.059.059-.054.207-.055.207h-.17l-.142.044-.142.044zm-24.051-.004v-.187l.196-.123.196-.122.183.31.183.31h-.758zm2.202.117l-.071-.071v-.285h.532V23.452l-.128.128-.127.128h-.135zm19-.063v-.133l.336-.19.335-.192.1.1.1.1-.12.224-.12.225h-.632v-.134zm-1.892-.118l-.24-.119v-.375h.411l.171.17.171.172-.123.149-.123.148-.014-.013-.013-.013zm-11.083-.193l-.13-.13v-.252l.146-.122.147-.122.05.19.05.191-.066.188-.066.188zm19.722-.148l-.07-.182.134-.213.133-.214.194-.346.194-.345.036-.243.035-.243.4-.207.401-.208.16.062.161.061-.241.285-.241.284-.21.201-.21.202.13.21.132.21h-.773l.073.24.072.24.02.16.02.159-.24.034-.24.034zM62.435 22.9l-.293-.16v-.312h.216l.425.132.424.133v.374l-.24-.004-.24-.004-.292-.16zm14.053-.093l-.06-.16.08-.05.08-.049.133.083.133.082-.152.126-.153.127zm-5.74-.38l.048-.32h.082v.64h-.176zm8.227.214v-.107h.533v.213h-.533zm-6.228-.206l-.061-.1.108-.066.108-.067.108.067.109.067-.062.099-.06.1h-.189zm7.463.023l-.202-.052-.2-.186-.2-.187.078-.202.078-.203.062.267.061.266.343.102.343.102v.169l-.08-.012-.08-.013zm-5.424-.346l-.191-.324-.287-.003-.287-.002-.187-.375-.186-.375v-.221l.412.355.412.355.29.345.289.346-.037.111-.037.112-.191-.324zm-3.996-.345l.035-.246h.301l.036.108.036.107-.221.139-.222.138zm-6.934.05l-.258-.048-.408-.259-.409-.258v-.21h.49l.103.103.103.103.424.088.425.088v.4l-.107.02-.106.02zm-16.097-.114v-.102l.133-.106.133-.107.373-.072.373-.073.381-.057.382-.057.41.196.41.196.048.15.049.149-.251-.176-.251-.176h-1.295l-.101.096-.101.095-.347.073-.346.073zm24.29-.117v-.202l-.159-.061-.16-.061v-.54h.28l.233.315.233.316v.435h-.426zm2.938-.179l-.167-.167v-.217l.453.074.452.073.106.1.106.1-.16.101-.158.1-.232.002-.232.002-.168-.168zm-13.726-.003l-.063-.063.057-.15.057-.15h.533l-.065.17-.064.168v.089h-.391zm6.211-.092l-.136-.164h-.246l-.184-.214-.183-.214v-.105l.186.001h.187l.316.166.316.164.243-.13.243-.13.071.071.071.072-.044.026-.045.027-.33.297-.329.297-.136-.164zm-7.449-.15l-.147-.097.22-.118.22-.118h.654v.32h-.187l-.186.002-.213.054-.213.053-.148-.097zm17.623-.147l-.169-.24.183-.038.182-.038.14.192.14.192v.172h-.307zm2.288-.027v-.16h.121l.16.16.16.16h-.441zm-21.84-.444l-.267-.137-.185.058-.185.057-.322-.19-.322-.19.039-.11.039-.11.202.036.201.035.568.078.567.078.152-.217.152-.217v.548l-.187.21-.186.208zm-10.728-.048l-.127-.154.094-.154.095-.153.068.068.067.068-.035.24-.035.24zm26.51-.052l-.244-.172-.308.062-.307.061-.324-.272-.324-.273v-.187l.56.196.56.196.472.155.473.154.042.126.042.125h-.397zm-4.998-.32l.349-.384.036.18.035.178-.185.206-.186.205h-.399zm7.007.275v-.11l-.206-.077-.207-.076.713-.013.712-.014-.24.11-.24.11v.18h-.532zm-29.404-.423v-.32h.4l.063.236.061.236-.129.082-.13.082-.132.002-.133.002zm14.88.142l-.072-.071v-.299l.24.072.24.072.156.149.156.148h-.65zm17.244-.139l-.197-.218.044-.044.045-.045.319-.035.319-.034v.53l-.167.032-.166.032zm-3.562-.259l-.24-.255.116-.071.115-.071.072.193.071.193.111.074.112.075-.059.058-.059.059zm-26.325.1v-.048l.271-.271.271-.271h.204v.418l-.206.11-.206.111h-.334zM63.1 19.77v-.101l.346-.325.346-.326.035.222.035.222-.184.205-.185.204H63.1zm7.954.03l-.07-.07v-.498h.186l.132.158.131.159-.061.16-.062.162h-.185zm-8.407-.215l-.187-.05v-.203l.162-.062.16-.062.158.13.157.131-.058.094-.059.095-.073-.012-.074-.013zm-15.887-.62l-.06-.16h.312v.2l-.095.06-.095.059zm32.6.085l-.067-.067v-.678l-.2-.181-.2-.182.116-.247.116-.246.115.118.115.119.236.456.235.457v.305l-.199.107-.199.106zm-8.908-.17l-.266-.133-.035-.184-.035-.183.194.069.194.069.186.16.187.16v.18l-.08-.001-.08-.002-.265-.134zm6.536.065l-.228-.045.054-.207.054-.208h.34l.484-.475.483-.475.245.256.246.257-.22.218-.218.22h-.411l-.21.266-.209.266-.09-.014-.092-.015zm3.35-.578l-.04-.118.042-.362.042-.361h.19v.96h-.195zm-33.308-.258l-.12-.263h.209v-.64h.433l-.11.206-.11.207v.64l-.091.057-.091.056zm12.784-.466l-.142-.087.184-.071.184-.07.058.057.058.058-.1.1-.101.1zm20.205-.703l-.044-.373H80.147v.746h-.083zm-22.033.053v-.213h.284l.07.07.07.07-.119.143-.118.143h-.187zm21.006-.008l-.142-.23.113-.114.114-.113.063.063.063.063-.035.28-.034.28zm-31.58-.232l-.049-.133.048-.138.048-.138.143.12.143.118-.058.152-.058.152h-.168zm14.043-.069l-.059-.095.168-.065.168-.064h.412l.185-.093.185-.092.523-.175.523-.175.178.16.177.162.365.003.364.003-.194.113-.194.113-.294-.122-.294-.121-.47.173-.471.174-.426.094-.427.093-.18.005-.18.005-.059-.096zm-11.498-.49l.061-.16h.256l.207.156.207.157-.396.003-.396.003zm29.763-.094v-.254l-.16-.132-.16-.133v-.374l-.16-.133-.16-.133v-.293l.213.213.214.213v.533h.32v.746h-.107zm-21.574-.066l-.066-.107h.558l-.066.107-.066.106h-.295zm16.78-.533v-.214h.326l-.114.214-.114.213h-.099zm-13.918-.304l.188-.208.37.102.369.102.222-.07.222-.071-.048.144-.047.145-.732.032-.732.032zm-3.661-.158v-.135l.127-.128.128-.128h.279l-.132.21-.132.212-.135.052-.135.052zm-10.537-.726l-.01-.602.159-.061.16-.061v-.432l.64-.624.638-.624v-.34l.86-.859.858-.86h.285l-.468.498-.47.496v.188l-.239.34-.24.339-.24.197-.24.197v.293l-.29.14-.293.14-.04.212-.041.212-.258.306-.257.306-.177.387-.176.387-.075.213-.076.213zm21.638.308l-.138-.167.118-.074.12-.073.055.055.055.056-.036.185-.036.185zm-5.775-1.04l.214-.212h.136l.141-.187.142-.186.003.083.004.084-.324.316-.323.316h-.206zm15.475-.145l-.346-.381v-.3l-.148-.123-.149-.123-.055-.21-.054-.21h.17l.061.16.062.16h.539v.842l.17.096.172.096-.038.187-.038.187zm-.97-1.52l-.015-.121-.439-.44-.439-.438h-.35l-.105-.238-.106-.238-.253-.125-.253-.125-.28-.282-.279-.281-.533-.472-.532-.472-.117-.003-.117-.003-.182-.201-.182-.202-.684-.336-.683-.337-.063-.101-.062-.102h-.406l-.19-.199-.19-.198-.234-.121-.232-.121h-.418l-.061-.16-.061-.16h-.837l-.06-.16-.062-.16-.403-.003-.403-.004-.207-.156-.206-.157h-.893l-.132-.16-.133-.16h-1.346l-.073-.118-.073-.118-.413.066-.413.066v-.169l-.324-.122-.325-.123-.324.113-.325.113-.4-.132-.402-.133-.221.119-.221.119H59.52l-.133.133-.133.133-.954.053-.954.054v-.054l.214-.213.213-.213h1.072l.061-.16.061-.16H65.11l.034.293.034.293 1.542.03 1.543.03.087.157.088.157h.5l.06.16.062.16h.517l.061.16.061.16h.836l.062.159.061.16h.517l.061.16.061.16h.517l.061.16.062.16h.436l.46.48.459.479h.352l.786.8.786.799h.337l.864.865.865.865-.045.228-.044.227zm-8.645-.899v-.22l.107.067.106.065v.308h-.213zm5.428-.793l-.048-.107-.354-.293-.355-.293.195.004.195.003.248.207.248.207-.04.19-.04.188zM53.096 7.505l.533-.533h.423l.06-.16.062-.16h.467l.261-.315.261-.316.244-.004.243-.005.06-.16.062-.16.761.013.761.012-.213.054-.213.054-.21.147-.21.147h-.445l-.207.156-.206.157-.227.003-.227.004-.132.16-.133.16h-.353l-.35.32-.35.32h-.177l-.06.16-.062.159h-.3l-.133.16-.133.16h-.39zm6.122-1.056l-.06-.097.587-.037.586-.036v.133l-.333.067-.333.066h-.387l-.06-.096z"
     id="path3874" />
  <path
     style="stroke:#000000"
     d="m 61.643,4.588 c 2.336971,0.2676804 4.704214,0.4349518 7.022281,0.7653384 1.709499,0.9447045 3.516543,1.7433049 5.164788,2.7797565 1.394628,1.1659387 2.821419,2.3234791 4.108986,3.5958071 0.698613,1.443498 1.617591,2.784959 2.355053,4.192313 C 80.476072,17.252477 80.658036,18.583738 80.84,19.915 80.689,14.672 80.538,9.429 80.387,4.186 c -11.804333,0 -23.608667,0 -35.413,0 0,11.758333 0,23.516667 0,35.275 11.804333,0 23.608667,0 35.413,0 0.136982,-5.957479 0.422498,-11.912804 0.452,-17.871842 0.03242,-0.359055 -0.07888,-2.26414 0.08458,-1.229038 0.328961,2.148542 -0.08772,4.3378 -0.37592,6.458529 -0.43328,1.188638 -0.642669,2.490601 -1.528977,3.449936 -1.15973,1.40676 -2.269073,2.876752 -3.545864,4.176948 -1.142764,1.039201 -2.237438,2.142525 -3.63038,2.848139 -0.811333,0.456967 -1.536708,1.146458 -2.523502,1.128785 -1.823863,0.264714 -3.633972,0.704444 -5.489081,0.571543 -1.453337,-0.0476 -2.939471,0.178428 -4.338767,-0.320046 C 57.923524,38.270768 56.299595,38.030708 54.869705,37.229058 53.267179,36.629105 52.095883,35.317852 50.717738,34.347791 49.50599,33.508018 48.764079,32.187745 47.786,31.109 c -0.796667,-1.672333 -1.593333,-3.344667 -2.39,-5.017 -0.544999,-1.865043 -0.967695,-3.840361 -0.533583,-5.776567 0.234794,-1.29818 0.308528,-2.645499 0.642266,-3.913493 0.874915,-1.677265 1.455853,-3.532105 2.712746,-4.978639 0.718703,-0.933292 1.314917,-1.991074 2.384929,-2.5673152 1.069315,-0.7051342 2.034416,-1.6048763 3.169383,-2.187412 1.537478,-0.5274525 3.031356,-1.2291765 4.59704,-1.6438894 C 59.460187,4.8791229 60.551594,4.7335615 61.643,4.588 Z"
     id="path3876"
     inkscape:connector-curvature="0" />
</svg>
