<?xml version="1.0" encoding="UTF-8" standalone="no"?>
<svg
   xmlns:dc="http://purl.org/dc/elements/1.1/"
   xmlns:cc="http://creativecommons.org/ns#"
   xmlns:rdf="http://www.w3.org/1999/02/22-rdf-syntax-ns#"
   xmlns:svg="http://www.w3.org/2000/svg"
   xmlns="http://www.w3.org/2000/svg"
   xmlns:xlink="http://www.w3.org/1999/xlink"
   id="svg3878"
   version="1.1"
   height="42.984375"
   width="126.16586">
  <metadata
     id="metadata3882">
    <rdf:RDF>
      <cc:Work
         rdf:about="">
        <dc:format>image/svg+xml</dc:format>
        <dc:type
           rdf:resource="http://purl.org/dc/dcmitype/StillImage" />
        <dc:title></dc:title>
      </cc:Work>
    </rdf:RDF>
  </metadata>
  <defs
     id="defs3833" />
  <defs
     id="defs3854">
    <linearGradient
       id="b">
      <stop
         id="stop3835"
         offset="0" />
      <stop
         id="stop3837"
         stop-color="#fffefe"
         offset="1" />
    </linearGradient>
    <linearGradient
       id="c">
      <stop
         id="stop3840"
         stop-color="#ff0"
         offset="0" />
      <stop
         id="stop3842"
         stop-color="#fff"
         offset="1" />
    </linearGradient>
    <linearGradient
       id="a">
      <stop
         id="stop3845"
         offset="0" />
      <stop
         id="stop3847"
         stop-opacity="0"
         offset="1" />
    </linearGradient>
    <linearGradient
       xlink:href="#b"
       gradientUnits="userSpaceOnUse"
       gradientTransform="matrix(0.99895,0,0,1.2824,-127.01925,-0.37571788)"
       y2="-16.802999"
       y1="-16.554001"
       x2="26.962999"
       x1="9.8559999"
       id="d" />
    <linearGradient
       xlink:href="#c"
       gradientUnits="userSpaceOnUse"
       gradientTransform="matrix(0.99533,0,0,0.97443,-5.1277041,35.638718)"
       y2="-8.2370005"
       y1="-15.719"
       x2="14.942"
       x1="15.004"
       id="f" />
    <linearGradient
       xlink:href="#c"
       gradientUnits="userSpaceOnUse"
       gradientTransform="matrix(0.99533,0,0,0.97443,64.271296,35.423718)"
       y2="-8.2370005"
       y1="-15.719"
       x2="14.942"
       x1="15.004"
       id="g" />
    <linearGradient
       xlink:href="#a"
       gradientUnits="userSpaceOnUse"
       gradientTransform="matrix(0.99895,0,0,1.2824,-0.81799278,42.48172)"
       y2="-16.858"
       y1="-16.344999"
       x2="29.108"
       x1="9.3719997"
       id="e" />
  </defs>
  <ellipse
     style="fill:url(#d);stroke:#fdff00;stroke-width:1.13199997;stroke-opacity:0.99500002"
     id="ellipse3856"
     transform="matrix(-0.99999992,-4.0142572e-4,2.443461e-4,-0.99999997,0,0)"
     ry="20.922001"
     rx="62.448002"
     cy="-21.462719"
     cx="-63.019245" />
  <ellipse
     style="fill:url(#e);stroke:#fdff00;stroke-width:1.13199997;stroke-opacity:0.99500002"
     id="ellipse3858"
     transform="matrix(0.99999871,0.0016057,-0.00144862,0.99999895,0,0)"
     ry="20.922001"
     rx="62.448002"
     cy="21.39472"
     cx="63.183002" />
  <ellipse
     style="stroke:#fdff00;stroke-width:0.79400003;stroke-opacity:0.99500002"
     id="ellipse3860"
     ry="20.091999"
     rx="51.084999"
     cy="21.396719"
     cx="62.637295" />
  <path
     style="fill:url(#f);stroke:#000000;stroke-width:0.49200001"
     id="path3862"
     d="m 10.337296,7.3517176 6.795,0.027 0.134,3.3240004 h -1.952 l 4.715,18.755 h 0.206 l 5.708,-18.903 -1.512,-0.027 -0.007,-3.1490004 6.929,0.027 -0.038,3.1330004 -1.344,-0.01 5.42,18.929 h 0.206 l 4.819,-18.792 -1.67,-0.026 V 7.3957176 h 6.447 l 0.037,3.2870004 -1.77,0.03 -6.11,22.553 -3.505,0.01 -5.98,-20.574 -5.774,20.591 h -3.609 l -6.117,-22.652 -1.811,-0.037 z" />
  <path
     style="fill:url(#g);stroke:#000000;stroke-width:0.49200001"
     id="path3864"
     d="m 79.736296,7.1367176 6.794,0.027 0.134,3.3250004 h -1.952 l 4.715,18.754 h 0.207 l 5.708,-18.902 -1.512,-0.027 -0.007,-3.1500004 6.927994,0.027 -0.037,3.1330004 -1.343994,-0.01 5.419994,18.929 h 0.206 l 4.818,-18.791 -1.67,-0.027 V 7.1807176 h 6.447 l 0.038,3.2870004 -1.77,0.03 -6.11,22.554 -3.506,0.01 -5.979994,-20.575 -5.774,20.591 h -3.608 l -6.118,-22.653 -1.81,-0.037 z" />
  <ellipse
     style="fill:#ffffff"
     id="ellipse3866"
     ry="16.976"
     rx="18.254"
     cy="21.800718"
     cx="62.582294" />
  <path
     id="path3868"
     d="M 60.099296,39.463718 C 58.253629,39.055966 56.85114,37.959154 55.128721,37.765246 54.115381,36.921563 52.955448,36.350027 51.793296,35.678718 51.395439,34.35068 49.36692,34.046737 48.8334,32.749469 c -1.272239,-0.903713 -1.522693,-2.27491 -2.102257,-3.506658 -0.541213,-1.009843 -1.445611,-1.869285 -1.226847,-3.136596 0,-3.328833 0,-6.657665 0,-9.986497 1.252018,-1.221322 0.917727,-3.172022 2.420902,-4.20016 0.640151,-1.420079 2.026383,-2.2033183 3.082075,-3.1713303 1.788569,-0.6236371 -1.225638,1.4823643 -0.736171,1.7829663 0.758216,-0.8338777 1.88125,-1.5213438 1.704937,-2.4202916 0.952654,-1.1834015 2.231771,-1.794266 3.352118,-2.5462235 1.612589,-0.2466654 2.769715,-1.1721921 4.464292,-1.2734091 1.758258,0.2016189 4.297551,-0.3354294 5.567691,0.3278396 1.217167,0.7338436 3.16257,-0.1226554 4.441156,0.9476081 1.463279,0.6191595 2.996105,1.4883964 4.281672,2.4360231 0.967044,1.2657304 2.522829,1.810635 3.377811,3.1692894 1.151193,1.009031 1.507655,2.625568 2.444276,3.939753 0.588874,1.203795 0.870713,2.600845 0.768682,4.051953 6.8e-4,0.823573 -0.910879,0.923415 0.03246,1.746584 -0.01082,0.626553 -0.714203,0.497571 -0.0075,1.210246 -0.13072,1.317998 -0.03168,2.441115 -0.03641,3.772062 0,0.75703 0,1.51406 0,2.27109 -0.547224,1.547166 -1.444502,3.042485 -2.649159,4.198208 -0.591208,1.420523 -1.918834,1.932332 -2.709056,3.174311 -1.182267,1.044776 -2.958884,2.247867 -4.741974,2.527292 -1.395528,0.683395 -2.821846,1.388807 -4.392283,1.294189 -0.673843,0 -1.347685,0 -2.021528,0 -0.702653,0.497121 -1.809282,0.08503 -2.691471,0.212 -0.383969,-0.07424 -1.163668,0.146015 -1.35752,-0.106 z m 4.344,-1.406 c -0.497766,-0.789501 -0.309755,0.688968 0,0 z m 4.266,-0.434 c -0.36443,-0.763834 -0.530398,0.855647 0,0 z m 0.98,-0.399 c -0.363927,-0.528879 -0.42999,0.501442 0,0 z m 1.334,-0.431 c 0.02459,-1.090592 -1.051324,0.543542 0,0 z m -7,-0.78 c -0.426504,-0.555402 -0.642239,0.964288 -0.01489,0.07623 z m 8.113,-0.064 c -0.208901,-0.671498 -1.068672,0.525504 0,0 z m -13.421,-0.43 c -1.016993,-0.460967 0.310544,0.490585 0,0 z m 14.663,-0.209 c 0.929368,-0.323618 1.120969,-1.571009 0.04167,-0.609207 -0.710197,0.431344 -1.57692,1.625185 -0.04167,0.609207 z m -8.804,-0.964 c -0.641739,-0.526674 -0.66653,0.42771 0,0 z m 10.342,-0.217 c 0.792699,-0.945082 -1.165883,0.264583 0,0 z m -22.167,-0.325 c -0.349357,-0.69605 -0.26843,0.830364 0,0 z m 6.46,-0.258 c 1.712366,-0.807769 -0.627902,-0.570497 -0.234355,0.144531 z m 16.596,-0.335 c -0.07789,-0.794146 -0.584441,0.739263 0,0 z m -19.39,-0.348 c 0.117617,-0.827664 -1.236575,1.060648 0,0 z m 9.361,0.017 c 1.72334,-0.979225 -1.36994,-0.19752 -0.217732,0.138528 z m -1.521,-0.054 c -0.787094,-1.261824 -0.410242,0.766403 0,0 z m 12.144,-0.306 c -0.501,-0.600738 -0.354179,0.960424 0,0 z m -14.383,-0.563 c -1.156234,-1.44714 -0.704946,0.386227 0,0 z m 6.073,-0.734 c 0.289725,-0.459811 1.518453,-2.170144 0.250536,-1.045773 -0.337781,0.459869 -1.145977,2.699617 -0.250536,1.045773 z m 5.114,0.006 c -0.384276,-0.558603 -0.242008,0.926747 0,0 z m -19.065,-0.078 c 0.877475,-0.87396 0.291575,-0.643778 -0.23389,0.0061 -1.146146,0.372286 0.08118,0.508319 0.23389,-0.0061 z m 20.343,0.007 c -0.579488,-0.799623 -0.518587,0.482099 0,0 z m -10.6,-0.118 c -0.428047,-0.467266 -0.698972,0.538137 0,0 z m 1.731,0.033 c -0.765121,-0.08966 -0.511997,0.140726 0.04194,0.04454 z m 12.064,-0.166 c -0.177455,-0.808126 -0.215364,0.988469 0,0 z m -17.583,-0.083 c 1.535675,-0.59715 -0.423046,-1.121925 -0.398435,0.152461 0.16568,0.04584 0.243234,-0.187434 0.398435,-0.152461 z m 12.105,-0.397 c -0.460605,-1.553447 -0.598315,1.892426 0,0 z m -9.175,0.409 c -0.306036,-1.163348 -1.775154,0.111759 0,0 z m 3.684,-0.17 c 1.428972,-1.326185 -1.871656,0.871249 0,0 z m 11.45,-0.372 c 0.291164,-0.903031 -0.706655,0.645001 0,0 z m -11.62,-1.267 c 0.830213,0.09032 2.736107,-2.002379 0.991296,-0.879003 -0.740705,0.960382 -2.390378,0.376828 -2.887296,0.921003 0.551917,0.383454 1.289183,-0.0023 1.896,-0.042 z m -3.267,-0.099 c -0.372957,-0.721297 -0.552969,0.683442 0,0 z m -10.838,-0.24 c -0.281248,-0.790359 -0.836843,0.818557 0,0 z m 18.242,0.157 c 0.196197,-0.951925 -0.674217,0.266256 0,0 z m -9.531,-0.194 c 1.090747,-0.475622 0.761549,-1.242727 -0.171005,-0.414642 -0.510588,0.211516 -0.466374,0.913449 0.171005,0.414642 z m 8.43,-1.177 c 0.477563,-2.146569 -1.011347,1.47846 0,0 z m -15.482,-0.013 c -0.500873,-1.040548 -0.05916,0.783308 0,0 z m 18.047,-0.557 c -0.560942,-1.062987 -0.952673,0.584692 0,0 z m 0.905,-0.447 c 0.422307,-0.71752 -1.236739,0.46216 -0.193,0.213 z m -18.378,-0.214 c -1.068406,-0.45697 -0.608902,0.61321 0,0 z m -7.35,-0.38 c -0.463736,-0.538014 -0.362842,0.666339 0,0 z m 3.915,-0.44 c 0.685784,-0.01236 2.70436,-0.507952 0.980306,-0.845235 -0.07327,0.306868 -4.860013,1.235548 -0.980306,0.845235 z m 27.22,-0.412 c 0.745884,-1.553654 -1.558521,0.885505 -0.121268,0.256328 l 0.112479,-0.238748 z m -7.471,-0.58 c 0.722318,-0.200996 2.114674,-1.150161 0.554482,-0.59125 -0.995845,-0.410827 -2.366579,1.742226 -0.700431,0.572736 z m -7.876,0.03 c 1.171878,0.480229 2.210572,-2.215395 0.705616,-1.013292 -0.492796,0.889023 -1.156285,0.750748 -1.750586,0.745609 -0.360995,0.790312 0.732845,0.139765 1.04497,0.267683 z m -13.801,-1.154 c -0.232353,-0.848143 -0.748183,0.859516 0,0 z m 27.15,-0.137 c -0.304667,-0.476952 -0.237936,0.64497 0,0 z m 2.717,-0.284 c -0.933485,-0.691434 -0.285994,0.639232 0,0 z m -31.11,-0.533 c 0.455587,-0.387519 2.590987,0.51992 1.461285,-0.511705 -0.440322,-0.444324 -2.648403,0.734151 -1.461285,0.511705 z m 23.528,-0.144 c -0.240011,-0.949418 -0.709082,1.21275 0,0 z m 0.87,0.259 c 0.469445,-1.185497 -0.944509,0.32991 0,0 z m 1.718,-0.128 c 0.136978,-1.361956 -1.303335,0.626561 0,0 z m -12.476,-0.086 c 0.08907,-0.687784 2.146165,-0.505474 0.737821,-0.836364 -1.175215,0.541827 -3.318338,0.276212 -2.600843,-1.52062 0.42733,-1.38278 1.336019,-1.133234 0.629414,0.200155 0.768653,-0.02035 0.622257,-2.309529 0.624103,-3.062708 0.312361,-1.234064 -1.658734,-2.514539 -0.500966,-3.292262 1.051956,-0.265206 -0.116878,1.295042 1.196932,0.821547 0.917605,-0.120688 0.845461,-0.41886 0.165292,-0.680229 -0.139739,-0.944089 2.830973,-1.93341 0.611117,-1.64315 -0.615138,0.02565 -0.992738,2.193987 -1.189476,0.586278 -0.16229,-2.081045 2.03657,-1.074389 3.19259,-0.964774 0.841685,1.291574 2.455625,1.032214 3.604985,1.707816 0.547156,0.360992 3.272268,1.880882 1.414734,0.536004 -0.309484,-0.585112 -1.871652,-0.88155 -0.803438,-1.212493 -1.014341,-1.037158 -3.50074,-0.787757 -3.73224,-2.116927 0.672153,-0.224436 1.05267,1.158046 1.423665,-0.203331 0.438467,-0.521857 2.451501,0.476206 1.690277,-0.6691184 -1.152405,0.0057 -2.400109,0.8367224 -2.965226,-0.2526586 0.208913,1.37497 -2.009386,1.133582 -2.667739,0.697886 0.979879,-1.35687 -2.010442,0.01916 -1.100934,-1.6168801 -0.297328,-0.9838972 -2.005561,-0.5161197 -0.734494,0.2440147 0.589373,1.1897544 -0.607428,1.7693954 -1.334183,1.7660084 1.578987,0.724893 -1.395279,0.364672 -1.118834,-0.7476094 -0.285508,-0.8291821 -1.543228,-1.4043694 -0.0685,-1.8152648 -0.624696,-1.0807707 -2.281522,0.671813 -0.941334,1.5518274 0.213089,1.3493958 -3.83265,-0.5909154 -1.332098,-0.6533597 1.046968,-0.1268447 -0.759344,-0.8181162 -0.947309,-0.637925 0.05914,-1.186921 2.366495,0.014762 1.535433,-1.1317129 -0.717276,-0.1596647 -3.249199,0.8714179 -1.923808,1.4095878 -1.64663,-0.011829 -2.802439,1.1946382 -3.588837,2.6047386 -1.226306,1.016338 0.261134,1.659364 0.516967,2.462412 -5.88e-4,-1.027996 1.518788,-2.263463 1.45004,-0.593889 -1.010686,1.271636 1.634778,2.326907 0.502977,3.87588 -0.636797,-0.388976 -2.181349,-0.0093 -1.114538,0.877095 2.175005,-0.612109 0.153652,2.318671 -0.221995,2.814723 -0.286213,1.428802 0.84422,0.444075 0.545547,-0.31017 0.513602,0.653289 1.260193,0.510803 1.400892,0.158361 0.0045,1.978018 1.038088,-1.858745 1.320728,0.09085 0.718899,0.195584 2.311898,1.145273 2.33457,-0.134394 -1.509489,0.216774 -1.788907,-1.799305 -0.65778,-2.36686 0.269697,-1.156857 -0.231288,-2.072754 -1.012566,-0.718893 -2.123734,0.583215 -1.634253,-1.957058 -0.488902,-2.81658 0.689169,-0.511557 1.573707,0.935623 1.592454,-0.494406 1.415193,-0.908088 -2.933923,-0.610506 -0.990258,-1.867805 0.547864,-0.670721 1.082689,-2.106344 1.890702,-2.109827 0.183892,0.87822 -1.652896,1.836101 -0.04043,2.049454 1.069482,0.587882 -0.612916,2.184374 0.991887,2.115862 1.274455,0.407722 2.567039,3.13524 0.844269,3.564385 -0.695918,-0.23127 -1.424045,-1.569016 -1.438326,0.01575 0.650034,0.569657 1.926038,0.911719 0.838969,1.898847 -0.558881,0.695608 -0.976269,1.731328 0.201803,1.405767 0.645888,0.362848 1.67439,1.380612 2.256886,1.014962 z m 5.327,-9.334 c 0.622003,-0.606018 0.66254,0.503565 0,0 z m -13.588,-0.647 c 0.584386,-0.243746 1.439735,-1.408707 0.378373,-1.574617 -0.09305,1.013395 -1.876468,1.557753 -0.680261,0.256811 0.113183,-1.0130734 1.918776,-2.2368356 1.599926,-0.399406 -0.286736,0.868924 1.842454,2.160695 -0.03047,1.628138 -0.355032,-0.02592 -0.995851,0.483462 -1.267569,0.08907 z m 6.772,0.026 c -1.057246,-0.297815 -0.644786,-1.519829 0.131884,-0.430073 0.366824,0.222953 0.488232,0.611631 -0.131884,0.430073 z m 1.34,-1.254 c -0.0466,-1.2065634 0.959973,0.711585 0,0 z m -0.917,-0.204 c 0.50578,-1.088417 0.484314,1.011958 0,0 z m 9.8,11.113 c -0.409255,-0.674767 -0.120718,1.243819 0,0 z m -1.067,0.16 c -0.18889,-0.863186 -1.565446,-1.324588 -0.65091,-0.113778 0.04806,0.167742 0.772587,0.528424 0.65091,0.113778 z m 6.5,-0.267 c -0.798091,-0.611622 -0.08662,0.949575 0,0 z m -17.683,-0.186 c -0.472441,-0.931677 -0.540101,0.968787 0,0 z m 9.588,0.12 c -0.658647,-1.065782 -1.204717,0.324346 0,0 z m 5.967,-0.19 c -0.209972,-1.057963 -1.319742,-0.652293 -0.406751,0.0085 l 0.241905,0.03222 z m -22.316,-0.363 c -0.353656,-0.757773 0.432732,-1.772327 -0.845729,-1.069733 -0.97837,0.146368 -3.317066,-0.953764 -2.221563,0.580648 1.103838,-0.820167 2.188125,0.530413 3.067292,0.489085 z m -4.106,-0.388 c -0.172157,-1.135279 -0.09895,1.158778 0,0 z m 21.84,-0.139 c -0.345018,-0.856263 -0.385882,1.077073 0,0 z m 2.432,-0.353 c 0.625137,-1.747112 -1.281204,1.362106 0,0 z m -7.565,-0.069 c 0.464915,-1.153152 1.060663,-1.980883 2.173039,-1.389375 0.732903,-1.156784 -1.608616,-0.746179 -1.987991,-0.596383 0.598356,1.206503 -0.983929,2.311611 -1.653101,1.514276 -0.06285,0.611734 1.251482,1.076201 1.468053,0.471482 z m 11.24,-0.157 c -0.976717,-0.986874 0.611522,1.199409 0,0 z m -28.906,-0.211 c -0.183091,-1.156244 -0.919843,0.426437 0,0 z m 21.201,-0.056 c -0.425447,-0.534358 -0.580983,0.569595 0,0 z m -9.31,-0.371 c 0.01559,-1.126626 -1.770445,-0.533775 -0.390668,0.130766 0.131495,0.106964 0.340907,0.02477 0.390668,-0.130766 z m 10.6,-0.023 c 0.719175,-0.865495 -0.47429,-2.566486 -0.225475,-0.703182 0.01474,0.202588 -0.256159,1.346359 0.225475,0.703182 z m 5.635,0.068 c -0.449874,-0.514236 -0.496807,0.51649 0,0 z m 2.631,-0.14 c -0.854638,-0.669276 -1.641855,0.54693 -0.186671,0.223301 0.243326,0.238914 0.45887,-0.190102 0.186671,-0.223301 z m -26.303,-0.595 c 0.01465,-1.330964 -2.462143,-1.332243 -1.883785,-3.135889 -0.122765,-1.197641 0.811701,-1.653398 1.690973,-1.035642 0.952906,-0.823417 -1.353048,-2.079044 -1.48811,-0.476389 -1.376018,1.279536 -1.318175,3.490525 0.639701,3.749585 -0.29406,0.717082 0.823895,2.560135 1.041221,0.898335 z m 11.456,0.29 c -0.149155,-1.247887 -0.654847,0.907532 0,0 z m 10.938,0.129 c -0.355072,-0.811565 -0.594098,0.505254 0,0 z m -26.652,-0.334 c -0.614518,-1.01381 -0.242165,1.065441 0,0 z m 5.538,-0.39 c -0.612523,-0.972655 -0.424352,0.97612 0,0 z m 11.206,-0.026 c -0.378967,-0.648251 -1.518999,0.610011 -0.176569,0.230351 0.164783,0.06961 0.248892,-0.123644 0.176569,-0.230351 z m 12.891,0.053 c 1.114045,-0.546657 2.635353,-1.821596 0.87742,-2.578284 0.06782,-0.313788 1.20963,-1.963709 0.195351,-1.135643 -0.393196,0.609143 -2.148812,0.959549 -1.791451,1.768045 0.616448,-1.047736 2.100981,-0.597247 1.124512,0.585441 0.44258,0.52249 -1.757277,2.004245 -0.405832,1.360441 z m -27.402,-0.075 c 0.609281,-1.015596 -0.915432,0.06203 -0.05756,0.05756 z m 13.436,-0.565 c -0.205893,-1.879515 -0.633051,1.63848 0,0 z m 5.55,0.427 c -0.418024,-0.72804 -0.503758,0.663622 0,0 z m 3.898,-0.08 c 0.779583,-0.829536 -1.107708,0.112784 -1.386544,-0.663073 0.300881,0.210874 0.973657,1.214416 1.386544,0.663073 z m -24.993,-0.082 c -0.336252,-1.446389 0.930323,-3.04196 1.508289,-4.334117 -0.928215,-0.897891 -1.076931,1.998408 -1.615277,2.556363 -0.393203,0.195841 -0.572404,2.217909 0.106988,1.777754 z m 18.005,-0.371 c 0.29461,-0.8418 -1.003033,0.613424 0,0 z m 3.562,-0.64 c -1.31084,-1.236471 0.656612,1.415869 0,0 z m 11.559,-0.2 c -0.181002,0.187977 0.182877,1.114474 0.124298,0.13809 z m -9.794,0.484 c -0.164849,-0.884909 -1.543775,-1.077253 -0.47014,-0.116055 0.09244,0.07738 0.336062,0.268832 0.47014,0.116055 z m -19.052,-0.194 c 0.938133,-2.131204 -1.473307,0.653727 0,0 z m 6.708,-0.39 c -0.975433,-0.30445 0.721906,1.048815 0,0 z m 16.025,0.345 c 1.128367,-0.5265 0.06673,-1.228821 -0.611048,-1.158373 -1.12694,-0.598655 -0.502624,-2.624015 -1.790915,-2.141977 -0.234566,-0.657069 -2.439899,-1.341633 -2.017156,-0.604965 1.202909,0.264953 2.16739,1.857322 2.825934,2.916257 0.141374,0.425843 1.121654,1.36793 1.593185,0.989058 z m 1.788,-0.063 c -0.120661,-1.119422 -1.161596,0.397215 0,0 z m -8.579,-0.276 c -0.366315,-0.761263 -0.531204,0.856372 0,0 z m 4.964,0.15 c -0.129163,-1.11006 -1.160349,0.510803 0,0 z m -8.566,-0.295 c -0.810693,-0.264251 -0.599726,0.353189 0,0 z m 2.237,0.079 c -0.522896,-0.495765 -2.54943,0.09873 -0.907466,-0.0097 0.219057,-0.08705 0.868515,0.224481 0.907466,0.0097 z m -9.935,-0.466 c -0.574779,-0.665211 -0.335505,0.607838 0,0 z m 13.66,-0.533 c -0.742833,-0.438439 -0.349111,1.264471 0,0 z m 2.142,0.01 c -0.859901,-0.587268 0.737947,1.08642 0,0 z m -13.557,-0.17 c -0.375968,-0.933094 -1.2953,0.714339 -0.0162,0.177788 z m -8.078,0.027 c 0.621887,-0.650321 3.356028,0.624179 2.530712,-0.575932 -0.810565,0.169263 -3.233247,-0.452749 -2.725982,0.74431 z m 12.359,0.05 c -0.460071,-0.845785 -1.384193,0.497242 -0.04045,0.10888 l 0.0408,-0.03852 z m 16.194,-0.103 c -0.324091,-0.796448 -0.343455,0.796644 0,0 z m 1.086,0.085 c -0.228149,-0.653306 -0.84733,-1.58815 -0.354152,-0.246093 -0.199415,0.196342 0.816453,0.598097 0.354152,0.246093 z m -14.324,-0.046 c 0.502293,-0.661344 -2.049003,-0.182707 -0.2778,0.07215 z m 3.463,-0.081 c 0.644076,-1.066944 0.291962,-0.761209 -0.275842,-0.21374 -1.186797,-0.01394 -0.278644,0.721705 0.275842,0.21374 z m -5.514,-0.065 c 0.407171,-0.434497 -1.196137,0.318727 0,0 z m -6.765,-0.213 c 0.275338,-0.817436 -1.822366,0.542213 -0.174473,0.164577 z m 18.219,0.133 c 0.212295,-0.888051 3.10226,-1.913723 1.083747,-2.035173 0.01144,1.370321 -3.04976,1.897883 -1.461942,0.393875 -0.64474,-0.07801 -1.569884,1.394036 -0.39879,1.304906 0.172178,0.166292 0.50272,0.614266 0.776985,0.336392 z m -15.555,-0.346 c -1.95667,-0.364915 0.07809,0.547566 0,0 z m 8.36,-0.067 c 0.494848,-1.621372 -1.636727,0.457519 0,0 z m -0.796,-0.872 c -0.483723,-0.952788 -0.696567,0.474328 0,0 z m -1.458,-0.675 c 0.666188,-0.400834 -1.598323,-1.55222 -0.366588,-0.320053 -0.137848,0.514354 -0.416959,0.579418 0.366588,0.320053 z m -16.568,-0.327 c 0.687012,-1.030532 -0.850892,-0.08238 -0.08713,0.09431 z m 26.663,-0.201 c 0.162992,-0.568966 1.689508,0.01394 0.554257,-0.728145 -0.676511,-0.396449 -1.50138,1.87435 -0.554257,0.728145 z m -4.448,-0.163 c -0.42476,-0.420955 0.01984,0.784842 0,0 z m -13.351,-0.094 c -0.600571,-0.795548 -0.552318,0.583273 0,0 z m 12.678,-0.59 c 0.0079,-1.382143 -1.139654,0.882256 -1.362279,-0.659758 -0.474826,-0.406173 -1.381222,0.177517 -1.866314,-0.07395 1.100078,0.187547 2.102345,1.286985 3.103797,1.337697 0.132633,-0.159688 0.222443,-0.403938 0.124796,-0.603989 z m 2.195,0.265 c 0.04367,-0.85065 -2.254124,-0.353769 -0.595365,0.06624 0.300349,0.0312 0.587579,0.443394 0.595365,-0.06624 z m 5.018,-0.19 c -0.677415,-1.059318 0.164635,1.307179 0.124603,0.09145 z m -28.008,-0.099 c -0.338365,-0.597375 -0.447355,0.89153 0,0 z m 0.766,-1.044 c -0.755105,-0.171105 -0.540897,1.4211 0,0 z m 23.263,0.485 c 1.7194,-0.380698 -1.11063,-1.414312 -0.227063,-0.438551 0.620536,-0.06628 -0.802525,0.984956 0.227063,0.438551 z m 3.511,-0.043 c -0.543228,-0.868996 -0.206029,0.545538 0,0 z m -5.526,-0.28 c 0.773681,0.0371 0.421753,-1.137979 1.258574,-0.798289 0.06099,-0.7175785 -0.822909,-1.2953589 -1.076941,-0.179162 -0.878174,0.243962 -2.652075,0.305403 -0.977745,1.122339 0.265133,0.01426 0.596369,0.09174 0.796112,-0.144888 z m 4.347,-0.671 c -0.979886,-0.8768773 0.559493,0.926932 0,0 z m -16.152,-0.6040004 C 61.38827,9.5016373 57.756709,7.8605941 58.5914,9.6430567 c 0.05588,0.4583263 0.551203,0.5350233 0.831896,0.2396609 z m 4.725,-0.319 c 0.216592,-1.3334151 -1.554269,0.7739614 0,0 z m 6.766,-0.216 c -0.767341,-1.2969036 -1.061609,0.7176994 0.01431,0.1849898 z m -4.126,-0.025 c 0.03011,-1.6143561 -3.0428,0.0101 -0.957351,-0.5498948 0.299717,0.059427 0.779652,0.9062202 0.957351,0.5498948 z m 1.87,-0.066 C 69.599286,8.8838034 68.579216,7.5090734 68.25878,8.7863824 67.559254,9.154586 68.132949,9.6970422 68.658296,9.2567176 Z m -1.156,-0.947 C 67.650717,7.033161 64.718977,7.1803975 66.47178,7.8551745 c 0.39127,-0.087171 1.155256,1.6268287 1.030516,0.4545431 z m -3.19,-0.159 c 0.717555,-1.5101747 -2.611824,-1.9805042 -3.112962,-1.1915634 0.322272,1.3935367 1.064575,-0.8897761 1.67503,0.5892046 0.448963,0.5514896 0.684518,-1.0193343 1.157011,0.1383487 0.137174,1.509301 -2.625355,-0.5920038 -2.0981,0.8122368 0.777385,-0.3376098 2.083798,0.5309917 2.379021,-0.3482267 z m -11.35,0.133 c 1.317567,-0.6606366 2.458355,-1.7011167 3.850399,-2.1181644 -1.403334,-0.088715 -2.752404,1.3787404 -4.067326,2.0330634 -0.700433,0.2112595 -0.02425,0.4392141 0.216927,0.085101 z m 6.606,-0.295 c 0.493844,-0.3402657 1.249732,-1.4431861 0.09008,-1.1183078 -0.315109,0.9678125 -1.501545,-0.921192 -1.167565,0.4806814 0.511346,0.023939 0.688257,1.6580771 1.07749,0.6376264 z m 11.027,-0.825 c -0.276424,-0.4121088 -0.650578,0.2935041 -0.0137,0.02221 z m -0.906,-0.468 c -0.474686,-0.7954137 -0.576665,0.7421511 0,0 z m -1.127,-0.236 c 0.631376,-0.6848195 -0.904538,-0.041376 0,0 z m -10.487,-0.919 c -0.852315,-0.2412829 -1.049902,1.4274201 0,0 z m 9.536,0.45 c -0.423453,-0.414857 -2.793258,-0.6710417 -1.537175,-0.049167 0.23683,-0.2425447 1.870795,0.7742949 1.537175,0.049167 z m -8.427,-0.187 c 0.691004,0.00754 3.021428,-0.693139 1.232797,-0.5371038 -0.5828,-0.046598 -3.47019,0.6419623 -1.232797,0.5371038 z m 5.87,-0.133 c -0.123026,-0.879545 -1.062497,0.7418769 0,0 z m -2.45,-0.32 c 0.02095,-0.8278577 -1.620367,0.4899945 -0.109344,0.1381856 z m 1.125,0.103 c 0.466397,-0.9836919 -1.560684,0.362682 0,0 z"
     style="fill:#c9c7b7" />
  <path
     id="path3872"
     d="M 60.006296,39.357718 C 58.177007,38.837003 56.74639,37.808162 54.85443,37.568349 53.817616,36.278263 51.986395,36.196599 51.192874,34.718551 49.922996,33.9977 49.002542,32.961939 48.054744,31.839569 46.86201,30.475454 46.700928,28.455306 45.408155,27.04879 c -0.133108,-3.60978 -0.03788,-7.236476 -0.06686,-10.854072 1.333471,-1.136059 1.029815,-3.068305 2.399295,-4.157773 0.625491,-0.736067 1.775671,-2.8289592 2.612522,-2.3331238 -1.076541,1.2891228 -2.10114,2.6125048 -3.087608,3.9465578 -0.450698,1.501167 -1.414739,2.706354 -1.371183,4.310098 0.160454,0.634902 -0.823419,2.642609 0.394209,1.911267 0.681601,-1.323686 0.292196,-2.984954 1.197681,-4.074626 0.801569,0.76884 -0.714208,2.145045 0.56407,2.666606 -0.218544,0.923836 -0.230729,2.533641 -1.415998,1.900946 -1.377604,-0.577704 -0.624131,0.926918 -0.741277,1.623659 1.81584,-0.727854 0.644123,1.48128 1.600543,1.990559 0.567209,-1.221986 2.123166,0.524929 2.270476,-1.292126 1.893334,-1.566478 -1.747183,-1.353618 -2.352918,-0.973229 0.311141,-1.448486 2.596038,-1.169651 3.447518,-0.217693 1.054033,0.08256 0.798852,0.732417 1.026529,1.239032 0.647843,0.352999 1.775109,-1.886562 1.568865,-0.334443 -0.567153,1.349698 0.341234,2.209527 0.245212,3.414433 -1.469824,1.359829 3.083409,0.448785 1.116167,-0.841788 -0.08617,-1.366781 2.201407,-0.154142 1.146738,0.73034 1.020854,-0.07944 1.141604,1.692459 0.174228,0.58413 -0.41752,0.289869 -0.541737,0.755021 -1.082784,0.655894 0.195861,1.528205 -0.242494,2.975853 -1.44916,3.967106 -1.615431,0.798607 0.688099,1.116856 0.985832,-0.03805 0.531139,-0.86711 1.020422,-1.978463 1.813334,-0.62153 -0.0042,0.955548 0.494074,0.747747 1.084713,0.412226 -0.187251,0.757216 0.756853,1.783072 0.602765,0.423009 0.330676,-0.616843 -1.283879,-1.173682 0.02212,-1.605344 0.328413,0.118847 0.441974,1.571946 1.011738,0.524965 1.073193,-0.295312 2.111969,-1.767634 2.984353,-1.501077 0.603239,0.235856 0.221782,1.546556 1.166315,0.604978 1.108152,0.696963 2.676509,0.476454 3.868985,-0.142279 0.904843,-0.273545 2.29733,-2.379195 0.535469,-1.33628 -1.100022,0.973898 -2.450838,1.047775 -3.728545,0.702087 -0.545136,1.072902 -2.360596,-0.535843 -0.726656,-0.514634 1.135274,0.469831 0.555088,-0.347282 0.177811,-0.714613 0.536635,-0.832282 1.972903,0.620146 1.386843,-0.718098 0.852749,-0.914663 1.040789,1.438717 0.91921,-0.223384 0.212961,-1.040388 1.64679,-0.447569 1.257891,-1.208133 0.772555,0.318676 0.68837,-1.327729 0.781203,-0.124733 -0.613307,0.872261 1.344289,0.648101 0.04049,1.429064 0.865611,1.665739 1.579938,-1.455558 0.576733,-2.067097 0.732819,0.272541 1.555303,-0.361097 0.572045,-0.90227 -0.53445,-0.431661 -1.015061,1.149183 -1.114775,-0.07503 0.6416,-0.769117 2.273948,-0.548172 1.536867,-2.039302 -0.629335,-1.6025 2.169556,-1.138671 0.702133,-0.07027 -0.72808,0.936205 0.450982,2.308743 0.51844,0.645766 -0.306142,-1.080974 1.28625,-0.446733 1.225715,-1.481772 1.117387,0.567779 1.181836,3.212417 2.860987,2.317554 -0.107953,-1.372733 -2.864114,-2.2951 -2.708246,-3.675245 1.231303,0.588556 2.508172,1.334807 3.759489,1.806402 0.875248,0.568525 -1.41387,0.859253 -0.712241,1.959369 -0.09912,0.694379 -1.630671,1.817311 -8.85e-4,1.47485 0.959763,-0.514487 1.705894,-0.801266 2.540077,-0.223651 -0.277281,-0.561206 -2.632951,-2.320353 -0.759319,-1.681283 0.678671,0.814967 0.832994,-0.570541 0.0078,-0.757704 -0.424782,-1.206022 -1.847062,-1.703851 -2.685265,-2.550887 -0.831341,0.536013 -2.548227,-1.140573 -0.798044,-0.349837 1.127716,0.410858 1.67219,0.05071 2.383666,-0.891441 0.104433,0.368203 -1.150139,2.169102 0.43124,2.064447 1.39727,-0.248677 2.277693,1.819214 3.632582,0.430317 0.829838,0.378826 0.670844,1.016153 0.0692,1.21377 0.800573,0.780756 0.873512,0.898922 -0.06553,1.032001 0.210752,0.493489 1.343471,0.818066 0.214312,1.287944 0.358817,0.593667 0.869059,0.893172 -0.159818,0.768239 0.103366,0.772066 1.029145,-0.110343 0.68437,1.018758 0.07615,1.493364 0.03176,2.803893 -0.772806,4.018872 -0.752303,1.586054 -2.097138,2.732242 -3.013007,4.154392 -1.266301,0.895571 -1.933343,2.397316 -3.433667,2.953116 -1.68341,1.089708 -3.614381,1.665593 -5.462113,2.203166 -0.966398,0.618643 -2.156443,0.261129 -3.24502,0.355834 -0.875744,0.163395 -1.680465,0.458113 -2.706111,0.319 -0.600252,0 -1.200504,0 -1.800756,0 l -0.03512,-0.09307 z m 2.17,-1.106 c -0.568397,-0.872145 -2.002201,-0.503973 -2.826709,-0.97127 -1.642266,-0.04361 -2.987306,-1.58335 -4.56249,-1.895783 -0.253378,-1.09536 -1.608733,0.122427 -0.409903,0.189053 1.505956,1.175883 3.133503,1.717455 4.918232,2.335796 0.829263,0.254295 2.379013,0.491384 2.88087,0.342204 z m 1.066,-0.015 c 0.03057,-1.408153 -1.578635,0.786944 0,0 z m 1.295,-0.094 c 0.518317,0.05202 2.661507,0.467107 1.686317,-0.503489 -0.703253,-0.01039 -3.851867,-0.37937 -2.127964,0.723682 0.173362,0.04236 0.379425,-0.04371 0.441647,-0.220193 z m 3.009,-0.184 c -0.29695,-1.360157 -1.277977,0.673117 0,0 z m 1.08,-0.153 c 0.269617,-1.91692 -2.250339,0.684347 0,0 z m 0.973,-0.272 c 1.231313,-1.604559 -2.250406,-0.0089 0,0 z m 1.618,-0.84 c 0.36042,-0.726476 1.242961,0.107586 1.336287,-0.891588 1.271901,-0.506048 2.489618,-1.669731 3.526144,-2.824236 0.950344,-1.116999 2.102687,-2.261037 2.502569,-3.693176 -1.68642,0.212419 -1.677843,3.320103 -3.182098,2.712942 0.695469,1.429049 -1.757338,1.543383 -2.351843,2.522248 -0.460007,0.962858 -2.385776,1.150671 -1.129993,-0.187989 0.273172,-1.853676 -0.74653,1.91255 -1.540065,2.001885 -0.54107,0.748978 0.61085,1.098296 0.838999,0.359914 z m -7.538,-0.265 c 0.793386,-0.18763 2.102922,-1.339265 0.414791,-0.926138 -1.047928,1.071905 -2.084956,0.09244 -2.85744,-0.628802 -0.0079,0.784972 0.603763,1.110267 0.128245,1.459312 0.73621,0.0137 1.647768,0.703665 2.314404,0.09563 z m 2.332,0.158 c -0.327739,-0.706438 -0.289604,0.391063 0,0 z m 3.814,-0.608 c 0.566114,-1.508131 1.23702,-2.951377 1.874213,-4.430752 0.741558,-0.602312 0.936322,-2.639323 -0.305878,-1.644584 0.04697,1.456532 -0.974117,2.598562 -1.15702,4.008364 -0.888516,0.672166 -0.437891,1.346293 -0.716845,2.194972 l 0.17475,-0.01105 0.130776,-0.116954 z m -10.926,-0.264 c 0.501964,-1.567055 -2.438437,0.581582 -0.382968,0.09285 0.114026,-0.0725 0.282347,0.01471 0.382968,-0.09285 z m 1.943,-0.061 c -0.194077,-1.094176 -1.876903,-0.679242 -0.502948,0.04957 0.01145,0.148726 0.636288,0.27034 0.502948,-0.04957 z m 5.563,-0.054 c 1.017614,-1.487208 1.167137,-3.22741 1.974632,-4.756317 0.842953,-0.69008 0.995229,-2.263164 -0.303146,-1.076139 -0.32923,1.537358 -1.603533,2.290537 -3.027729,2.6426 -1.336603,0.05986 -2.717563,-0.377999 -3.742312,-1.328449 -1.552912,0.263068 1.00961,1.396309 1.391934,1.938895 0.777564,0.792829 0.44168,0.04371 0.144643,-0.410661 0.838608,0.453812 2.740776,1.047612 3.613576,-0.173709 1.455436,-0.857277 0.0343,1.707419 -0.111045,2.29662 0.01978,1.015669 -1.172597,-0.151763 -0.942019,0.643343 0.437013,-0.243215 0.535092,1.194581 1.001466,0.223817 z m 2.222,-0.258 c -0.05671,-1.285597 -1.752143,0.424797 -0.108339,0.185814 l 0.09064,-0.06883 z m -10.715,-0.921 c -0.301364,-1.331866 -1.312932,1.593734 -0.07842,0.20638 l 0.07118,-0.118526 z m -4.281,0.279 c 0.527743,-1.804858 -1.848841,0.549438 0,0 z m 11.207,-0.245 c 0.601011,-0.320571 1.892732,-1.158607 0.365954,-0.594066 -1.570221,0.68463 -2.88537,-0.584753 -4.262028,-0.411641 0.919188,0.814302 2.646574,1.721225 3.896074,1.005707 z m -11.947,-0.588 c 0.898192,-1.106832 -2.061006,0.01218 -0.336851,0.301307 0.183525,-0.01893 0.213955,-0.2067 0.336851,-0.301307 z m 6.1,-0.132 c 0.718729,-0.183804 2.246167,-1.145357 0.595175,-1.070073 -1.026056,-0.370962 -1.710307,2.372603 -0.595175,1.070073 z m -8.02,-0.061 c -1.025716,-1.37174 -2.468975,-2.461145 -3.059746,-4.103322 -0.341824,-1.2363 -1.001767,0.0731 -0.07848,0.493575 0.670349,1.626691 1.891905,3.002822 3.354178,3.965779 0.275675,-0.02336 -0.277221,-0.272836 -0.215952,-0.356032 z m 18.065,0.165 c -0.330349,-1.288901 -1.276688,0.934686 0,0 z m -12.777,-0.575 c 1.927195,-0.331327 -0.945865,-1.654248 -0.902,-0.051 0.167063,0.410099 0.659159,0.308165 0.902,0.051 z m -4.316,-0.083 c 0.304852,-1.478695 -1.686256,0.471906 0,0 z m 20.78,-0.69 c 0.360991,-1.126293 0.595734,-2.275937 1.534946,-0.848463 0.875518,0.614064 1.143215,-0.419888 0.228484,-0.698372 -0.977481,-2.283923 -3.039236,1.978864 -1.902043,1.857309 l 0.117828,-0.136332 z m -14.383,0.115 c -0.160216,-1.192461 -0.879721,0.424677 0.0011,0.162404 z m 11.337,-0.084 c -0.09269,-1.247685 -1.653146,0.620029 -0.104293,0.165128 l 0.07055,-0.05955 z m -18.44,-0.637 c -1.172683,-0.659012 -0.383317,1.505934 0,0 z m 8.416,-0.456 c 0.433593,-0.414969 1.991551,-1.617302 0.387476,-1.578164 -1.16536,0.0056 -1.348604,3.435962 -0.387476,1.578164 z m 0.56,0.228 c -0.559697,0.08538 0.362437,0.773527 0,0 z m -9.67,-0.32 c -0.420035,-1.23943 -1.511145,0.728679 -0.04755,0.203392 l 0.05084,-0.08296 z m 15.407,-0.094 c 0.807167,-0.111819 3.097317,-2.666352 1.095987,-1.479676 -1.152631,1.070108 -2.917341,1.284443 -3.791793,0.282049 -0.92594,-0.182722 -2.761131,0.167506 -1.018974,0.885615 1.052872,0.542123 2.354191,0.546512 3.487647,0.389506 0.07571,-0.02583 0.151424,-0.05166 0.227133,-0.07749 z m 4.107,-0.035 c -0.229294,-1.455131 -1.645,0.797019 0,0 z m -14.008,-0.324 c -0.454439,-0.75761 -0.395315,0.756537 0,0 z m 14.738,-0.194 c -0.620821,-0.639205 -0.147214,1.155183 0,0 z m -21.125,-0.307 c 0.252453,-1.08192 -1.713583,-0.1511 -0.212826,0.182121 l 0.11015,-0.05214 z m 20.518,-0.35 c 0.401799,-1.196765 -1.32031,0.646008 0,0 z m 6.144,0.083 c -0.08397,-1.158454 -2.031013,-1.848309 -2.757,-2.887 -1.173895,0.782986 1.746009,1.617873 2.065906,2.526252 0.10885,0.237858 0.398623,0.763046 0.691094,0.360748 z m -2.703,-0.392 c 0.227307,-0.66361 -1.189708,-0.526039 -0.999087,-1.423243 -2.082318,-1.030599 0.83334,2.42994 0.999087,1.423243 z m -21.567,-0.55 c 0.737035,-0.32126 1.55411,-1.171337 0.124224,-1.106949 -0.903167,-0.0173 -1.556681,2.786981 -0.124224,1.106949 z m -2.823,0.11 c 0.161379,-1.104749 -1.951605,0.36558 -0.217449,0.187584 l 0.128455,-0.07847 z m 1.34,-0.12 c -0.404142,-1.427065 1.493004,-1.213506 1.937424,-2.162785 -0.905374,-1.022258 -2.601764,1.600444 -3.548419,-0.130659 -0.311311,-0.53364 -1.317501,-0.0069 -1.958005,-0.172381 -0.880462,1.357883 1.527442,-0.43686 1.781613,0.77938 0.674352,0.242699 1.293967,1.959475 1.787387,1.686445 z m 18.317,-0.412 c 0.777922,-0.898592 1.095558,-3.716127 2.508269,-1.645343 1.158384,0.932133 2.805658,-2.222215 0.992973,-0.992199 -1.088583,0.665315 -2.852746,-1.18541 -3.437775,0.816287 0.222747,0.286015 -1.217962,2.99409 -0.06347,1.821255 z m 1.833,0.186 c 0.32817,-1.822184 -1.968779,0.574253 0,0 z m 8.525,-0.693 c 0.827242,-0.468876 0.275726,-1.895039 -0.102311,-0.742334 -0.116767,0.248676 -0.749389,1.706173 0.102311,0.742334 z m -30.504,0.013 c 0.958439,-0.683457 -2.300976,-0.774584 -0.766431,0.107033 0.249881,-0.08699 0.518372,-0.0099 0.766431,-0.107033 z m 22.744,0.003 c 0.16448,-0.847 -1.229372,-0.0028 0,0 z m 6.223,-0.17 c 0.344948,-1.308461 -2.090772,-1.471983 -2.677172,-2.193435 0.769858,-1.196207 1.627205,1.155937 2.239345,-0.212568 1.580647,0.269249 1.410596,-1.877788 1.502666,-2.418402 2.096189,-0.04736 -1.351278,-1.842242 -0.487623,-0.04814 0.187628,1.178575 -1.584173,3.29517 -2.18617,1.522478 -0.906251,-0.506618 -2.377458,-0.470734 -1.760589,0.912745 -1.225173,1.265281 1.966211,1.318407 2.608636,2.236973 0.231718,0.02242 0.581977,0.533039 0.760907,0.200349 z m -23.418,-0.458 c -0.160698,-1.585083 -1.788569,-0.01024 -0.13871,0.139163 z m 25.657,-0.975 c 0.220068,-1.765764 -1.328796,0.666453 0,0 z m -29.705,-0.145 c -0.363994,-0.528594 -0.429732,0.501181 0,0 z m -1.492,-0.701 c 0.09534,-1.526445 -1.641682,-0.914892 -0.545087,0.200234 0.261891,0.379437 0.767298,0.411005 0.545087,-0.200234 z m -1.27,0.212 c 0.206468,-1.31669 -1.984756,0.113741 -0.296852,0.184156 l 0.167851,-0.06356 z m 2.821,-0.306 c 0.93436,-0.164207 3.747417,0.185384 2.346796,-1.337777 -1.039378,0.118787 -2.882467,0.194361 -3.310946,1.100513 0.13779,0.474454 0.612393,0.46962 0.96415,0.237264 z m 29.824,-0.272 c -0.948105,-0.494671 0.07329,1.115647 0,0 z m -6.441,-0.079 c 0.445225,-0.900443 -0.487113,-1.217956 -0.02697,-1.875787 -1.148547,0.263722 -0.83976,-2.725647 -1.866757,-1.303579 -0.523908,0.814698 1.575654,0.576118 0.220553,1.030884 -0.976807,0.271042 -3.046824,0.764093 -2.18715,2.031633 0.920538,-1.014071 3.373836,-1.600098 3.589708,0.162093 -0.225856,0.404605 0.494268,0.310819 0.270616,-0.04524 z m -0.856,-1.786 c 0.244883,-0.638194 0.245644,0.634166 0,0 z m -25.676,1.166 c -0.0921,-1.396924 -2.019569,0.304818 -0.267809,0.176989 0.06502,-0.02582 0.318125,-0.03285 0.267809,-0.176989 z m -0.459,-1.073 c -0.205987,-1.71513 -1.472368,0.922133 0,0 z m 6.156,-0.605 c -0.354786,-0.300637 -0.507732,1.138364 0,0 z m 17.448,0.361 c -0.107825,-1.372469 -1.533759,0.488229 -0.198478,0.09336 z m -19.302,-0.614 c 0.30407,-2.189039 -2.036778,1.018435 0,0 z m -4.388,0.034 c 0.09345,-1.441125 -1.656594,0.05068 -0.222691,0.15483 z m 24.768,-0.218 c 0.90293,-0.721399 -0.457561,-1.684996 -0.56636,-0.292211 -0.302652,0.586268 0.286381,0.719034 0.56636,0.292211 z m 7.817,-0.73 c 1.032046,-1.404394 -1.201475,-0.229987 -0.09045,0.102451 z m -1.996,-1.252 c -0.366266,-1.009365 -0.130792,0.83421 0,0 z m -29.872,-1.253 c 0.35844,-0.710041 -0.01532,-1.246509 -0.06167,-0.199168 -0.07188,0.13558 -0.507093,0.662137 0.06167,0.199168 z m 9.513,10.332 c -0.550155,-0.208744 -2.198323,-1.897828 -0.841514,-1.606545 0.292643,0.165157 1.971561,2.486946 0.841514,1.606545 z m 2.26,-0.369 c -0.340628,-1.217291 2.257951,-1.675519 2.257984,-2.598592 -0.731416,0.08905 -1.863545,1.501241 -2.094081,0.115937 -1.391731,-0.286869 -0.188439,-0.758091 0.405553,-0.08468 0.439411,-0.157713 -1.043311,-0.909223 0.134638,-0.856868 1.490102,-0.24936 -0.49686,-0.961017 0.411416,-1.397764 -0.472374,-0.74492 0.0131,-1.217796 0.367947,-0.361336 0.504895,0.255636 1.038357,0.863287 0.07616,0.791316 0.551297,-0.246889 0.571044,1.938257 1.081783,0.600327 0.286477,-1.267451 1.696386,-0.138065 2.298835,-1.282801 0.586593,-0.429814 0.824669,-1.212119 1.379519,-1.233298 0.536673,-0.129717 1.225342,-0.643044 1.633879,-0.887208 -0.08301,1.522881 -0.865564,3.045857 -2.452282,3.628633 -0.828437,1.108314 -3.444638,-0.450998 -2.191931,1.456433 -1.148676,0.271149 -2.392613,0.938951 -2.826232,2.122447 -0.306429,0.383962 -0.326512,0.0803 -0.483185,-0.01254 z m -0.545,-0.289 c 0.138611,-0.845457 0.222396,0.858388 0,0 z m -0.56,-0.556 c -1.327509,-0.642433 -0.205454,-2.737694 -0.233982,-3.082316 -1.426105,-0.419961 1.205132,-1.287913 0.659003,-0.01675 -0.139969,0.923189 -0.641559,1.090106 0.01052,1.89977 -0.0016,0.407946 0.409682,1.578981 -0.435544,1.199291 z m -2.048,-0.703 c -0.528883,-1.590618 1.830118,0.0033 0,0 z m 2.976,-0.134 c -0.06041,-0.770831 0.604249,0.589183 0,0 z m 0.246,-3.102 c 1.217369,-0.263069 0.200485,0.437878 0,0 z m -2.843,-0.328 c 0.354337,-0.366863 0.328528,0.587662 0.01233,0.108243 z m 1.094,-0.032 c -0.52126,-1.13467 1.128102,-3.426447 0.940274,-1.408235 0.18345,0.526308 -0.145381,2.207866 -0.940274,1.408235 z m 3.626,-0.417 c -0.534218,-0.695573 0.312513,-1.701105 0.679869,-0.63609 0.187546,0.28132 -0.636748,1.07451 -0.679869,0.63609 z m 1.105,0.032 c -0.889392,-0.457469 1.696684,-0.742515 0.02804,-1.167655 -1.081687,-0.902182 2.131025,-1.077332 1.255933,0.276668 1.736868,-1.551255 -0.585947,1.597408 -1.283973,0.890987 z m -7.517,-0.43 c -0.360945,-1.236827 1.497324,0.382729 0,0 z m 20.832,-0.22 c -0.190152,-0.999182 0.486353,0.209657 0,0 z m -26.9,-0.362 c -0.05469,-0.675765 1.018523,0.222773 0,0 z m 19.435,-0.641 c -0.425887,-0.927398 0.784769,0.02808 0,0 z m -2.43,-0.203 c -0.780595,-0.4891 -2.921656,0.0264 -2.995478,-1.201993 1.124855,-0.452289 2.714546,1.077114 3.05632,-0.09793 1.187666,0.15455 0.868516,1.615943 -0.06084,1.299918 z m -19.252,-0.593 c -0.06038,-1.304315 0.928501,0.843928 0,0 z m 14.68,-0.096 c -0.906704,0.04222 -1.771944,-0.737657 -0.388178,-0.939409 0.849473,-0.08018 2.452513,0.905026 0.388178,0.939409 z m 6.054,-0.317 c -1.954299,-0.586761 -0.100682,-3.296361 1.084064,-1.720899 -0.08218,0.464598 -2.014731,-0.257064 -1.371634,0.8277 1.671822,0.946542 2.641553,-1.047511 2.567215,-2.318607 0.989061,-0.44592 3.248382,2.288816 1.373635,1.762044 -0.705311,-1.693215 -1.94568,1.409543 -3.027582,1.716541 -0.253532,0.0817 -0.41776,-0.195625 -0.625698,-0.266779 z m 2.95,-2.335 c 0.07983,-1.510434 -1.331107,0.569212 0,0 z m -11.929,1.84 c -0.635491,0.04426 -2.302785,-0.88241 -0.963503,-1.122329 0.47726,0.942285 1.524428,-0.120707 1.600486,-0.200341 0.360979,0.264771 -0.24419,1.812342 -0.636983,1.32267 z m 3.831,-0.256 c -1.265801,0.06181 -0.948693,-1.820367 0.01294,-0.562788 0.444989,0.06461 0.471737,1.190015 -0.01294,0.562788 z m -10.143,-0.23 c -0.123412,-0.60554 1.013955,-2.895475 1.071035,-1.393357 -7.28e-4,0.441582 -0.726848,1.658458 -1.071035,1.393357 z m 26.522,-0.176 c -0.816156,-0.411322 -1.464757,-1.33111 -2.459759,-0.918626 1.198306,-0.406995 1.746744,-2.099621 2.972755,-1.747323 -0.679821,-0.579138 -0.903537,-0.787241 -0.38184,-1.619516 -0.18424,-0.47133 -1.019748,-1.899303 -0.01059,-0.873476 0.48482,1.448814 1.183611,2.628664 1.558443,4.065493 1.174972,0.04152 0.133544,1.586124 -0.202272,0.381168 -0.49956,0.301919 -0.496194,1.425446 -1.476737,0.71228 z m -15.574,-0.289 c -1.278236,-0.940379 1.543251,-0.379907 0.512561,-1.554177 -0.447253,0.268937 -1.304208,-0.007 -0.512561,-0.410297 -1.214609,-0.445372 2.075363,-1.16853 0.639,4.23e-4 0.924485,0.438142 0.611564,2.978986 -0.639,1.964051 z m -14.224,0.06 c 0.291261,-0.829954 0.831656,-2.398124 0.939891,-0.592663 0.367244,0.667873 -0.466949,0.902785 -0.939891,0.592663 z m 12.806,-0.92 c -0.09355,-0.836323 0.71404,0.333717 0,0 z m 18.9,-0.399 c 0.05862,-1.349831 -1.350554,-2.934968 -1.043728,-3.904684 0.685246,1.219029 1.569561,2.770843 1.209257,4.042339 l -0.165533,-0.137655 z m -12.336,-0.169 c -0.204749,-0.464669 -2.468854,0.05451 -1.296914,-0.872336 0.728229,-0.773979 2.312109,1.480987 1.296914,0.872336 z m -17.039,-0.307 c 0.30977,-0.445139 0.457472,-1.37861 0.855946,-1.842045 1.329217,-0.05505 -0.703062,1.152384 -0.07076,1.963928 -0.217754,0.240249 -0.583709,0.02726 -0.785186,-0.121883 z m 14.13,-0.1 c -0.509222,-0.461123 -0.856911,-0.920407 0.190043,-0.68376 0.603225,0.152083 -0.145247,1.315346 -0.190043,0.68376 z m 3.682,-0.26 c -0.203976,-0.667552 -1.961788,-2.039035 -0.317751,-1.236676 0.0359,0.369418 1.471372,2.11494 0.317751,1.236676 z m 2.149,0.03 c -1.336245,-0.476281 0.110255,-0.604332 -0.20288,-1.365327 -0.363421,-0.447357 -2.368748,-1.989842 -0.810215,-1.331073 1.013814,0.576354 1.136309,1.614902 1.198139,2.389567 1.076554,0.135758 -0.08189,0.92007 -0.185044,0.306833 z m -11.365,-0.053 c 0.55161,-1.467576 1.627728,0.618496 0,0 z m -4.25,-0.28 c -0.597186,-0.485283 1.169768,-0.486093 0.461213,-1.300411 0.976249,-1.548883 1.442274,1.393947 2.302723,-0.04366 0.651622,-1.18059 2.457569,0.624633 0.64961,0.737201 -0.61286,1.554263 -1.434383,-1.154574 -2.617796,-0.114386 0.51679,0.519404 -0.330951,1.083371 -0.79575,0.721258 z m -2.417,-0.424 c 0.377775,-0.518769 -0.391513,-2.388477 0.531709,-1.165137 -0.04355,0.323825 0.136546,1.709533 -0.531709,1.165137 z m 16.942,0.004 c -0.254434,-0.96841 0.689245,0.112197 0.0141,0.08825 z m -20.473,-0.166 c -0.144197,-1.307808 3.002276,-1.049816 1.229008,-0.260348 -0.276061,0.0294 -1.099715,0.781664 -1.229008,0.260348 z m 11.962,0.08 c 0.533709,-1.068331 2.468568,-1.129741 3.541506,-0.778957 1.162582,0.04133 0.669548,0.647758 -0.28506,0.395763 -1.071519,-0.216739 -2.195416,0.55743 -3.256446,0.383194 z m 12.896,-0.553 c -0.692973,-0.534039 -1.240109,-1.088316 -0.02556,-0.425055 0.632568,-0.02753 2.099448,-2.315033 2.234921,-1.333563 0.25065,0.320082 1.147286,0.215779 -0.05398,0.708806 -0.969327,-0.176259 -1.388527,2.144768 -2.155381,1.049812 z m -7.635,-0.006 c 0.08752,-1.303116 1.561953,-0.731257 0.252901,-0.0043 l -0.139634,0.03838 z m -18.963,-0.567 c 0.430952,-1.167479 0.550598,0.61854 0,0 z m 13.272,-0.35 c 0.384146,-0.89423 1.959887,-0.208328 2.632684,-1.155092 1.199552,-0.02055 -0.751071,0.239657 -0.547034,0.873131 -0.485421,0.356011 -1.631719,0.592819 -2.08565,0.281961 z m -3.506,-0.107 c -0.506481,-1.186941 1.601275,-0.873853 0.192571,0.0085 l -0.108935,0.03389 z m 8.947,-0.086 c -0.412513,-0.867701 0.61222,-0.08171 0.03339,0.08712 z m 1.316,-0.092 c 0.374452,-0.84108 0.418461,0.857264 0,0 z m -19.638,0.071 c -0.3736,-0.679264 1.556102,-1.820469 0.539147,-0.52456 -0.117798,0.174846 -0.211571,0.832796 -0.539147,0.52456 z m 16.171,-0.149 c 0.611494,-0.809321 1.002917,0.810558 0,0 z m -12.727,-0.082 c 0.251778,-0.543208 1.073338,-3.244467 1.088139,-1.554323 -0.667302,0.580092 0.350645,2.248318 -1.088139,1.554323 z m 16.889,-0.331 c -0.337166,-0.394017 -2.614825,-0.565856 -2.053,-1.132 0.323507,-0.06527 3.731083,1.10145 2.053,1.132 z m 10.375,-0.35 c -1.0429,-1.15844 -1.469601,-2.904171 -2.975202,-3.570825 C 74.453059,9.1937689 73.083035,8.1261712 71.55128,7.4020102 70.321888,6.675393 69.062928,6.1677452 67.581194,5.8181704 66.382991,5.1190932 64.627096,5.4627082 63.612903,4.8760476 61.716666,4.7710723 59.855729,5.070429 58.013197,5.3017612 56.18311,5.7747816 54.361908,6.6070192 52.904867,7.764385 51.26471,8.6995779 53.425004,6.332813 54.117175,6.3622954 55.56603,5.2784112 57.249107,5.0931839 58.792533,4.5180287 c 1.822559,-0.234732 4.733643,-0.3652634 6.326263,0.1373473 1.26221,0.6781999 3.113489,-0.082394 4.3825,0.9643416 1.470025,0.6250426 3.033809,1.4475477 4.344792,2.4369517 0.962996,1.240366 2.483694,1.7910823 3.339073,3.1196797 0.612377,0.784203 1.96208,2.170654 1.481434,3.032992 z m -6.21,-0.032 c 0.430827,-1.340138 -1.586337,-0.433961 -1.303586,-1.525366 0.705311,0.592905 1.302593,0.751393 1.331227,-0.331603 0.743204,-0.603197 2.021634,-0.799969 2.389265,-0.09729 -0.39326,0.952638 -0.96898,1.336072 -1.066395,0.08779 -0.848121,-0.313166 -1.115582,1.30037 -0.508913,1.389327 -0.436895,0.135817 -0.236328,1.08266 -0.841598,0.477142 z m 1.817,-0.035 c 0.872142,-1.151136 0.216153,1.087548 0,0 z m -9.436,-0.057 c -0.0542,-0.980726 0.916998,0.653748 0,0 z m 11.687,-0.366 c 0.05967,-2.294887 2.186886,1.516993 0.0085,0.225832 z m -14.361,0.143 c 0.141566,-0.770596 2.095005,-1.500762 1.786701,-0.628424 -0.556692,-0.378891 -1.414805,1.210615 -1.786701,0.628424 z m 7.35,-0.015 c 0.470954,-0.335424 0.270112,0.633884 0,0 z m -11.913,-0.265 c -0.985864,-0.416902 -0.733205,-0.166698 0.01499,-0.493702 0.411258,-1.41335 0.760617,1.371263 -0.01499,0.493702 z m -8.541,-0.107 c -0.215559,-1.262184 1.473039,-2.146754 2.043049,-3.3732164 0.358388,-0.6860158 2.406703,-1.8093075 0.940614,-0.541075 -0.820213,0.9521284 -1.771945,2.0027414 -2.171935,3.0876624 0.706228,0.244799 -1.22931,1.196968 -0.811728,0.826629 z m 7.35,-1.103 c 0.668044,-1.333211 0.232792,0.907322 0,0 z m 19.624,-0.275 C 74.775527,10.811593 73.515723,9.7319475 72.196808,8.789505 71.389594,8.3951596 70.890475,7.4791171 72.160288,8.3316398 c 1.690807,0.8181669 2.911976,2.3019452 4.247419,3.4732942 0.231818,0.479537 -0.304891,0.365559 -0.468411,0.09978 z m -1.725,-0.849 c 0.140103,-0.843468 0.220029,0.859422 0,0 z m -7.264,-0.233 c -0.324355,-0.9576694 1.350975,0.827121 0,0 z m 1.345,0.082 c -0.392821,-1.0792354 1.877799,-0.672442 0.612233,0.154799 -0.214756,0.05713 -0.438026,-0.03508 -0.612233,-0.154799 z m -5.089,-0.745 c 0.278982,-0.4986625 1.270176,-0.1856534 1.30417,-0.9377634 0.857438,0.533551 -0.981789,1.4089604 -1.30417,0.9377634 z m 6.107,-0.2760004 c -0.867943,-1.5055213 1.307614,-0.5312658 0.511476,0.1633654 -0.248415,0.02329 -0.634513,0.379886 -0.511476,-0.1633654 z m -3.486,-0.134 c -0.72871,-0.9712244 1.810712,0.149938 0.04652,0.105161 z m -10.47,-0.252 c 0.46897,-0.3115186 1.590713,0.378904 0.300157,0.1843249 -0.106731,0.060523 -0.360761,-0.020918 -0.300157,-0.1843249 z m 15.686,-0.147 c 0.654839,-1.2187497 -0.0077,1.1198714 0,0 z m -8.388,-0.214 C 60.82663,9.0815876 63.061199,8.5195467 63.355627,8.99228 63.200803,9.2311538 62.900773,9.3342603 62.655296,9.1367176 Z m 1.89,-1.039 c 0.511016,-1.2631618 1.119164,0.7909805 -0.09798,0.2507004 l -0.0096,-0.1031292 z m 5.572,-0.339 c 0.256897,-0.7143567 0.986996,0.516306 0,0 z m -1.017,-0.54 c 0.753918,-0.8867313 0.596276,1.1756393 0,0 z m -0.825,-0.178 c -0.543111,-0.8261378 1.168473,-0.00989 0,0 z m -12.421,-0.107 c 1.177205,-0.926132 2.988539,-0.8747373 4.551123,-1.1568508 0.763807,-0.6343724 1.893072,0.2478649 0.564072,0.416477 -1.335395,0.2559328 -2.732506,0.2797531 -3.947467,0.4755448 -0.44362,-0.1009161 -0.728892,0.6085352 -1.167728,0.264829 z m 10.956,-0.23 C 66.212821,6.4166415 63.191797,6.4691901 65.019229,5.9825337 c 0.654712,0.4204691 2.494314,-0.097391 2.444572,0.8305879 -0.22533,0.1915004 -0.451911,-0.00625 -0.653505,-0.109404 z m -3.454,-0.628 c 0.228902,-1.0540298 1.07536,0.1826152 0,0 z m -1.482,-0.102 c 0.382428,-0.8267586 1.902088,0.071434 0.402023,0.184465 -0.09821,0.095768 -0.495788,0.03753 -0.402023,-0.184465 z"
     style="fill:#868158" />
  <path
     id="path3874"
     d="m 60.192296,39.390718 c -1.743751,-0.585533 -3.18617,-1.370238 -4.871379,-1.819208 -1.149616,-0.233542 -1.609722,-1.612336 -2.938777,-1.662205 -1.322774,-1.191359 0.579608,-0.447405 1.050257,0.09515 0.804053,-0.01074 1.418524,-0.202501 0.710716,0.373889 1.417298,-0.07692 2.607452,0.863109 3.937125,1.418201 1.297044,0.490209 2.73823,0.619149 4.046187,0.875927 1.663121,-0.284096 2.89653,-0.04162 4.452012,-0.246848 1.439748,-0.306136 2.904759,-0.395487 4.102357,-1.197921 0.870528,0.236975 0.74817,-1.161565 1.827201,-0.57252 0.428213,-1.282971 2.067687,-1.416526 2.936991,-2.607285 1.172917,-1.243532 2.334614,-2.655168 3.169463,-4.018404 0.569676,-1.476487 1.887469,-2.846943 1.662711,-4.572708 0.499392,-0.979787 0.225497,1.078755 0.295095,1.514305 0.128944,1.172782 -0.693517,1.642466 -0.930761,2.76521 -0.832666,1.357934 -1.883503,2.525625 -2.860856,3.756295 -0.814374,0.858788 -1.727131,1.905393 -2.761498,2.652455 -1.390511,1.234666 -3.052803,1.542104 -4.674868,2.221692 -1.017606,0.470479 -1.815195,0.779812 -2.900487,0.811976 -0.837163,0 -1.674326,0 -2.511489,0 -0.341195,0.878128 -1.691425,0.246856 -2.495418,0.426 -0.370697,-0.102557 -1.148538,0.229493 -1.244582,-0.214001 z m 1.764,-1.585 c -0.789336,-0.675192 -2.89055,-0.13407 -2.303271,-1.461031 -1.221249,-0.464652 0.342924,-1.590898 0.782085,-0.344238 1.613894,1.57118 3.502234,0.823072 5.184821,-0.339731 0.51885,0.566764 -0.837584,1.624979 0.668476,1.416834 0.719191,-0.192839 -0.379682,-1.374325 0.753889,-1.440834 0.04439,-0.996512 0.672793,-3.157741 1.572706,-3.130267 -0.31585,0.852253 -1.277147,2.48442 0.396486,1.754098 0.387482,-0.725483 1.755493,-0.344084 0.551894,0.253938 -0.713239,0.119844 -2.990007,0.574055 -1.296033,1.274888 0.411267,-0.04645 1.595053,-1.269726 1.185947,-0.09564 -0.466308,1.615293 1.295915,-0.298398 1.206146,-1.129106 0.842289,-1.334552 0.979884,-3.10394 2.066108,-4.28312 0.875078,0.05815 -0.974738,1.502585 -0.596061,2.390244 -0.773266,1.169654 -0.698124,2.912944 -1.891193,3.771982 0.224508,1.103217 -1.177647,-0.149147 -1.511644,0.751824 -1.378814,-0.102748 -2.7,0.793122 -4.146234,0.08356 -0.854378,0.192472 -1.747094,0.750842 -2.624122,0.526599 z m 3.012,-0.825 c 0.923323,-0.833725 -1.254367,0.07995 -0.160586,0.116526 z m 2.697,-0.6 c -0.0967,-1.34546 -0.09358,1.638054 0,0 z m -9.098,0.652 c -0.03331,-1.0043 1.47206,0.230629 0.06189,0.201643 z m -0.9,-0.482 c 0.342238,-0.906471 1.892737,-0.347395 0.498155,0.08631 -0.09011,-0.01403 -0.449618,0.124622 -0.498155,-0.08631 z m -0.96,-0.36 c 0.462562,-0.421226 1.702766,-2.59169 2.018749,-1.226713 -0.977057,-0.09902 -1.139247,1.695686 -2.018749,1.226713 z m 6.148,-0.32 c -0.860064,-0.777167 -2.384063,-1.603321 -2.935163,-2.323147 0.889404,-0.645684 1.269707,0.92264 2.377072,0.989806 0.677856,0.6868 0.713671,0.664607 1.465786,0.299296 0.762292,0.546511 2.912914,-1.483466 2.309277,0.09004 -0.782605,-0.204122 -2.29058,1.01949 -3.216972,0.944005 z m -6.973,-0.067 c -0.556838,-1.055253 1.019173,0.112714 0,0 z m -2.661,-0.272 c -1.181072,-1.057368 -2.353634,-2.126366 -3.365276,-3.35791 -0.490089,-0.398074 -1.762569,-2.315726 -0.414115,-1.20163 0.409107,1.14872 1.718416,1.50822 2.151391,2.66354 0.610612,0.02208 0.446643,1.087744 1.322311,0.669483 -0.36337,0.808574 1.52626,0.854061 0.523913,1.364942 z m 1.569,-0.404 c 0.931217,0.06028 0.798642,-2.217541 1.486331,-0.912698 1.276145,0.99364 1.481805,-2.737897 -0.309545,-1.822625 -1.058496,-0.04634 -0.702669,3.023436 -1.130657,1.617174 0.117914,-1.159822 -0.746581,-0.833758 -0.939476,-0.009 -0.309454,-0.881953 -2.192346,-2.335726 -1.506646,-2.9524 0.347624,0.972364 1.377051,0.828017 1.254535,1.886184 1.492497,0.4827 -0.43638,-1.755205 1.094898,-1.204158 0.871687,-0.419043 2.97728,-1.093549 2.855098,0.588944 1.000536,1.647474 -1.289662,3.397228 -2.804538,2.922259 v -0.09932 z m 0.825,-2.945 c 0.860366,-0.712231 -1.363074,0.01826 0,0 z m 1.625,-0.191 c 0.469799,-0.863731 -1.674979,-0.195976 -0.363833,0.06042 z m 14.49,3.256 c 0.736037,-0.666749 0.675183,-2.282547 1.782194,-1.754927 1.7346,-0.34447 -0.830433,0.818116 -0.92811,1.51551 -0.114037,0.03382 -0.85046,0.596187 -0.854084,0.239417 z m -11.565,-0.425 c -1.009523,-1.365836 1.659012,0.821937 0,0 z m -9.743,-0.767 c -1.170797,-0.851314 -2.009531,-1.973197 -2.962928,-3.10509 -0.04769,-1.781314 -1.569534,-2.874916 -2.045072,-4.445642 0,-3.371423 0,-6.742845 0,-10.114268 0.497274,-0.258158 1.585476,-2.717597 1.140662,-0.775935 -0.93162,1.371643 -0.671932,3.069599 -0.88417,4.558689 0.04813,1.283526 2.66e-4,3.525609 0.646037,3.960307 -1.190611,0.79781 1.331691,1.012111 0.09204,1.573694 0.0586,0.753092 1.414117,0.814397 0.201669,1.273167 0.656154,1.749499 0.972195,3.416453 2.119486,5.03227 0.622268,0.854605 2.78996,2.313112 2.44523,2.687745 -0.342434,-0.08882 -0.519988,-0.415177 -0.752954,-0.644937 z m 8.494,0.4 c -0.302774,-1.101223 1.623369,-0.338359 0,0 z m 3.81,-0.616 c -1.182593,-0.727069 -2.53719,-2.008247 -3.86127,-0.914742 -0.354036,0.513458 -0.837008,1.322052 -0.640687,0.196695 1.078769,-0.233154 -0.596092,-2.704452 0.650498,-1.643684 0.1526,2.036353 2.345625,-0.502594 3.079458,1.144728 0.877265,1.626788 2.539577,0.526641 3.94893,0.537687 0.589336,-0.597161 1.659926,-1.02634 0.841321,0.148934 0.06678,0.987811 -1.059293,-0.310701 -1.518164,0.469874 -0.820761,-0.05363 -1.788067,0.49714 -2.500086,0.06051 z m 6.393,-0.344 c -0.831059,-0.753068 1.549475,-0.580757 0.269814,0.144899 z m -16.866,-0.26 c 0.723048,-0.958365 0.440089,0.662571 0,0 z m 22.22,-0.08 c -0.310526,-0.984107 -0.674105,-1.512086 -0.955887,-0.416511 -1.12884,0.921465 -0.0805,-2.988689 0.581553,-0.888048 0.5945,0.09111 2.26357,0.766472 0.880304,1.072194 0.360191,0.405861 -0.712662,0.813928 -0.50597,0.232365 z m -4.262,-0.203 c -0.310754,-0.716666 -0.734739,-1.079491 -1.415178,-0.821574 0.254995,-0.983411 1.871549,-0.568215 1.639532,0.354061 0.222208,0.195101 0.165994,0.789351 -0.224354,0.467513 z m -18.77,-0.57 c 0.532248,-0.559519 0.315952,0.518034 0,0 z m 12.657,-0.077 c -0.474,-0.177306 -2.650411,-0.826688 -1.776792,-1.126912 1.508497,0.579062 3.469684,0.839199 4.788045,-0.334491 0.371963,-0.898057 1.218812,-0.880912 0.408701,0.0495 -0.663375,1.156597 -2.414683,1.57997 -3.419951,1.411906 z m 3.8,-0.083 c 0.6979,-1.404516 1.445295,-3.133254 3.112492,-3.148243 0.331128,-1.780765 1.725576,1.408604 0.463783,0.09198 -0.891171,0.562274 -2.135293,0.168507 -2.177162,1.63392 -0.428391,0.266293 -0.815956,1.782388 -1.399113,1.422343 z m 8.269,-0.166 c -0.26749,-0.472743 -2.024569,-1.335065 -0.712038,-1.408233 0.07202,1.209979 1.892735,-1.922402 1.707199,-0.127359 -0.912323,-0.176356 0.270967,1.164555 -1.000207,0.567062 -0.120928,0.09915 0.36905,1.328658 0.005,0.96853 z m -25.213,-0.66 c 0.364065,-0.5283 0.429461,0.500909 0,0 z m 8.976,-0.027 c 1.328729,-0.999746 0.440911,0.702003 0,0 z m 11.107,-0.2 c -0.126493,-2.066073 0.66057,0.263793 0,0 z m -18.165,-0.072 c 0.193009,-0.811998 1.692064,-0.937219 0.597901,-0.08661 -0.124512,0.119019 -0.447977,0.290495 -0.597901,0.08661 z m -2.93,-0.34 c 1.160338,-0.422928 0.186912,0.555962 0,0 z m 19.94,0.035 c -0.160645,-1.111119 1.423491,0.217461 0,0 z m -18.32,-0.103 c -0.336407,-1.369409 1.171473,-0.646966 0.164971,0.06705 z m 12.643,-0.227 c -0.09674,-1.268952 2.509396,-0.265008 3.211974,-1.406952 0.59618,-0.63112 1.709248,-1.37275 0.826251,-0.107863 -1.171056,0.766065 -2.550172,2.074903 -4.038225,1.514815 z m 10.06,-0.265 c -0.984039,-1.126164 0.943716,-0.03458 0.356087,0.310297 l -0.152092,-0.117326 z m -18.726,0.033 c -0.364313,-1.204444 1.494779,0.77992 0.01269,0.0903 z m -7.198,-0.124 c 0.31018,-1.192381 0.858932,0.87023 0,0 z m 4.495,0.144 c -0.841898,-1.595068 1.309252,-1.426385 1.757676,-0.520734 -0.483579,0.427571 -1.762671,-1.017032 -1.708109,0.623917 l -0.04957,-0.103183 z m 5.103,-0.016 c -0.196219,-0.837343 0.620746,0.08566 0,0 z m 17.22,-0.255 c -0.958994,-1.272606 1.363823,0.754967 0.159334,0.173822 z m -14.01,0.102 c -1.42877,-0.09071 -0.195618,-1.307069 0.177787,-0.293107 0.169161,0.06248 -0.03381,0.520052 -0.177787,0.293107 z m -10.187,-0.124 c -0.457416,-0.742208 0.74091,-2.154857 0.247328,-0.773541 -0.325378,-0.102964 -0.136394,1.192815 -0.247328,0.773541 z m 11.072,-0.154 c 0.522252,-0.493626 0.848294,0.573238 0,0 z m 0.853,-0.062 c 0.637147,-1.128666 1.396218,0.733454 0,0 z m 14.187,-0.576 c -0.740758,-0.553671 1.270483,-0.453628 1.202942,-1.372855 0.353561,0.688388 0.05855,2.293143 -1.202942,1.372855 z m -29.183,-0.073 c -0.728226,-0.921674 1.139401,-0.280701 0.148402,0.181408 z m 6.792,0.108 c -0.746021,-0.556521 -0.654166,-1.468797 0.215183,-1.58728 -0.139115,0.200828 0.169873,2.082296 -0.215183,1.58728 z m 19.364,-0.026 c -1.053596,-1.54961 1.738061,0.78667 0,0 z m -14.57,-0.064 c 0.31421,-0.950224 0.367855,0.569644 0,0 z m 9.63,-0.273 c 0.494524,-0.675954 1.261415,-2.89387 1.73594,-1.78449 -1.513171,0.382319 0.846192,1.373625 -0.609877,1.277911 -0.147729,0.276556 -1.202358,1.452606 -1.312209,0.712497 0.06205,-0.06864 0.124097,-0.137279 0.186146,-0.205918 z m -20.377,0.011 c -0.28259,-0.918328 1.166631,0.325947 0,0 z m 24.28,-0.377 c -0.0849,-0.629657 -2.518232,-0.40872 -1.580139,-1.091548 1.382924,1.383716 2.031229,-2.364805 2.65734,-0.581912 0.72979,0.202491 2.592175,0.627948 2.284494,1.402279 -1.084859,-0.415792 -2.50485,-1.370032 -3.463804,-0.615293 0.149291,0.554398 1.571886,0.975726 0.208292,1.069858 z m -10.18,0.043 c 0.209027,-1.229103 1.69559,0.50988 0,0 z m 2.693,0.028 c -2.703726,-0.639264 2.900956,-0.411094 0,0 z m -7.637,-0.44 c -0.757272,-0.857296 0.353882,-1.788557 0.443557,-0.331116 0.339647,0.457978 -0.200142,1.009945 -0.443557,0.331116 z m 17.252,0.225 c -1.041565,-0.940316 0.786657,-0.293152 0,0 z m 1.599,-0.022 c 0.360879,-0.526637 0.432403,0.497718 0,0 z m -29.408,-0.483 c -0.213007,-0.818452 0.757969,0.249601 0,0 z m 4.637,0.056 c 0.721158,-0.445792 0.367513,0.507788 0,0 z m 1.151,-0.031 c -0.272315,-1.208995 -0.747783,-1.75337 -2.056,-1.679 1.019125,-0.753804 2.518755,0.01584 2.274518,1.28263 0.384862,0.200297 -0.04773,0.77165 -0.218518,0.39637 z m 13.962,-0.182 c 2.032661,-1.005935 -1.111095,1.181137 0,0 z m -2.873,-0.057 c -0.41899,-1.160879 1.042031,0.908783 0,0 z m 14.377,0.103 c 0.917521,-1.188577 -2.425393,-1.233059 -0.580778,-1.876078 1.528706,-0.490477 0.407878,-2.604295 1.908992,-2.578975 1.324458,-0.273257 -0.47361,0.418504 -0.218683,1.128561 0.0051,0.894729 -0.420262,0.924604 -0.174785,1.74058 -0.44117,0.16369 -1.192714,-1.184401 -1.035319,0.06912 1.775661,-0.09059 0.36577,1.788052 0.100573,1.516794 z m -29.058,-0.587 c -0.879911,-0.982169 1.029411,-0.176926 1.04602,-0.0034 -0.270063,0.423067 -0.808867,0.487624 -1.04602,0.0034 z m 12.296,0.115 c 0.449401,-0.513698 0.496863,0.516108 0,0 z m -7.597,-0.119 c -0.26342,-1.136996 1.512468,0.363123 0,0 z m 23.258,-0.094 c 0.323753,-0.796076 0.343775,0.796395 0,0 z m -6.072,-0.907 c -0.648041,-1.092145 1.800043,1.053415 0,0 z m -22.365,-0.346 c 0.06713,-1.274382 0.644825,1.336572 -0.01096,0.235747 z m 13.759,0.31 c 0.139956,-1.242299 1.689215,-0.597194 0.528259,-0.01091 l -0.381259,0.09891 z m -9.51,-0.612 c -0.30988,-1.129148 0.832595,0.561643 0.05448,0.150768 z m 8.847,0.068 c 0.134107,-0.946818 0.202371,0.713361 0,0 z m 2.47,-0.166 c 0.822284,-0.784268 -0.145664,1.043152 0,0 z m 5.639,0.17 c 0.125782,-1.343821 2.233707,-0.248558 2.250906,-0.843836 -0.302382,1.473601 -1.46985,0.146552 -2.250906,0.843836 z m -22.829,-0.17 c -0.240834,-1.314804 0.720815,0.104679 0,0 z m 29.422,-0.458 c 0.475128,-1.539928 1.696985,0.406907 0.03595,0.205328 l -0.03595,-0.20528 z m -28.126,0.04 c -0.657255,-0.725729 0.61455,0.336016 0,0 z m 16.857,-0.08 c 0.812348,-0.902751 0.19604,0.537848 0,0 z m 3.7,0.015 c -0.239481,-1.28883 1.053882,0.293225 0,0 z m -19.58,-0.168 c 0.918136,-0.800837 0.256339,0.76458 0,0 z m 25.927,-0.25 c 0.965651,-1.528498 1.135259,0.178341 0,0 z m -23.655,-0.325 c 0.702818,-0.547146 0.597874,0.476033 0,0 z m -3.888,-0.32 c 0.629002,-0.60576 0.655776,0.507003 0,0 z m 16.726,-0.04 c 0.259158,-0.957032 0.558966,0.620562 0,0 z m -2.663,-0.008 c 0.552138,-0.672933 1.593819,-0.285516 0.425721,0.06641 l -0.252068,-0.01898 z m 11.586,-0.455 c -1.69132,-1.005772 2.486495,-0.0027 0.382975,0.210254 l -0.186419,-0.102447 z m -24.051,-0.004 c 0.194239,-1.054466 1.303401,0.701721 0.0032,0.163616 z m 2.202,0.117 c -0.290015,-0.918378 1.180747,0.13426 0,0 z m 19,-0.063 c 0.701789,-1.293077 1.43419,0.594918 0,0 z m -1.892,-0.118 c -0.86064,-1.143162 1.335136,0.204913 0,0 z m -11.083,-0.193 c -0.359649,-1.338592 0.822592,0.299638 0,0 z m 19.722,-0.148 c 0.05397,-0.71791 1.174363,-2.804436 1.585612,-1.850487 -0.472,0.622396 -0.783431,1.06655 -1.122686,1.419416 0.391145,0.321026 -0.380075,0.934587 -0.462926,0.431071 z m -15.191,-0.215 c -1.060394,-1.342213 2.266148,0.587635 0,0 z m 14.053,-0.093 c 0.02396,-0.959822 0.637141,0.6145 0,0 z m -5.74,-0.38 c 0.209992,-0.916314 0.04632,1.022651 0,0 z m 8.227,0.214 c 0.550639,-0.585102 0.826152,0.570423 0,0 z m -6.228,-0.206 c 0.03568,-0.584909 0.608301,0.367121 0.0093,0.01521 z m 7.463,0.023 c -0.666164,-0.02304 -0.619186,-1.200122 -0.141354,-0.266354 0.04509,0.02013 0.995078,0.460541 0.141354,0.266354 z m -5.424,-0.346 c -0.631169,-0.04113 -1.761085,-1.77313 -0.550747,-0.803556 0.226017,-0.06071 1.224456,1.642707 0.550747,0.803556 z m -3.996,-0.345 c 0.550979,-0.950581 0.215889,0.758072 0,0 z m -6.934,0.05 c -1.138591,-0.205311 -1.235673,-1.125957 -0.01584,-0.52901 0.558931,-0.06762 0.707511,0.862306 0.01584,0.52901 z m -16.097,-0.114 c 0.383481,-0.991493 2.968162,-0.281564 2.357596,-0.129831 -0.804714,-0.420813 -1.656194,0.194919 -2.357596,0.129831 z m 24.29,-0.117 c -1.088393,-1.383373 1.045724,-0.520385 0.246356,0.263421 l -0.117731,-0.06224 z m 2.938,-0.179 c -0.496885,-0.958388 1.972226,0.292252 0.203701,0.156105 l -0.119425,-0.05853 z m -13.726,-0.003 c 0.03182,-1.025105 1.187275,0.309282 0,0 z m 6.211,-0.092 c -0.826659,-0.210075 -0.795219,-1.114218 0.01242,-0.436554 1.23834,-0.643083 0.564598,0.727038 -0.01242,0.436554 z m -7.449,-0.15 c 0.254801,-0.869956 1.739208,0.139314 0.213479,0.07384 z m 17.623,-0.147 c -0.172021,-0.963152 1.027819,0.886511 0,0 z m 2.288,-0.027 c 0.441729,-0.458599 0.280764,0.663246 0,0 z m -21.84,-0.444 c -0.915126,0.153659 -1.768283,-0.910803 -0.390668,-0.484011 0.787562,-0.04289 1.480862,-0.406693 0.675396,0.578531 -0.109059,0.0058 -0.195052,-0.04893 -0.284728,-0.09452 z m -10.728,-0.048 c -0.34635,-0.787209 0.54698,0.09174 0.0011,0.0014 z m 26.51,-0.052 c -0.575327,0.173607 -2.249043,-0.89067 -0.847794,-0.558683 0.491999,5.56e-4 2.219021,1.000661 0.847794,0.558683 z m -4.998,-0.32 c 0.642664,-0.910453 0.281745,0.839361 -0.336916,0.364519 l 0.103184,-0.120766 z m 7.007,0.275 c -0.974174,-0.532156 1.999902,-0.352377 0.350957,0.09177 -0.06613,0.01072 -0.448499,0.140873 -0.350957,-0.09177 z m -29.404,-0.423 c 0.559142,-1.17614 0.466672,1.168587 0,0 z m 14.88,0.142 c -0.451327,-0.978796 1.660305,0.532754 0,0 z m 17.244,-0.139 c -0.325681,-0.972801 1.469721,0.311215 0.105783,0.137678 z m -3.562,-0.259 c -0.581417,-1.063166 0.934786,0.841616 0,0 z m -26.325,0.1 c 0.521293,-1.22824 1.414107,0.09671 0,0 z m 14.382,-0.05 c 0.925228,-1.749507 0.973697,0.499995 0,0 z m 7.954,0.03 c -0.536831,-1.022625 0.986279,-0.05177 0.0459,0.06149 z m -8.407,-0.215 c -0.651296,-0.701103 1.254601,0.118704 0,0 z m -15.887,-0.62 c 0.07115,-0.700451 0.46014,0.484399 0,0 z m 32.6,0.085 c -0.08842,-0.562579 -0.706812,-2.172507 0.197478,-1.020721 0.198932,0.342942 0.528799,1.160636 -0.197478,1.020721 z m -8.908,-0.17 c -1.118718,-1.206472 1.437654,0.489578 0,0 z m 6.536,0.065 c -0.489723,-0.405704 1.82287,-2.062555 1.466356,-0.68728 -0.535109,0.102708 -0.945774,0.860022 -1.466356,0.68728 z m 3.35,-0.578 c -0.114297,-1.94632 0.719763,0.372154 0,0 z m -33.308,-0.258 c 0.0633,-1.644617 0.747185,-0.397708 0.132933,0.201451 z m 12.784,-0.466 c -0.307136,-0.509505 0.879612,0.08069 0,0 z m 20.205,-0.703 c 0.03451,-1.166779 0.220444,1.101487 0,0 z m -22.033,0.053 c 0.366583,-0.801343 0.335137,0.704467 0,0 z m 21.006,-0.008 c -0.286596,-1.103366 0.590737,0.451445 0,0 z m -31.58,-0.232 c -0.149076,-1.195828 0.750917,0.555814 0,0 z m 14.043,-0.069 c 0.709085,-0.48542 2.708897,-0.895274 2.936265,-0.299425 -0.995681,-0.364064 -1.963987,0.600382 -2.936265,0.299425 z m -11.498,-0.49 c 1.238989,-0.41769 0.101504,0.779313 0,0 z m 29.763,-0.094 c -0.369613,-0.617172 -0.862571,-2.070612 -0.175001,-0.681217 0.404793,0.04003 0.29109,1.469651 0.175001,0.681217 z m -21.574,-0.066 c 0.341838,-0.51803 0.546523,0.460714 0,0 z m 16.78,-0.533 c 0.293032,-0.9296 0.252875,0.694917 0,0 z m -13.918,-0.304 c 0.891844,-0.463464 1.850111,0.328516 0.327494,0.198508 -0.115376,-0.05378 -0.70097,0.06364 -0.327494,-0.198508 z m -3.661,-0.158 c 0.602901,-1.118276 0.442255,0.522429 0,0 z m -10.537,-0.726 c 0.393783,-1.672069 1.869419,-2.785849 2.92676,-4.089862 1.266197,-0.9325788 -0.664713,1.076183 -0.816789,1.496581 -0.844778,0.574986 -1.965376,2.892404 -2.104971,2.893781 z m 21.638,0.308 c -0.817008,-1.014468 0.932189,0.505779 0,0 z m -5.775,-1.04 c 0.941842,-1.013869 0.487032,0.08577 -0.170957,0.186832 l 0.168147,-0.184009 z m 15.475,-0.145 c -0.606557,-0.68801 -1.075288,-1.822722 0.08989,-0.847031 -0.137858,0.387834 0.729857,1.73109 -0.08989,0.847031 z m -0.97,-1.52 C 76.242167,10.519725 74.911686,9.8623836 73.850118,8.7082503 72.444704,7.7400905 70.962332,6.9406653 69.413344,6.2407176 68.021345,5.9706006 66.769926,5.2522083 65.303785,5.3010035 63.750586,4.8369185 62.251235,4.7522529 60.639626,4.9783138 59.72206,4.6999502 57.883076,5.8317556 57.556473,5.0705278 58.443531,4.8523159 59.071104,4.443113 60.059587,4.534718 c 1.683237,0 3.366473,0 5.049709,0 0.498809,1.4466137 3.073057,-0.1111017 4.098945,1.2236883 1.549117,0.46197 3.093092,1.4207703 4.435055,2.2943117 1.058709,1.3786119 2.754136,1.979545 3.642888,3.496423 l -0.01853,0.100236 z m -8.645,-0.899 c 0.254351,-0.668287 0.152781,0.765687 0,0 z m 5.428,-0.793 c -1.041934,-0.6126239 -0.270447,-0.9802231 0.109157,-0.1594774 0.08881,-0.00359 -0.05283,0.3155444 -0.109157,0.1594774 z m -20.865,-2.7190004 c 1.399367,-0.7848581 2.433743,-2.1044349 4.132136,-1.7890386 -1.663105,0.4801255 -3.11047,1.4214335 -4.538907,2.2877492 0.0036,-0.2135401 0.280686,-0.336031 0.406771,-0.4987106 z m 6.122,-1.056 c 0.808373,-0.4658121 1.46098,0.1660017 0.162493,0.1008548 z"
     style="fill:#221f1d" />
  <path
     id="path3876"
     d="m 61.642296,4.3887176 c 2.339339,0.2680324 4.690354,0.4333796 7.022281,0.7653384 2.406944,1.317888 5.025075,2.343468 6.999354,4.3155442 1.723485,1.1783798 2.81388,2.8634828 3.744444,4.6880028 0.622331,0.873578 1.038818,1.829014 1.068394,2.90584 l 0.362527,2.652275 -0.453,-15.7290004 h -35.413 V 39.261718 h 35.413 c 0.152086,-6.465193 0.465368,-13.025563 0.458964,-19.493146 0.44761,2.381447 0.04543,4.963454 -0.452049,7.300956 -0.348581,1.679879 -1.301254,3.093694 -2.454365,4.330026 -2.124227,2.76573 -4.722292,5.263036 -7.924106,6.718965 -2.40494,0.398174 -4.827588,0.843593 -7.279871,0.676208 -2.227356,0.185281 -4.355281,-0.604061 -6.47614,-1.155816 -2.402894,-0.744241 -4.244377,-2.492467 -6.178404,-4.008693 -1.110477,-1.237606 -2.305568,-2.467146 -2.922134,-4.036896 -0.903248,-2.021537 -2.142047,-3.937585 -2.34647,-6.199285 -0.380506,-2.252155 0.29713,-4.487611 0.578472,-6.712414 0.794389,-2.112181 1.753461,-4.24157 3.221814,-5.991716 1.005776,-1.6994003 2.845823,-2.5378718 4.335372,-3.7322347 1.682566,-0.9606882 3.582844,-1.5259396 5.420698,-2.1322703 z"
     style="stroke:#000000" />
</svg>
